{
.appVersion = "3151";
.formatVersion = 3;
DisplayStrings = (
"ÁÁĂĂÂÂÄÄÀÀĀĀĄĄǺǺÃÃǼǼĆĆČČĈĈĊĊĎĎÉÉĔĔĚĚÊÊËËĖĖÈÈĒĒĘĘĞĞĜĜĠĠĤĤÍÍĬĬÎÎÏÏİİÌÌĪĪĮĮĨĨĴĴĹĹĽĽŃŃŇŇÑÑÓÓŎŎÔÔÖÖÒÒŐŐŌŌǾǾÕÕŔŔŘŘŚŚŠŠŞŞŜŜŦŦŤŤÚÚŬŬÛÛÜÜÙÙŰŰŪŪŲŲŮŮŨŨẂẂŴŴẄẄẀẀÝÝŶŶŸŸỲỲŹŹŽŽŻŻĢŅŖŢŢááăăââääààāāąąååǻǻããǽǽććččĉĉċċďđđééĕĕěěêêëëėėèèēēęęğğĝĝġġħħĥĥííĭĭîîïïììīīįįĩĩĵĵĺĺŀńńŉŉňňññóóŏŏôôööòòőőōōǿǿõõœœŕŕřřśśššşşŝŝŧŧťťúúŭŭûûüüùùűűūūģņŗţţųųůůũũẃẃŵŵẅẅẁẁýýŷŷÿÿỳỳźźžžżż½½¼¼¾¾"
);
classes = (
{
automatic = 1;
code = "A Aacute Abreve Acircumflex Adieresis Agrave Amacron Aogonek Aring Aringacute Atilde AE AEacute B C Cacute Ccaron Ccedilla Ccircumflex Cdotaccent D Eth Dcaron Dcroat E Eacute Ebreve Ecaron Ecircumflex Edieresis Edotaccent Egrave Emacron Eogonek F G Gbreve Gcircumflex Gdotaccent H Hbar Hcircumflex I IJ Iacute Ibreve Icircumflex Idieresis Idotaccent Igrave Imacron Iogonek Itilde J Jcircumflex K L Lacute Lcaron Ldot Lslash M N Nacute Ncaron Ntilde Eng O Oacute Obreve Ocircumflex Odieresis Ograve Ohungarumlaut Omacron Oslash Oslashacute Otilde OE P Thorn Q R Racute Rcaron S Sacute Scaron Scedilla Scircumflex T Tbar Tcaron U Uacute Ubreve Ucircumflex Udieresis Ugrave Uhungarumlaut Umacron Uogonek Uring Utilde V W Wacute Wcircumflex Wdieresis Wgrave X Y Yacute Ycircumflex Ydieresis Ygrave Z Zacute Zcaron Zdotaccent uni0122 uni0136 uni013B uni0145 uni0156 uni0162 uni0218 uni021A uni0394 uni03A9";
name = Uppercase;
}
);
customParameters = (
{
name = "Use Typo Metrics";
value = 1;
},
{
name = fsType;
value = (
);
}
);
date = "2023-02-16 13:35:01 +0000";
familyName = Julee;
featurePrefixes = (
{
automatic = 1;
code = "languagesystem DFLT dflt;

languagesystem latn dflt;
languagesystem latn CAT;
";
name = Languagesystems;
}
);
features = (
{
automatic = 1;
code = "feature locl;
feature sups;
feature frac;
feature ordn;
feature case;
feature salt;
";
tag = aalt;
},
{
automatic = 1;
code = "lookup ccmp_latn_1 {
	sub fi by f i;
	sub fl by f l;
} ccmp_latn_1;

script latn;
lookup ccmp_latn_1;
";
tag = ccmp;
},
{
automatic = 1;

glyphs = (
{
glyphname = A;
layers = (
{
layerId = master01;
shapes = (
{
closed = 1;
nodes = (
(370,671,o),
(348,677,o),
(337,677,c),
(227,619,l),
(201,516,o),
(148,370,o),
(94,238,c),
(55,242,o),
(34,251,o),
(26,251,cs),
(24,251,o),
(23,249,o),
(23,244,cs),
(23,237,o),
(28,211,o),
(38,200,c),
(51,197,o),
(64,194,o),
(76,192,c),
(38,102,o),
(2,21,o),
(-24,-31,c),
(-24,-34,o),
(-13,-34,o),
(-12,-34,cs),
(7,-34,o),
(21,-28,o),
(32,-19,c),
(72,54,o),
(106,120,o),
(137,184,c),
(160,182,o),
(182,182,o),
(207,182,cs),
(254,182,o),
(302,186,o),
(345,193,c),
(370,106,o),
(397,28,o),
(419,-19,c),
(427,-28,o),
(438,-34,o),
(458,-34,cs),
(462,-34,o),
(466,-33,o),
(466,-31,c),
(431,99,o),
(376,332,o),
(376,550,cs),
(376,586,o),
(377,623,o),
(381,658,c,{
name = hr00;
})
);
},
{
closed = 1;
nodes = (
(201,325,o),
(237,415,o),
(276,522,c),
(284,444,o),
(304,349,o),
(328,258,c),
(273,242,o),
(214,236,o),
(161,235,c)
);
}
);
width = 502;
}
);
unicode = 65;
},
{
glyphname = Aring;
layers = (
{
layerId = master01;
shapes = (
{
closed = 1;
nodes = (
(370,671,o),
(348,677,o),
(337,677,c),
(227,619,l),
(201,516,o),
(148,370,o),
(94,238,c),
(55,242,o),
(34,251,o),
(26,251,cs),
(24,251,o),
(23,249,o),
(23,244,cs),
(23,237,o),
(28,211,o),
(38,200,c),
(51,197,o),
(64,194,o),
(76,192,c),
(38,102,o),
(2,21,o),
(-24,-31,cs),
(-25,-33,o),
(-20,-34,o),
(-12,-34,cs),
(-3,-34,o),
(21,-28,o),
(32,-19,c),
(72,54,o),
(106,120,o),
(137,184,c),
(160,182,o),
(182,182,o),
(207,182,cs),
(254,182,o),
(302,186,o),
(345,193,c),
(370,106,o),
(397,28,o),
(419,-19,c),
(427,-28,o),
(448,-34,o),
(458,-34,cs),
(465,-34,o),
(467,-33,o),
(466,-31,cs),
(425,121,o),
(357,413,o),
(381,658,c,{
name = hr00;
})
);
},
{
closed = 1;
nodes = (
(287,882,o),
(241,839,o),
(241,780,cs),
(241,723,o),
(279,698,o),
(325,698,cs),
(386,698,o),
(434,741,o),
(434,800,cs),
(434,857,o),
(395,882,o),
(350,882,cs)
);
},
{
closed = 1;
nodes = (
(360,831,o),
(374,820,o),
(374,795,cs),
(374,768,o),
(355,749,o),
(331,749,cs),
(315,749,o),
(301,760,o),
(301,785,cs),
(301,812,o),
(319,831,o),
(343,831,cs)
);
},
{
closed = 1;
nodes = (
(201,325,o),
(237,415,o),
(276,522,c),
(284,444,o),
(304,349,o),
(328,258,c),
(273,242,o),
(214,236,o),
(161,235,c)
);
}
);
width = 502;
}
);
unicode = 197;
},
{
glyphname = AE;
layers = (
{
layerId = master01;
shapes = (
{
closed = 1;
nodes = (
(273,627,l),
(253,523,o),
(205,399,o),
(151,282,c),
(109,283,o),
(71,287,o),
(42,295,cs),
(40,295,o),
(39,293,o),
(39,288,cs),
(39,281,o),
(44,263,o),
(54,252,c),
(77,244,o),
(103,239,o),
(130,236,c),
(80,131,o),
(28,35,o),
(-8,-31,cs),
(-9,-33,o),
(-4,-34,o),
(4,-34,cs),
(13,-34,o),
(37,-28,o),
(48,-19,c),
(91,45,o),
(144,135,o),
(194,231,c),
(239,230,o),
(285,233,o),
(332,237,c),
(345,78,o),
(393,-33,o),
(515,-33,cs,{
name = hr01;
}),
(639,-33,o),
(696,68,o),
(719,199,c),
(707,209,o),
(695,213,o),
(688,213,cs),
(685,213,o),
(682,210,o),
(681,205,cs),
(661,117,o),
(621,24,o),
(529,24,cs),
(438,24,o),
(414,127,o),
(410,247,c),
(485,258,o),
(555,273,o),
(613,287,c),
(643,356,l),
(634,373,l),
(565,343,o),
(487,320,o),
(410,305,c),
(413,392,o),
(433,499,o),
(448,566,c),
(531,553,o),
(615,553,o),
(706,565,c),
(739,651,l),
(722,677,l),
(651,640,o),
(486,603,o),
(346,677,c)
);
},
{
closed = 1;
nodes = (
(268,376,o),
(311,474,o),
(344,561,c),
(335,503,o),
(328,415,o),
(328,349,cs),
(328,329,o),
(328,310,o),
(329,292,c),
(291,287,o),
(255,283,o),
(220,282,c)
);
}
);
width = 764;
}
);
unicode = 198;
},
{
glyphname = B;
layers = (
{
layerId = master01;
shapes = (
{
closed = 1;
nodes = (
(265,314,o),
(387,271,o),
(387,178,cs),
(387,78,o),
(289,17,o),
(152,17,cs),
(79,17,o),
(44,32,o),
(33,32,cs),
(31,32,o),
(30,31,o),
(30,25,cs),
(30,18,o),
(34,0,o),
(45,-11,c),
(118,-27,o),
(158,-28,o),
(214,-28,cs),
(409,-28,o),
(499,70,o),
(499,169,cs),
(499,258,o),
(422,348,o),
(247,361,c),
(256,364,o),
(428,439,o),
(428,513,cs),
(428,628,o),
(201,577,o),
(79,682,c),
(38,615,l),
(109,544,o),
(126,383,o),
(126,235,cs),
(126,164,o),
(118,100,o),
(112,60,cs),
(112,58,o),
(113,57,o),
(119,57,cs),
(126,57,o),
(144,63,o),
(151,72,c),
(165,100,o),
(180,208,o),
(183,320,c,{
name = hr00;
})
);
},
{
closed = 1;
nodes = (
(209,544,o),
(315,538,o),
(315,498,cs),
(315,476,o),
(263,424,o),
(184,393,c),
(184,525,o),
(168,566,o),
(168,566,c)
);
}
);
width = 509;
}
);
unicode = 66;
},
{
glyphname = C;
layers = (
{
layerId = master01;
shapes = (
{
closed = 1;
nodes = (
(446,677,l),
(133,629,o),
(30,416,o),
(30,252,cs),
(30,85,o),
(104,-32,o),
(233,-32,cs),
(337,-32,o),
(450,79,o),
(478,269,c),
(466,279,o),
(454,283,o),
(447,283,cs),
(444,283,o),
(441,280,o),
(440,275,cs),
(398,129,o),
(341,55,o),
(248,55,cs),
(183,55,o),
(119,133,o),
(119,307,cs),
(119,420,o),
(174,569,o),
(371,569,cs),
(389,569,o),
(409,568,o),
(430,565,c),
(463,651,l,{
name = hr00;
})
);
}
);
width = 488;
}
);
unicode = 67;
},
{
glyphname = Ccedilla;
layers = (
{
layerId = master01;
shapes = (
{
closed = 1;
nodes = (
(446,677,l),
(133,629,o),
(30,416,o),
(30,252,cs),
(30,109,o),
(83,3,o),
(179,-25,c),
(150,-89,l),
(164,-108,l),
(176,-102,o),
(189,-99,o),
(202,-99,cs),
(231,-99,o),
(244,-117,o),
(244,-136,cs),
(244,-158,o),
(225,-183,o),
(194,-183,cs),
(170,-183,o),
(142,-169,o),
(128,-143,c),
(103,-191,l),
(108,-206,l),
(131,-219,o),
(157,-225,o),
(181,-225,cs,{
name = hr01;
}),
(265,-225,o),
(308,-171,o),
(308,-124,cs),
(308,-79,o),
(269,-57,o),
(230,-57,cs),
(217,-57,o),
(205,-59,o),
(194,-63,c),
(211,-30,l),
(218,-31,o),
(225,-32,o),
(233,-32,cs),
(337,-32,o),
(450,79,o),
(478,269,c),
(466,279,o),
(454,283,o),
(447,283,cs),
(444,283,o),
(441,280,o),
(440,275,cs),
(398,129,o),
(341,55,o),
(248,55,cs,{
name = hr02;
}),
(183,55,o),
(119,133,o),
(119,307,cs),
(119,420,o),
(174,569,o),
(371,569,cs),
(389,569,o),
(409,568,o),
(430,565,c),
(463,651,l)
);
}
);
width = 488;
}
);
unicode = 199;
},
{
glyphname = D;
layers = (
{
layerId = master01;
shapes = (
{
closed = 1;
nodes = (
(307,446,o),
(425,350,o),
(425,227,cs),
(425,117,o),
(319,17,o),
(158,17,cs),
(84,17,o),
(49,32,o),
(38,32,cs),
(36,32,o),
(35,31,o),
(35,25,cs),
(35,18,o),
(40,0,o),
(50,-11,c),
(123,-27,o),
(163,-28,o),
(218,-28,cs),
(325,-28,o),
(534,35,o),
(534,227,cs),
(534,429,o),
(267,497,o),
(79,682,c),
(37,615,l),
(108,544,o),
(126,383,o),
(126,235,cs),
(126,164,o),
(118,100,o),
(112,60,cs),
(112,58,o),
(113,57,o),
(119,57,cs),
(126,57,o),
(143,63,o),
(151,72,c),
(167,105,o),
(184,242,o),
(184,372,cs),
(184,420,o),
(184,467,o),
(181,512,c,{
name = hr00;
})
);
}
);
width = 541;
}
);
unicode = 68;
},
{
glyphname = Eth;
layers = (
{
layerId = master01;
shapes = (
{
closed = 1;
nodes = (
(307,446,o),
(425,350,o),
(425,227,cs),
(425,117,o),
(319,17,o),
(158,17,cs),
(84,17,o),
(49,32,o),
(38,32,cs),
(36,32,o),
(35,31,o),
(35,25,cs),
(35,18,o),
(40,0,o),
(50,-11,c),
(123,-27,o),
(163,-28,o),
(218,-28,cs),
(325,-28,o),
(534,35,o),
(534,227,cs),
(534,429,o),
(267,497,o),
(79,682,c),
(37,615,l),
(99,552,o),
(121,420,o),
(125,288,c),
(110,288,ls),
(71,288,o),
(38,290,o),
(0,296,c),
(0,296,o),
(-4,296,o),
(-4,290,c),
(-2,277,o),
(9,242,o),
(19,236,c),
(54,227,o),
(90,222,o),
(126,220,c),
(125,155,o),
(116,97,o),
(112,60,cs),
(112,58,o),
(113,57,o),
(119,57,cs),
(126,57,o),
(143,63,o),
(151,72,c),
(160,91,o),
(170,148,o),
(177,219,c),
(217,219,o),
(255,223,o),
(294,230,c),
(327,308,l),
(316,326,l),
(281,313,o),
(240,298,o),
(182,292,c),
(183,318,o),
(184,345,o),
(184,372,cs),
(184,420,o),
(184,467,o),
(181,512,c,{
name = hr00;
})
);
}
);
width = 541;
}
);
unicode = 208;
},
{
glyphname = E;
layers = (
{
layerId = master01;
shapes = (
{
closed = 1;
nodes = (
(412,384,l),
(369,367,o),
(305,349,o),
(215,349,cs),
(192,349,l),
(199,426,o),
(212,503,o),
(226,563,c),
(263,558,o),
(300,556,o),
(337,556,cs),
(382,556,o),
(427,559,o),
(474,565,c),
(507,651,l),
(490,677,l),
(415,639,o),
(328,627,o),
(241,626,c),
(253,661,l),
(227,677,l),
(154,627,l),
(83,633,l),
(82,633,o),
(81,632,o),
(81,628,cs),
(81,621,o),
(88,597,o),
(101,588,c),
(109,585,o),
(117,584,o),
(125,582,c),
(115,521,o),
(109,408,o),
(107,352,c),
(93,353,o),
(78,355,o),
(64,357,c),
(64,357,o),
(59,357,o),
(59,351,cs),
(60,340,o),
(73,307,o),
(86,303,c),
(106,299,l),
(109,126,o),
(148,-33,o),
(285,-33,cs),
(409,-33,o),
(468,68,o),
(494,199,c),
(482,209,o),
(470,213,o),
(463,213,cs),
(460,213,o),
(457,210,o),
(456,205,cs),
(422,84,o),
(382,25,o),
(298,25,cs),
(222,25,o),
(187,127,o),
(187,250,cs),
(187,263,o),
(187,276,o),
(188,290,c),
(214,288,o),
(241,287,o),
(267,287,cs),
(306,287,o),
(354,291,o),
(391,298,c),
(421,367,l,{
name = hr00;
})
);
}
);
width = 542;
}
);
unicode = 69;
},
{
glyphname = F;
layers = (
{
layerId = master01;
shapes = (
{
closed = 1;
nodes = (
(377,376,l),
(338,361,o),
(283,346,o),
(209,342,c),
(211,381,o),
(213,419,o),
(213,458,cs),
(213,492,o),
(212,526,o),
(210,560,c),
(238,557,o),
(266,556,o),
(295,556,cs),
(338,556,o),
(383,559,o),
(430,565,c),
(463,651,l),
(446,677,l),
(373,640,o),
(287,628,o),
(203,626,c),
(202,638,o),
(200,649,o),
(198,661,c),
(172,677,l),
(102,629,l),
(83,630,o),
(65,631,o),
(47,633,c),
(46,633,o),
(45,632,o),
(45,628,cs),
(45,621,o),
(52,597,o),
(65,588,c),
(79,584,o),
(93,580,o),
(108,577,c),
(116,526,o),
(129,440,o),
(134,342,c),
(113,343,o),
(93,345,o),
(72,349,c),
(72,349,o),
(69,349,o),
(69,343,cs),
(70,332,o),
(79,299,o),
(89,295,c),
(104,291,o),
(119,288,o),
(135,285,c),
(135,274,o),
(136,264,o),
(136,253,cs),
(136,70,o),
(105,-28,o),
(106,-28,c),
(106,-32,o),
(108,-33,o),
(117,-33,cs,{
name = hr01;
}),
(128,-33,o),
(155,-26,o),
(165,-14,c),
(180,78,o),
(195,178,o),
(204,279,c),
(214,278,o),
(224,278,o),
(234,278,cs),
(274,278,o),
(316,284,o),
(355,290,c),
(386,359,l)
);
}
);
width = 433;
}
);
unicode = 70;
},
{
glyphname = G;
layers = (
{
layerId = master01;
shapes = (
{
closed = 1;
nodes = (
(485,31,o),
(471,111,o),
(471,192,cs),
(471,261,o),
(482,325,o),
(503,365,c),
(421,402,l),
(397,386,l),
(391,352,o),
(387,316,o),
(387,285,cs),
(387,260,o),
(388,236,o),
(391,212,c),
(361,108,o),
(309,55,o),
(243,55,cs),
(181,55,o),
(119,133,o),
(119,307,cs),
(119,420,o),
(174,569,o),
(371,569,cs),
(389,569,o),
(409,568,o),
(430,565,c),
(463,651,l),
(446,677,l),
(133,629,o),
(30,416,o),
(30,252,cs),
(30,85,o),
(99,-32,o),
(218,-32,cs),
(296,-32,o),
(364,26,o),
(406,129,c),
(417,84,o),
(433,41,o),
(452,-4,c),
(459,-13,o),
(479,-18,o),
(487,-19,c),
(495,-18,o),
(496,-16,o),
(496,-14,cs,{
name = hr00;
})
);
}
);
width = 538;
}
);
unicode = 71;
},
{
glyphname = H;
layers = (
{
layerId = master01;
shapes = (
{
closed = 1;
nodes = (
(522,34,o),
(515,150,o),
(515,273,cs),
(515,417,o),
(525,544,o),
(561,636,c),
(476,677,l),
(450,661,l),
(438,584,o),
(431,509,o),
(431,432,cs),
(431,411,o),
(431,390,o),
(432,369,c),
(364,338,o),
(281,326,o),
(208,323,c),
(211,368,o),
(213,413,o),
(213,458,cs),
(213,527,o),
(209,596,o),
(198,661,c),
(172,677,l),
(85,636,l),
(85,636,o),
(124,495,o),
(134,325,c),
(93,329,o),
(72,338,o),
(64,338,cs),
(62,338,o),
(60,337,o),
(60,329,cs),
(60,321,o),
(65,297,o),
(75,288,c),
(98,282,o),
(117,278,o),
(135,276,c),
(135,268,o),
(136,260,o),
(136,253,cs),
(136,70,o),
(105,-28,o),
(106,-28,c),
(106,-32,o),
(108,-33,o),
(117,-33,cs,{
name = hr01;
}),
(128,-33,o),
(155,-26,o),
(165,-14,c),
(180,75,o),
(195,172,o),
(204,270,c),
(215,269,o),
(226,269,o),
(237,269,cs),
(304,269,o),
(372,279,o),
(437,292,c),
(445,191,o),
(462,88,o),
(483,-19,c),
(491,-28,o),
(512,-34,o),
(522,-34,cs,{
name = hr02;
}),
(529,-34,o),
(530,-33,o),
(530,-31,cs)
);
}
);
width = 611;
}
);
unicode = 72;
},
{
glyphname = Hbar;
layers = (
{
layerId = master01;
shapes = (
{
closed = 1;
nodes = (
(417,447,o),
(497,459,o),
(569,476,c),
(576,495,l),
(543,542,l),
(420,504,o),
(224,474,o),
(73,458,c),
(61,450,o),
(58,440,o),
(58,433,cs),
(58,428,o),
(65,424,o),
(119,424,cs),
(163,424,o),
(233,427,o),
(327,437,cs,{
name = hr00;
})
);
},
{
ref = H;
}
);
width = 611;
}
);
unicode = 294;
},
{
glyphname = I;
layers = (
{
layerId = master01;
shapes = (
{
closed = 1;
nodes = (
(172,122,o),
(191,454,o),
(196,631,c),
(106,677,l),
(80,659,l),
(100,532,o),
(109,369,o),
(109,235,cs),
(109,153,o),
(104,66,o),
(90,-29,cs),
(90,-31,o),
(91,-33,o),
(98,-33,cs),
(109,-33,o),
(136,-26,o),
(144,-17,c,{
name = hr00;
})
);
}
);
width = 261;
}
);
unicode = 73;
},
{
glyphname = J;
layers = (
{
layerId = master01;
shapes = (
{
closed = 1;
nodes = (
(-52,-171,o),
(-6,-216,o),
(48,-216,cs),
(117,-216,o),
(199,-145,o),
(234,-19,cs),
(271,115,o),
(286,411,o),
(293,573,c),
(314,582,o),
(335,594,o),
(357,607,c),
(366,615,o),
(372,636,o),
(372,645,cs),
(372,653,o),
(370,654,o),
(368,654,cs),
(331,642,o),
(272,627,o),
(213,627,cs),
(163,627,o),
(120,635,o),
(86,661,c),
(60,575,l),
(71,549,l),
(96,543,o),
(122,540,o),
(146,540,cs),
(158,540,o),
(171,540,o),
(183,542,c),
(191,451,o),
(195,317,o),
(195,257,cs),
(195,-38,o),
(133,-137,o),
(87,-137,cs),
(60,-137,o),
(38,-102,o),
(38,-52,c),
(15,-38,l),
(-59,-74,l,{
name = hr00;
})
);
}
);
width = 397;
}
);
unicode = 74;
},
{
glyphname = K;
layers = (
{
layerId = master01;
shapes = (
{
closed = 1;
nodes = (
(150,42,o),
(159,124,o),
(167,214,c),
(184,240,o),
(202,265,o),
(219,289,c),
(288,167,o),
(373,30,o),
(435,-30,c),
(439,-31,o),
(443,-31,o),
(447,-31,cs),
(463,-31,o),
(480,-26,o),
(480,-19,c),
(414,68,o),
(311,268,o),
(278,369,c),
(341,454,o),
(409,539,o),
(491,640,c),
(462,663,l),
(375,643,l),
(302,539,o),
(236,422,o),
(174,309,c),
(183,426,o),
(188,546,o),
(191,631,c,{
name = hr01;
}),
(101,677,l),
(75,659,l),
(95,532,o),
(104,369,o),
(104,235,cs),
(104,153,o),
(99,71,o),
(85,-24,cs),
(85,-26,o),
(86,-28,o),
(93,-28,cs),
(104,-28,o),
(131,-21,o),
(139,-12,c)
);
}
);
width = 491;
}
);
unicode = 75;
},
{
glyphname = L;
layers = (
{
layerId = master01;
shapes = (
{
closed = 1;
nodes = (
(190,-14,o),
(243,-19,o),
(298,-19,cs),
(332,-19,o),
(367,-18,o),
(404,-14,c),
(437,72,l),
(420,98,l),
(343,57,o),
(260,46,o),
(178,46,cs),
(167,46,o),
(156,47,o),
(145,47,c),
(171,205,o),
(190,476,o),
(197,631,c),
(108,677,l),
(82,659,l),
(97,552,o),
(104,421,o),
(104,302,cs),
(104,195,o),
(100,97,o),
(80,-24,cs),
(80,-26,o),
(81,-28,o),
(88,-28,cs,{
name = hr01;
}),
(99,-28,o),
(126,-21,o),
(134,-12,c),
(137,0,l)
);
}
);
width = 422;
}
);
unicode = 76;
},
{
glyphname = Lslash;
layers = (
{
layerId = master01;
shapes = (
{
closed = 1;
nodes = (
(134,-10,o),
(135,-7,o),
(135,-5,c),
(221,-20,o),
(306,-23,o),
(404,-14,c),
(437,72,l),
(420,98,l),
(333,52,o),
(238,44,o),
(145,47,c),
(157,120,o),
(167,216,o),
(176,315,c),
(209,328,o),
(242,344,o),
(281,366,c),
(281,439,l),
(263,449,l),
(244,434,o),
(224,412,o),
(182,386,c),
(189,477,o),
(194,564,o),
(197,631,c),
(108,677,l),
(82,659,l),
(95,566,o),
(102,453,o),
(103,347,c),
(75,335,o),
(41,323,o),
(0,310,c),
(0,295,o),
(11,278,o),
(21,274,c),
(51,280,o),
(78,285,o),
(103,292,c),
(103,235,ls),
(102,153,o),
(96,71,o),
(80,-24,cs),
(80,-26,o),
(81,-28,o),
(88,-28,cs),
(99,-28,o),
(126,-21,o),
(134,-12,c,{
name = hr00;
})
);
}
);
width = 422;
}
);
unicode = 321;
},
{
glyphname = M;
layers = (
{
layerId = master01;
shapes = (
{
closed = 1;
nodes = (
(672,34,o),
(665,150,o),
(665,273,cs),
(665,417,o),
(675,544,o),
(711,636,c),
(626,677,l),
(600,661,l),
(600,660,o),
(599,659,o),
(599,658,cs),
(509,482,o),
(438,335,o),
(381,182,c),
(331,347,o),
(275,507,o),
(207,661,c),
(181,677,l),
(78,636,l),
(78,636,o),
(106,479,o),
(106,297,cs),
(106,86,o),
(74,-24,o),
(76,-24,c),
(76,-27,o),
(77,-28,o),
(87,-28,cs,{
name = hr01;
}),
(97,-28,o),
(124,-21,o),
(136,-9,c),
(163,96,o),
(192,350,o),
(203,535,c),
(252,378,o),
(299,196,o),
(320,6,c),
(415,-35,l,{
name = hr02;
}),
(437,-19,l),
(425,26,l),
(457,196,o),
(502,338,o),
(584,529,c),
(582,497,o),
(581,464,o),
(581,432,cs),
(581,286,o),
(602,138,o),
(633,-19,c),
(641,-28,o),
(662,-34,o),
(672,-34,cs,{
name = hr03;
}),
(679,-34,o),
(680,-33,o),
(680,-31,cs)
);
}
);
width = 761;
}
);
unicode = 77;
},
{
glyphname = N;
layers = (
{
layerId = master01;
shapes = (
{
closed = 1;
nodes = (
(68,636,o),
(106,479,o),
(106,297,cs),
(106,86,o),
(64,-24,o),
(66,-24,c),
(66,-27,o),
(67,-28,o),
(77,-28,cs,{
name = hr01;
}),
(87,-28,o),
(114,-21,o),
(126,-9,c),
(160,123,o),
(183,300,o),
(183,468,c),
(262,293,o),
(353,139,o),
(457,-14,cs),
(464,-25,o),
(486,-28,o),
(495,-28,cs),
(503,-28,o),
(504,-27,o),
(504,-25,cs),
(498,33,o),
(494,103,o),
(494,178,cs),
(494,339,o),
(511,520,o),
(558,636,c),
(482,677,l),
(457,661,l),
(435,547,o),
(423,436,o),
(423,325,cs),
(423,259,o),
(427,194,o),
(436,129,c),
(355,257,o),
(262,452,o),
(202,661,c),
(176,677,l),
(68,636,l)
);
}
);
width = 588;
}
);
unicode = 78;
},
{
glyphname = Eng;
layers = (
{
layerId = master01;
shapes = (
{
closed = 1;
nodes = (
(68,636,o),
(106,479,o),
(106,297,cs),
(106,86,o),
(64,-24,o),
(66,-24,c),
(66,-27,o),
(67,-28,o),
(77,-28,cs,{
name = hr01;
}),
(87,-28,o),
(114,-21,o),
(126,-9,c),
(160,123,o),
(183,300,o),
(183,468,c),
(260,298,o),
(348,148,o),
(448,0,c),
(452,-18,o),
(453,-35,o),
(453,-51,cs),
(453,-123,o),
(422,-174,o),
(351,-174,cs),
(333,-174,o),
(312,-170,o),
(289,-163,c),
(266,-260,l),
(291,-278,l),
(476,-256,o),
(504,-143,o),
(504,-33,cs),
(504,37,o),
(494,111,o),
(494,178,cs),
(494,339,o),
(511,520,o),
(558,636,c),
(482,677,l),
(457,661,l),
(435,547,o),
(423,436,o),
(423,325,cs,{
name = hr02;
}),
(423,259,o),
(427,194,o),
(436,129,c),
(355,257,o),
(262,452,o),
(202,661,c),
(176,677,l),
(68,636,l)
);
}
);
width = 587;
}
);
unicode = 330;
},
{
glyphname = O;
layers = (
{
layerId = master01;
shapes = (
{
closed = 1;
nodes = (
(128,642,o),
(30,431,o),
(30,263,cs),
(30,71,o),
(142,-34,o),
(274,-34,cs),
(477,-34,o),
(551,140,o),
(551,301,cs),
(551,423,o),
(500,538,o),
(436,593,c),
(465,651,l),
(448,676,l,{
name = hr00;
})
);
},
{
closed = 1;
nodes = (
(208,49,o),
(126,138,o),
(126,291,cs),
(126,447,o),
(202,558,o),
(377,583,c),
(451,509,o),
(487,373,o),
(487,281,cs),
(487,156,o),
(425,53,o),
(299,49,c)
);
}
);
width = 581;
}
);
unicode = 79;
},
{
glyphname = Oslash;
layers = (
{
layerId = master01;
shapes = (
{
closed = 1;
nodes = (
(177,-13,l),
(207,-27,o),
(240,-34,o),
(274,-34,cs),
(477,-34,o),
(551,140,o),
(551,301,cs),
(551,405,o),
(514,504,o),
(463,565,c),
(490,614,o),
(519,663,o),
(550,712,c),
(518,738,l),
(435,716,l),
(414,671,l),
(121,627,o),
(30,425,o),
(30,263,cs),
(30,148,o),
(70,64,o),
(130,15,c),
(90,-81,l),
(98,-94,o),
(116,-103,o),
(126,-103,cs),
(133,-103,o),
(137,-100,o),
(138,-98,c,{
name = hr00;
})
);
},
{
closed = 1;
nodes = (
(270,49,o),
(242,58,o),
(218,75,c),
(285,219,o),
(352,362,o),
(430,507,c),
(468,435,o),
(487,347,o),
(487,281,cs),
(487,156,o),
(425,53,o),
(299,49,c)
);
},
{
closed = 1;
nodes = (
(126,446,o),
(201,557,o),
(374,582,c),
(304,425,o),
(237,270,o),
(173,119,c),
(144,160,o),
(126,218,o),
(126,291,cs)
);
}
);
width = 581;
}
);
unicode = 216;
},
{
glyphname = OE;
layers = (
{
layerId = master01;
shapes = (
{
closed = 1;
nodes = (
(743,-33,o),
(802,68,o),
(828,199,c),
(816,209,o),
(804,213,o),
(797,213,cs),
(794,213,o),
(791,210,o),
(790,205,cs),
(756,84,o),
(716,25,o),
(632,25,cs),
(556,25,o),
(521,127,o),
(521,250,cs),
(521,263,o),
(521,276,o),
(522,289,c),
(548,287,o),
(575,287,o),
(601,287,cs),
(640,287,o),
(688,291,o),
(725,298,c),
(755,367,l),
(746,384,l),
(703,367,o),
(639,349,o),
(549,349,cs),
(526,349,l),
(533,426,o),
(546,503,o),
(560,563,c),
(593,559,o),
(629,556,o),
(671,556,cs),
(716,556,o),
(761,559,o),
(808,565,c),
(841,651,l),
(824,677,l),
(737,642,o),
(671,633,o),
(609,633,cs),
(578,633,l),
(581,645,o),
(584,654,o),
(587,661,c),
(561,677,l),
(505,639,l),
(467,642,o),
(428,646,o),
(384,646,cs,{
name = hr01;
}),
(135,646,o),
(30,431,o),
(30,256,cs),
(30,70,o),
(126,-33,o),
(244,-33,cs),
(358,-33,o),
(425,34,o),
(460,125,c),
(483,32,o),
(531,-33,o),
(619,-33,cs)
);
},
{
closed = 1;
nodes = (
(440,311,ls),
(437,197,o),
(380,67,o),
(267,67,cs,{
name = hr02;
}),
(183,67,o),
(117,146,o),
(117,295,cs),
(117,444,o),
(197,585,o),
(368,585,cs),
(399,585,o),
(429,582,o),
(458,578,c),
(446,497,o),
(440,332,o),
(440,320,c)
);
}
);
width = 876;
}
);
unicode = 338;
},
{
glyphname = P;
layers = (
{
layerId = master01;
shapes = (
{
closed = 1;
nodes = (
(92,209,o),
(116,209,o),
(139,209,c),
(138,111,o),
(130,22,o),
(125,-31,cs),
(125,-33,o),
(126,-34,o),
(134,-34,cs),
(143,-34,o),
(164,-28,o),
(173,-19,c),
(182,54,o),
(192,132,o),
(199,211,c),
(423,228,o),
(485,329,o),
(485,409,cs),
(485,553,o),
(290,563,o),
(106,689,c),
(59,622,l),
(119,552,o),
(137,397,o),
(139,254,c),
(100,254,o),
(79,254,o),
(58,258,cs),
(56,258,o),
(55,257,o),
(55,250,cs),
(55,242,o),
(59,222,o),
(72,210,c,{
name = hr00;
})
);
},
{
closed = 1;
nodes = (
(206,439,o),
(202,504,o),
(189,577,c),
(298,528,o),
(384,491,o),
(384,403,cs),
(384,339,o),
(328,278,o),
(202,259,c),
(205,296,o),
(206,333,o),
(206,369,cs)
);
}
);
width = 480;
}
);
unicode = 80;
},
{
glyphname = Thorn;
layers = (
{
layerId = master01;
shapes = (
{
closed = 1;
nodes = (
(160,350,o),
(156,415,o),
(143,488,c),
(252,439,o),
(338,402,o),
(338,314,cs),
(338,250,o),
(282,189,o),
(156,170,c),
(159,207,o),
(160,244,o),
(160,280,cs,{
name = hr00;
})
);
},
{
closed = 1;
nodes = (
(141,240,o),
(152,177,o),
(153,122,c),
(377,139,o),
(439,240,o),
(439,320,cs),
(439,449,o),
(283,470,o),
(118,564,c),
(123,300,l)
);
},
{
pos = (-10,0);
ref = I;
}
);
width = 454;
}
);
unicode = 222;
},
{
glyphname = Q;
layers = (
{
layerId = master01;
shapes = (
{
closed = 1;
nodes = (
(128,642,o),
(30,431,o),
(30,263,cs),
(30,96,o),
(114,-4,o),
(223,-28,c),
(193,-62,o),
(159,-94,o),
(119,-124,c),
(94,-131,o),
(69,-138,o),
(44,-147,c),
(35,-157,o),
(28,-173,o),
(27,-181,c),
(37,-196,o),
(55,-206,o),
(65,-206,c),
(83,-199,o),
(102,-190,o),
(121,-179,c),
(139,-178,o),
(159,-178,o),
(179,-178,cs),
(270,-178,o),
(359,-193,o),
(409,-224,c),
(451,-145,l),
(437,-120,l),
(386,-106,o),
(335,-101,o),
(290,-101,cs),
(269,-101,o),
(248,-102,o),
(228,-104,c),
(253,-82,o),
(278,-58,o),
(300,-33,c),
(483,-18,o),
(551,147,o),
(551,301,cs),
(551,423,o),
(500,538,o),
(436,593,c),
(465,651,l),
(448,676,l,{
name = hr00;
})
);
},
{
closed = 1;
nodes = (
(208,49,o),
(126,138,o),
(126,291,cs),
(126,447,o),
(202,558,o),
(377,583,c),
(451,509,o),
(487,373,o),
(487,281,cs),
(487,156,o),
(425,49,o),
(299,49,cs)
);
}
);
width = 581;
}
);
unicode = 81;
},
{
glyphname = R;
layers = (
{
layerId = master01;
shapes = (
{
closed = 1;
nodes = (
(92,234,o),
(116,234,o),
(139,234,c),
(139,126,o),
(131,26,o),
(125,-31,cs),
(125,-33,o),
(126,-34,o),
(134,-34,cs),
(143,-34,o),
(164,-28,o),
(173,-19,c),
(183,62,o),
(195,149,o),
(201,236,c),
(234,239,o),
(264,243,o),
(291,249,c),
(355,139,o),
(428,24,o),
(483,-30,c),
(487,-31,o),
(491,-31,o),
(495,-31,cs),
(511,-31,o),
(528,-26,o),
(528,-19,c),
(479,45,o),
(411,170,o),
(365,272,c),
(456,311,o),
(485,373,o),
(485,425,cs),
(485,561,o),
(290,570,o),
(106,689,c),
(59,622,l),
(115,556,o),
(135,415,o),
(138,279,c),
(100,279,o),
(79,279,o),
(58,283,cs),
(56,283,o),
(55,282,o),
(55,275,cs),
(55,267,o),
(59,247,o),
(72,235,c,{
name = hr00;
})
);
},
{
closed = 1;
nodes = (
(206,439,o),
(202,504,o),
(189,577,c),
(298,532,o),
(384,498,o),
(384,416,cs),
(384,357,o),
(328,301,o),
(203,284,c),
(205,313,o),
(206,341,o),
(206,369,cs)
);
}
);
width = 528;
}
);
unicode = 82;
},
{
glyphname = S;
layers = (
{
layerId = master01;
shapes = (
{
closed = 1;
nodes = (
(391,664,l),
(85,621,o),
(43,513,o),
(43,460,cs),
(43,330,o),
(287,259,o),
(287,138,cs),
(287,67,o),
(211,17,o),
(98,17,cs),
(40,17,o),
(10,32,o),
(1,32,cs),
(0,32,o),
(0,31,o),
(0,25,cs),
(0,18,o),
(4,0,o),
(11,-11,c),
(63,-27,o),
(92,-28,o),
(129,-28,cs),
(353,-28,o),
(399,90,o),
(399,155,cs),
(399,307,o),
(139,376,o),
(139,491,cs),
(139,556,o),
(200,578,o),
(262,578,cs),
(303,578,o),
(345,568,o),
(375,552,c),
(408,638,l,{
name = hr00;
})
);
}
);
width = 438;
}
);
unicode = 83;
},
{
glyphname = T;
layers = (
{
layerId = master01;
shapes = (
{
closed = 1;
nodes = (
(269,117,o),
(287,396,o),
(294,556,c),
(345,568,o),
(395,585,o),
(447,607,c),
(456,615,o),
(462,636,o),
(462,645,cs),
(462,653,o),
(460,654,o),
(458,654,cs),
(410,642,o),
(325,627,o),
(240,627,cs),
(168,627,o),
(106,635,o),
(58,661,c),
(20,575,l),
(36,549,l),
(72,543,o),
(109,540,o),
(143,540,cs),
(160,540,o),
(177,540,o),
(194,541,c),
(202,451,o),
(206,317,o),
(206,257,cs),
(206,169,o),
(201,73,o),
(184,-30,cs),
(184,-32,o),
(185,-33,o),
(191,-33,cs),
(201,-33,o),
(225,-28,o),
(234,-19,c,{
name = hr00;
})
);
}
);
width = 457;
}
);
unicode = 84;
},
{
glyphname = U;
layers = (
{
layerId = master01;
shapes = (
{
closed = 1;
nodes = (
(133,677,l),
(107,661,l),
(95,589,o),
(80,469,o),
(80,349,cs),
(80,158,o),
(118,-33,o),
(267,-33,cs),
(373,-33,o),
(429,52,o),
(457,159,c),
(465,101,o),
(476,41,o),
(488,-19,c),
(496,-28,o),
(517,-34,o),
(527,-34,cs,{
name = hr01;
}),
(534,-34,o),
(535,-33,o),
(535,-31,cs),
(527,34,o),
(520,150,o),
(520,273,cs),
(520,417,o),
(530,544,o),
(566,636,c),
(481,677,l),
(455,661,l),
(443,584,o),
(436,509,o),
(436,432,cs),
(436,375,o),
(439,318,o),
(445,260,c),
(431,157,o),
(384,51,o),
(300,51,cs,{
name = hr02;
}),
(200,51,o),
(170,170,o),
(170,305,cs),
(170,431,o),
(197,570,o),
(218,636,c)
);
}
);
width = 611;
}
);
unicode = 85;
},
{
glyphname = V;
layers = (
{
layerId = master01;
shapes = (
{
closed = 1;
nodes = (
(321,20,l),
(378,440,o),
(493,648,o),
(493,672,cs),
(493,675,o),
(492,677,o),
(489,677,cs),
(477,677,o),
(452,669,o),
(440,658,c),
(352,506,o),
(259,210,o),
(231,40,c),
(173,211,o),
(134,377,o),
(134,560,cs),
(134,593,o),
(135,627,o),
(138,661,c),
(112,677,l),
(25,636,l),
(43,411,o),
(127,137,o),
(198,-9,c),
(209,-22,o),
(231,-28,o),
(242,-28,c,{
name = hr00;
})
);
}
);
width = 478;
}
);
unicode = 86;
},
{
glyphname = W;
layers = (
{
layerId = master01;
shapes = (
{
closed = 1;
nodes = (
(321,20,l),
(340,196,o),
(369,333,o),
(396,435,c),
(431,264,o),
(488,95,o),
(539,-9,c),
(550,-22,o),
(572,-28,o),
(583,-28,c),
(662,20,l),
(707,440,o),
(809,648,o),
(809,672,cs),
(809,675,o),
(808,677,o),
(805,677,cs),
(793,677,o),
(768,669,o),
(756,658,c),
(678,507,o),
(596,211,o),
(572,41,c),
(514,212,o),
(475,377,o),
(475,560,cs),
(475,593,o),
(476,627,o),
(479,661,c),
(453,677,l),
(366,636,l),
(367,611,o),
(370,585,o),
(374,559,c),
(310,401,o),
(251,181,o),
(231,41,c),
(173,212,o),
(134,377,o),
(134,560,cs),
(134,593,o),
(135,627,o),
(138,661,c),
(112,677,l),
(25,636,l),
(43,411,o),
(127,137,o),
(198,-9,c),
(209,-22,o),
(231,-28,o),
(242,-28,c,{
name = hr00;
})
);
}
);
width = 804;
}
);
unicode = 87;
},
{
glyphname = X;
layers = (
{
layerId = master01;
shapes = (
{
closed = 1;
nodes = (
(112,62,o),
(170,150,o),
(232,241,c),
(292,139,o),
(360,48,o),
(424,-20,cs),
(429,-26,o),
(441,-33,o),
(471,-33,cs),
(475,-33,o),
(481,-30,o),
(481,-24,c),
(413,84,o),
(342,201,o),
(286,318,c),
(360,423,o),
(440,530,o),
(529,640,c),
(500,663,l),
(413,643,l),
(358,565,o),
(304,484,o),
(250,399,c),
(218,476,o),
(195,553,o),
(186,625,c),
(101,668,l),
(75,650,l),
(94,536,o),
(138,418,o),
(195,310,c),
(132,208,o),
(72,101,o),
(15,-8,c),
(22,-20,o),
(39,-28,o),
(48,-28,cs,{
name = hr01;
}),
(54,-28,o),
(58,-26,o),
(59,-24,cs)
);
}
);
width = 509;
}
);
unicode = 88;
},
{
glyphname = Y;
layers = (
{
layerId = master01;
shapes = (
{
closed = 1;
nodes = (
(55,636,l),
(68,528,o),
(130,343,o),
(190,216,c),
(191,137,o),
(199,54,o),
(213,-19,c),
(220,-28,o),
(248,-34,o),
(258,-34,cs),
(265,-34,o),
(266,-33,o),
(266,-31,cs),
(266,-25,o),
(262,-3,o),
(262,87,cs),
(262,135,o),
(264,179,o),
(268,218,c),
(318,415,o),
(491,658,o),
(491,674,cs),
(491,676,o),
(488,679,o),
(485,679,cs),
(473,679,o),
(449,673,o),
(442,665,cs),
(360,563,o),
(235,347,o),
(219,312,c),
(186,419,o),
(168,540,o),
(168,661,c),
(142,677,l,{
name = hr00;
})
);
}
);
width = 441;
}
);
unicode = 89;
},
{
glyphname = Z;
layers = (
{
layerId = master01;
shapes = (
{
closed = 1;
nodes = (
(357,629,l),
(333,627,o),
(308,626,o),
(282,626,cs),
(200,626,o),
(111,631,o),
(46,660,c),
(31,633,l),
(72,550,l),
(106,545,o),
(141,543,o),
(174,543,cs),
(229,543,o),
(283,549,o),
(337,561,c),
(290,372,o),
(142,169,o),
(7,13,cs),
(0,6,l),
(19,-24,l),
(91,-13,o),
(158,-8,o),
(230,-8,cs),
(297,-8,o),
(381,-13,o),
(459,-30,c),
(460,-30,o),
(461,-28,o),
(461,-21,cs),
(461,-10,o),
(456,20,o),
(449,29,c),
(368,56,o),
(247,67,o),
(131,78,c),
(265,227,o),
(423,431,o),
(460,650,c),
(434,668,l,{
name = hr00;
})
);
}
);
width = 480;
}
);
unicode = 90;
},
{
glyphname = a;
layers = (
{
layerId = master01;
shapes = (
{
closed = 1;
nodes = (
(182,398,o),
(24,273,o),
(24,91,cs),
(24,25,o),
(50,-22,o),
(110,-22,cs),
(179,-22,o),
(264,71,o),
(320,204,c),
(330,127,o),
(347,41,o),
(371,-14,c),
(379,-22,o),
(399,-28,o),
(408,-28,cs,{
name = hr01;
}),
(414,-28,o),
(415,-27,o),
(415,-25,cs),
(404,20,o),
(389,184,o),
(389,255,cs),
(389,330,o),
(402,420,o),
(422,479,c),
(398,493,l),
(317,458,ls)
);
},
{
closed = 1;
nodes = (
(129,98,o),
(118,129,o),
(118,172,cs),
(118,284,o),
(218,356,o),
(310,408,c),
(309,389,o),
(309,366,o),
(309,333,cs),
(309,322,o),
(309,309,o),
(310,295,c),
(267,163,o),
(208,98,o),
(168,98,cs,{
name = hr02;
})
);
}
);
width = 470;
}
);
unicode = 97;
},
{
glyphname = ae;
layers = (
{
layerId = master01;
shapes = (
{
closed = 1;
nodes = (
(182,398,o),
(24,273,o),
(24,91,cs),
(24,25,o),
(50,-22,o),
(110,-22,cs),
(168,-22,o),
(238,44,o),
(292,145,c),
(292,144,l),
(292,45,o),
(339,-22,o),
(423,-22,cs),
(509,-22,o),
(598,84,o),
(653,217,c),
(644,224,o),
(629,231,o),
(623,231,cs),
(619,231,o),
(617,229,o),
(616,225,c),
(572,133,o),
(518,77,o),
(457,77,cs),
(418,77,o),
(384,105,o),
(378,175,c),
(434,186,o),
(600,237,o),
(632,368,c),
(632,412,o),
(617,461,o),
(571,477,c),
(488,458,o),
(428,423,o),
(385,380,c),
(395,413,o),
(408,446,o),
(422,479,c),
(398,493,l),
(317,458,ls,{
name = hr00;
})
);
},
{
closed = 1;
nodes = (
(133,98,o),
(118,129,o),
(118,172,cs),
(118,292,o),
(234,371,o),
(346,427,c),
(331,310,o),
(248,98,o),
(168,98,cs)
);
},
{
closed = 1;
nodes = (
(538,398,o),
(550,382,o),
(550,363,cs),
(550,315,o),
(498,246,o),
(378,215,c),
(386,342,o),
(469,398,o),
(515,398,cs)
);
}
);
width = 677;
}
);
unicode = 230;
},
{
glyphname = b;
layers = (
{
layerId = master01;
shapes = (
{
closed = 1;
nodes = (
(171,378,o),
(178,450,o),
(178,518,cs),
(178,573,o),
(175,626,o),
(168,674,c),
(87,712,l),
(63,696,l),
(80,635,o),
(101,511,o),
(101,379,cs),
(101,265,o),
(90,129,o),
(54,-24,c),
(54,-28,o),
(55,-31,o),
(63,-31,cs),
(257,-31,o),
(442,194,o),
(442,378,cs),
(442,444,o),
(417,491,o),
(356,491,cs),
(296,491,o),
(225,416,o),
(170,303,c),
(163,308,l,{
name = hr00;
})
);
},
{
closed = 1;
nodes = (
(175,284,o),
(251,371,o),
(299,371,cs),
(337,371,o),
(348,340,o),
(348,296,cs),
(348,216,o),
(283,80,o),
(119,25,c),
(137,109,ls)
);
}
);
width = 473;
}
);
unicode = 98;
},
{
glyphname = c;
layers = (
{
layerId = master01;
shapes = (
{
closed = 1;
nodes = (
(258,-22,o),
(347,84,o),
(379,217,c),
(369,224,o),
(354,231,o),
(348,231,cs),
(345,231,o),
(342,229,o),
(341,225,cs),
(304,133,o),
(257,77,o),
(206,77,cs),
(164,77,o),
(127,117,o),
(127,195,cs),
(127,295,o),
(181,403,o),
(282,403,cs),
(301,403,o),
(323,399,o),
(346,390,c),
(378,479,l),
(356,498,l),
(104,437,o),
(41,272,o),
(41,144,cs),
(41,45,o),
(88,-22,o),
(172,-22,cs,{
name = hr00;
})
);
}
);
width = 408;
}
);
unicode = 99;
},
{
glyphname = ccedilla;
layers = (
{
layerId = master01;
shapes = (
{
closed = 1;
nodes = (
(369,224,o),
(354,231,o),
(348,231,cs),
(345,231,o),
(342,229,o),
(341,225,cs),
(304,133,o),
(257,77,o),
(206,77,cs),
(164,77,o),
(127,117,o),
(127,195,cs),
(127,295,o),
(181,403,o),
(282,403,cs),
(301,403,o),
(323,399,o),
(346,390,c),
(378,479,l),
(356,498,l),
(104,437,o),
(41,272,o),
(41,144,cs),
(41,57,o),
(77,-5,o),
(143,-19,c),
(111,-89,l),
(125,-108,l),
(137,-102,o),
(150,-99,o),
(163,-99,cs),
(192,-99,o),
(205,-117,o),
(205,-136,cs),
(205,-158,o),
(186,-183,o),
(155,-183,cs),
(131,-183,o),
(103,-169,o),
(89,-143,c),
(64,-191,l),
(69,-206,l),
(92,-219,o),
(118,-225,o),
(142,-225,cs,{
name = hr01;
}),
(226,-225,o),
(269,-171,o),
(269,-124,cs),
(269,-79,o),
(230,-57,o),
(191,-57,cs),
(178,-57,o),
(166,-59,o),
(155,-63,c),
(176,-22,l),
(261,-18,o),
(347,86,o),
(379,217,c)
);
}
);
width = 408;
}
);
unicode = 231;
},
{
glyphname = d;
layers = (
{
layerId = master01;
shapes = (
{
closed = 1;
nodes = (
(302,626,o),
(299,574,o),
(299,521,cs),
(299,505,o),
(299,488,o),
(300,472,c),
(98,382,o),
(24,209,o),
(24,91,cs),
(24,25,o),
(50,-22,o),
(110,-22,cs),
(182,-22,o),
(271,77,o),
(325,217,c),
(339,129,o),
(355,48,o),
(371,-14,c),
(380,-24,o),
(402,-31,o),
(412,-31,cs,{
name = hr01;
}),
(419,-31,o),
(420,-30,o),
(420,-26,c),
(387,127,o),
(375,265,o),
(375,379,cs),
(375,511,o),
(396,635,o),
(414,696,c),
(389,712,l),
(309,674,l)
);
},
{
closed = 1;
nodes = (
(270,166,o),
(209,98,o),
(168,98,cs,{
name = hr02;
}),
(129,98,o),
(118,129,o),
(118,172,cs),
(118,245,o),
(170,358,o),
(303,418,c),
(305,380,o),
(309,342,o),
(313,304,c)
);
}
);
width = 459;
}
);
unicode = 100;
},
{
glyphname = eth;
layers = (
{
layerId = master01;
shapes = (
{
closed = 1;
nodes = (
(458,651,l),
(440,661,l),
(418,643,o),
(394,617,o),
(337,586,c),
(286,652,o),
(210,699,o),
(98,704,c),
(74,686,l),
(93,601,l),
(121,608,o),
(145,612,o),
(168,612,cs),
(219,612,o),
(257,593,o),
(285,561,c),
(255,549,o),
(220,535,o),
(177,522,c),
(177,507,o),
(188,490,o),
(198,486,c),
(243,495,o),
(281,503,o),
(315,514,c),
(327,491,o),
(336,465,o),
(343,436,c),
(105,392,o),
(42,277,o),
(42,167,cs),
(42,37,o),
(122,-33,o),
(218,-33,cs),
(361,-33,o),
(434,89,o),
(434,247,cs),
(434,324,o),
(421,439,o),
(371,534,c),
(398,546,o),
(426,560,o),
(458,578,c,{
name = hr00;
})
);
},
{
closed = 1;
nodes = (
(168,58,o),
(133,113,o),
(133,187,cs),
(133,285,o),
(216,355,o),
(328,374,c),
(358,337,o),
(373,286,o),
(373,235,cs),
(373,145,o),
(326,58,o),
(229,58,cs)
);
}
);
width = 477;
}
);
unicode = 240;
},
{
glyphname = e;
layers = (
{
layerId = master01;
shapes = (
{
closed = 1;
nodes = (
(381,412,o),
(366,461,o),
(320,477,c),
(103,427,o),
(41,270,o),
(41,144,cs),
(41,45,o),
(88,-22,o),
(172,-22,cs),
(258,-22,o),
(347,84,o),
(402,217,c),
(393,224,o),
(378,231,o),
(372,231,cs),
(368,231,o),
(366,229,o),
(365,225,c),
(321,133,o),
(267,77,o),
(206,77,cs),
(167,77,o),
(133,105,o),
(127,175,c),
(183,186,o),
(349,237,o),
(381,368,c,{
name = hr00;
})
);
},
{
closed = 1;
nodes = (
(287,398,o),
(299,382,o),
(299,363,cs),
(299,315,o),
(247,246,o),
(127,215,c),
(135,342,o),
(218,398,o),
(264,398,cs)
);
}
);
width = 426;
}
);
unicode = 101;
},
{
glyphname = f;
layers = (
{
layerId = master01;
shapes = (
{
closed = 1;
nodes = (
(299,459,l),
(267,446,o),
(230,433,o),
(178,427,c),
(178,451,o),
(179,474,o),
(179,497,cs),
(179,566,o),
(190,627,o),
(243,627,cs),
(270,627,o),
(285,621,o),
(315,608,c),
(338,694,l),
(314,712,l),
(148,671,o),
(99,586,o),
(91,543,c),
(93,523,o),
(99,491,o),
(102,424,c),
(72,424,o),
(44,426,o),
(14,432,c),
(14,432,o),
(11,432,o),
(11,426,cs),
(12,415,o),
(21,382,o),
(31,378,c),
(55,372,o),
(79,367,o),
(104,365,c),
(105,347,o),
(105,329,o),
(105,308,cs),
(105,151,o),
(91,-19,o),
(80,-105,cs),
(80,-109,o),
(81,-110,o),
(88,-110,cs),
(100,-110,o),
(120,-103,o),
(130,-93,c),
(155,71,o),
(170,220,o),
(176,362,c),
(211,362,o),
(245,366,o),
(278,373,c),
(308,442,l,{
name = hr00;
})
);
}
);
width = 288;
}
);
unicode = 102;
},
{
glyphname = g;
layers = (
{
layerId = master01;
shapes = (
{
closed = 1;
nodes = (
(314,48,o),
(291,-182,o),
(125,-182,cs),
(100,-182,o),
(73,-178,o),
(41,-169,c),
(18,-266,l),
(42,-284,l),
(216,-284,o),
(318,-130,o),
(349,7,cs),
(377,131,o),
(399,268,o),
(399,385,cs),
(399,406,o),
(399,448,o),
(398,468,c),
(373,485,l),
(315,458,ls),
(189,399,o),
(32,280,o),
(32,109,cs),
(32,32,o),
(61,-12,o),
(113,-12,cs),
(181,-12,o),
(252,72,o),
(309,204,c),
(316,201,l,{
name = hr00;
})
);
},
{
closed = 1;
nodes = (
(269,165,o),
(206,98,o),
(164,98,cs),
(130,98,o),
(112,126,o),
(112,166,cs),
(112,238,o),
(168,347,o),
(300,404,c),
(304,376,o),
(309,345,o),
(312,304,c)
);
}
);
width = 447;
}
);
unicode = 103;
},
{
glyphname = h;
layers = (
{
layerId = master01;
shapes = (
{
closed = 1;
nodes = (
(181,375,o),
(188,452,o),
(188,526,cs),
(188,578,o),
(185,628,o),
(179,674,c),
(99,712,l),
(74,696,l),
(92,635,o),
(113,511,o),
(113,379,cs),
(113,265,o),
(101,127,o),
(68,-26,c),
(68,-30,o),
(70,-31,o),
(77,-31,cs),
(86,-31,o),
(109,-24,o),
(118,-14,c),
(138,73,ls),
(181,260,o),
(253,352,o),
(308,352,cs),
(353,352,o),
(367,288,o),
(367,195,cs),
(367,133,o),
(361,58,o),
(353,-19,cs),
(353,-21,o),
(354,-22,o),
(360,-22,cs,{
name = hr01;
}),
(369,-22,o),
(395,-17,o),
(404,-8,c),
(419,120,o),
(441,241,o),
(441,359,cs),
(441,425,o),
(418,472,o),
(361,472,cs),
(302,472,o),
(234,403,o),
(180,300,c),
(171,300,l)
);
}
);
width = 494;
}
);
unicode = 104;
},
{
glyphname = i;
layers = (
{
layerId = master01;
shapes = (
{
closed = 1;
nodes = (
(94,485,l),
(70,470,l),
(80,431,o),
(96,364,o),
(96,255,cs),
(96,186,o),
(89,98,o),
(71,-10,c),
(71,-12,o),
(73,-13,o),
(78,-13,cs),
(87,-13,o),
(108,-7,o),
(116,1,c),
(153,129,o),
(177,254,o),
(177,380,cs),
(177,402,o),
(176,424,o),
(175,446,c,{
name = hr00;
})
);
},
{
closed = 1;
nodes = (
(82,640,o),
(113,668,o),
(172,676,c),
(194,658,o),
(202,633,o),
(202,612,cs),
(202,570,o),
(166,545,o),
(133,545,cs),
(99,545,o),
(82,575,o),
(82,601,cs)
);
}
);
width = 231;
}
);
unicode = 105;
},
{
glyphname = dotlessi;
layers = (
{
layerId = master01;
shapes = (
{
closed = 1;
nodes = (
(94,485,l),
(70,470,l),
(80,431,o),
(96,364,o),
(96,255,cs),
(96,186,o),
(89,99,o),
(71,-9,c),
(71,-10,l),
(71,-12,o),
(73,-13,o),
(78,-13,cs),
(87,-13,o),
(108,-7,o),
(116,1,c),
(153,129,o),
(177,254,o),
(177,380,cs),
(177,402,o),
(176,424,o),
(175,446,c,{
name = hr00;
})
);
}
);
width = 231;
}
);
unicode = 305;
},
{
glyphname = j;
layers = (
{
layerId = master01;
shapes = (
{
closed = 1;
nodes = (
(65,-109,o),
(20,-172,o),
(-48,-172,cs),
(-59,-172,o),
(-70,-171,o),
(-83,-169,c),
(-106,-266,l),
(-81,-284,l),
(41,-248,o),
(109,-130,o),
(140,7,cs),
(168,131,o),
(190,268,o),
(190,385,cs),
(190,406,o),
(190,422,o),
(189,442,c),
(109,485,l),
(84,468,l),
(93,421,o),
(105,340,o),
(105,244,cs),
(105,172,o),
(100,87,o),
(83,-11,cs,{
name = hr00;
})
);
},
{
closed = 1;
nodes = (
(94,640,o),
(125,668,o),
(184,676,c),
(206,658,o),
(214,633,o),
(214,612,cs),
(214,570,o),
(178,545,o),
(145,545,cs),
(111,545,o),
(94,575,o),
(94,601,cs)
);
}
);
width = 231;
}
);
unicode = 106;
},
{
glyphname = dotlessj;
layers = (
{
layerId = master01;
shapes = (
{
closed = 1;
nodes = (
(65,-109,o),
(20,-172,o),
(-48,-172,cs),
(-59,-172,o),
(-70,-171,o),
(-83,-169,c),
(-106,-266,l),
(-81,-284,l),
(41,-248,o),
(109,-130,o),
(140,7,cs),
(168,131,o),
(190,268,o),
(190,385,cs),
(190,406,o),
(190,422,o),
(189,442,c),
(109,485,l),
(84,468,l),
(93,421,o),
(105,340,o),
(105,244,cs),
(105,172,o),
(100,87,o),
(83,-11,cs,{
name = hr00;
})
);
}
);
width = 231;
}
);
unicode = 567;
},
{
glyphname = k;
layers = (
{
layerId = master01;
shapes = (
{
closed = 1;
nodes = (
(168,339,o),
(178,437,o),
(178,529,cs),
(178,581,o),
(174,629,o),
(168,674,c),
(88,712,l),
(63,696,l),
(81,635,o),
(102,511,o),
(102,379,cs),
(102,269,o),
(92,135,o),
(60,-14,c),
(60,-18,o),
(61,-19,o),
(66,-19,cs),
(75,-19,o),
(98,-12,o),
(107,-2,c),
(123,69,ls),
(136,127,o),
(156,180,o),
(182,225,c),
(183,224,ls),
(213,166,o),
(303,37,o),
(381,-30,c),
(384,-31,o),
(388,-31,o),
(393,-31,cs,{
name = hr01;
}),
(408,-31,o),
(426,-27,o),
(426,-19,c,{
name = hr02;
}),
(356,58,o),
(280,203,o),
(244,303,c),
(278,334,o),
(317,353,o),
(356,353,cs),
(367,353,o),
(378,352,o),
(391,349,c),
(417,455,l),
(391,474,l),
(289,441,o),
(213,357,o),
(158,247,c),
(153,247,l)
);
}
);
width = 450;
}
);
unicode = 107;
},
{
glyphname = kgreenlandic;
layers = (
{
layerId = master01;
shapes = (
{
closed = 1;
nodes = (
(94,485,l),
(70,470,l),
(80,431,o),
(96,364,o),
(96,255,cs),
(96,186,o),
(89,99,o),
(71,-10,c),
(71,-12,o),
(73,-13,o),
(78,-13,cs,{
name = hr01;
}),
(86,-13,o),
(106,-7,o),
(116,0,c),
(135,87,o),
(154,161,o),
(193,225,c),
(224,166,o),
(314,37,o),
(392,-30,c),
(395,-31,o),
(399,-31,o),
(404,-31,cs,{
name = hr02;
}),
(419,-31,o),
(437,-27,o),
(437,-19,c),
(367,58,o),
(291,203,o),
(255,303,c),
(289,334,o),
(328,353,o),
(367,353,cs),
(378,353,o),
(389,352,o),
(402,349,c),
(428,455,l),
(402,474,l),
(332,452,o),
(244,396,o),
(170,263,c),
(175,302,o),
(177,341,o),
(177,380,cs),
(177,402,o),
(176,424,o),
(175,446,c)
);
}
);
width = 429;
}
);
unicode = 312;
},
{
glyphname = l;
layers = (
{
layerId = master01;
shapes = (
{
closed = 1;
nodes = (
(68,696,l),
(86,635,o),
(107,511,o),
(107,379,cs),
(107,265,o),
(96,127,o),
(60,-26,c),
(60,-30,o),
(61,-31,o),
(68,-31,cs),
(80,-31,o),
(105,-24,o),
(114,-14,c),
(160,155,o),
(204,461,o),
(173,674,c),
(93,712,l,{
name = hr00;
})
);
}
);
width = 242;
}
);
unicode = 108;
},
{
glyphname = lslash;
layers = (
{
layerId = master01;
shapes = (
{
closed = 1;
nodes = (
(68,696,l),
(86,635,o),
(107,511,o),
(107,379,cs),
(107,353,l),
(76,339,o),
(38,325,o),
(-10,310,c),
(-10,295,o),
(1,278,o),
(11,274,c),
(46,281,o),
(77,287,o),
(105,295,c),
(100,199,o),
(87,91,o),
(60,-26,c),
(60,-30,o),
(61,-31,o),
(68,-31,cs),
(80,-31,o),
(105,-24,o),
(114,-14,c),
(137,71,o),
(160,192,o),
(173,317,c),
(204,330,o),
(235,345,o),
(271,366,c),
(271,439,l),
(253,449,l),
(235,434,o),
(216,414,o),
(179,391,c),
(185,490,o),
(185,589,o),
(173,674,c),
(93,712,l,{
name = hr00;
})
);
}
);
width = 242;
}
);
unicode = 322;
},
{
glyphname = m;
layers = (
{
layerId = master01;
shapes = (
{
closed = 1;
nodes = (
(431,317,o),
(432,338,o),
(432,359,cs),
(432,425,o),
(408,472,o),
(352,472,cs),
(295,472,o),
(228,401,o),
(177,293,c),
(171,294,l),
(171,344,o),
(170,395,o),
(168,446,c),
(87,485,l,{
name = hr01;
}),
(63,470,l),
(80,406,o),
(126,271,o),
(72,-9,cs),
(72,-12,o),
(73,-13,o),
(79,-13,cs),
(88,-13,o),
(109,-7,o),
(117,1,c),
(158,145,ls),
(197,283,o),
(256,352,o),
(302,352,cs,{
name = hr02;
}),
(345,352,o),
(358,288,o),
(358,195,cs),
(358,133,o),
(352,58,o),
(345,-19,cs),
(345,-21,o),
(345,-22,o),
(350,-22,cs),
(360,-22,o),
(386,-17,o),
(394,-8,c),
(404,73,ls),
(427,263,o),
(512,352,o),
(565,352,cs),
(608,352,o),
(621,288,o),
(621,195,cs),
(621,133,o),
(615,58,o),
(608,-19,cs),
(608,-21,o),
(608,-22,o),
(614,-22,cs),
(623,-22,o),
(649,-17,o),
(657,-8,c),
(678,120,o),
(695,241,o),
(695,359,cs),
(695,425,o),
(671,472,o),
(615,472,cs),
(558,472,o),
(487,401,o),
(436,295,c),
(430,296,l)
);
}
);
width = 748;
}
);
unicode = 109;
},
{
glyphname = n;
layers = (
{
layerId = master01;
shapes = (
{
closed = 1;
nodes = (
(172,340,o),
(171,393,o),
(168,446,c),
(87,485,l),
(63,470,l),
(80,406,o),
(126,271,o),
(72,-9,cs),
(72,-12,o),
(73,-13,o),
(79,-13,cs),
(88,-13,o),
(109,-7,o),
(117,1,c),
(140,73,ls),
(199,256,o),
(256,352,o),
(312,352,cs,{
name = hr01;
}),
(356,352,o),
(371,288,o),
(371,195,cs),
(371,133,o),
(365,58,o),
(356,-19,cs),
(356,-21,o),
(358,-22,o),
(363,-22,cs),
(373,-22,o),
(399,-17,o),
(407,-8,c),
(427,120,o),
(445,241,o),
(445,359,cs),
(445,425,o),
(421,472,o),
(365,472,cs),
(304,472,o),
(233,398,o),
(178,287,c),
(171,288,l)
);
}
);
width = 498;
}
);
unicode = 110;
},
{
glyphname = eng;
layers = (
{
layerId = master01;
shapes = (
{
closed = 1;
nodes = (
(445,425,o),
(421,472,o),
(365,472,cs),
(303,472,o),
(230,400,o),
(175,292,c),
(175,304,o),
(176,317,o),
(176,329,cs),
(176,368,o),
(173,406,o),
(168,446,c),
(87,485,l,{
name = hr01;
}),
(63,470,l),
(76,428,o),
(97,356,o),
(97,234,cs),
(97,168,o),
(91,88,o),
(72,-9,cs),
(72,-12,o),
(73,-13,o),
(79,-13,cs),
(126,-13,o),
(131,38,o),
(140,73,cs),
(188,259,o),
(256,352,o),
(312,352,cs,{
name = hr02;
}),
(356,352,o),
(371,288,o),
(371,195,cs),
(371,137,o),
(365,68,o),
(349,-11,cs),
(330,-109,o),
(286,-172,o),
(218,-172,cs),
(207,-172,o),
(196,-171,o),
(183,-169,c),
(160,-266,l),
(185,-284,l),
(307,-248,o),
(377,-131,o),
(406,7,cs),
(430,122,o),
(445,250,o),
(445,359,cs)
);
}
);
width = 498;
}
);
unicode = 331;
},
{
glyphname = o;
layers = (
{
layerId = master01;
shapes = (
{
closed = 1;
nodes = (
(409,485,l),
(131,464,o),
(42,308,o),
(42,181,cs),
(42,42,o),
(122,-33,o),
(218,-33,cs),
(361,-33,o),
(428,107,o),
(428,231,cs),
(428,315,o),
(405,362,o),
(372,402,c),
(420,457,l,{
name = hr00;
})
);
},
{
closed = 1;
nodes = (
(168,58,o),
(133,119,o),
(133,202,cs),
(133,310,o),
(217,388,o),
(316,405,c),
(362,350,o),
(371,282,o),
(371,218,cs),
(371,152,o),
(317,58,o),
(229,58,cs)
);
}
);
width = 477;
}
);
unicode = 111;
},
{
glyphname = oslash;
layers = (
{
layerId = master01;
shapes = (
{
closed = 1;
nodes = (
(178,-28,l),
(191,-31,o),
(204,-33,o),
(218,-33,cs),
(361,-33,o),
(428,107,o),
(428,231,cs),
(428,306,o),
(410,351,o),
(382,389,c),
(419,456,l),
(420,457,ls),
(448,507,o),
(477,556,o),
(509,607,c),
(477,633,l),
(394,611,l),
(332,475,l),
(114,433,o),
(42,295,o),
(42,181,cs),
(42,91,o),
(75,28,o),
(124,-5,c),
(49,-186,l),
(57,-199,o),
(75,-208,o),
(85,-208,cs),
(92,-208,o),
(96,-205,o),
(97,-203,c,{
name = hr00;
})
);
},
{
closed = 1;
nodes = (
(218,58,l),
(262,151,o),
(306,243,o),
(354,336,c),
(368,298,o),
(371,257,o),
(371,218,cs),
(371,152,o),
(317,58,o),
(229,58,c)
);
},
{
closed = 1;
nodes = (
(133,304,o),
(208,379,o),
(299,401,c),
(253,296,o),
(208,192,o),
(164,89,c),
(144,115,o),
(133,155,o),
(133,202,cs)
);
}
);
width = 477;
}
);
unicode = 248;
},
{
glyphname = p;
layers = (
{
layerId = master01;
shapes = (
{
closed = 1;
nodes = (
(167,338,o),
(164,394,o),
(157,445,c),
(77,485,l),
(52,468,l),
(70,405,o),
(91,274,o),
(91,135,cs),
(91,21,o),
(79,-117,o),
(46,-270,c),
(46,-274,o),
(47,-275,o),
(54,-275,cs),
(64,-275,o),
(86,-268,o),
(96,-258,c),
(111,-195,o),
(128,-112,o),
(141,-21,c),
(379,60,o),
(465,250,o),
(465,378,cs),
(465,444,o),
(439,491,o),
(379,491,cs),
(311,491,o),
(229,404,o),
(174,278,c),
(166,280,l,{
name = hr00;
})
);
},
{
closed = 1;
nodes = (
(179,281,o),
(273,371,o),
(321,371,cs),
(360,371,o),
(371,340,o),
(371,296,cs),
(371,217,o),
(308,91,o),
(149,35,cs)
);
}
);
width = 496;
}
);
unicode = 112;
},
{
glyphname = thorn;
layers = (
{
layerId = master01;
shapes = (
{
closed = 1;
nodes = (
(60,-274,o),
(61,-275,o),
(68,-275,cs),
(78,-275,o),
(100,-268,o),
(110,-258,c),
(123,-192,o),
(137,-110,o),
(149,-20,c),
(385,62,o),
(470,251,o),
(470,378,cs),
(470,444,o),
(444,491,o),
(384,491,cs),
(316,491,o),
(233,402,o),
(178,274,c),
(182,338,o),
(184,403,o),
(184,465,cs),
(184,539,o),
(181,610,o),
(173,674,c),
(93,712,l),
(68,696,l),
(87,615,o),
(102,443,o),
(102,267,cs),
(102,115,o),
(99,-65,o),
(60,-270,c,{
name = hr00;
})
);
},
{
closed = 1;
nodes = (
(365,371,o),
(376,340,o),
(376,296,cs),
(376,217,o),
(314,92,o),
(156,36,c),
(162,99,l),
(205,280,o),
(278,371,o),
(326,371,cs)
);
}
);
width = 501;
}
);
unicode = 254;
},
{
glyphname = q;
layers = (
{
layerId = master01;
shapes = (
{
closed = 1;
nodes = (
(304,101,o),
(291,-4,o),
(291,-96,cs),
(291,-146,o),
(294,-195,o),
(299,-236,c),
(379,-280,l),
(404,-264,l),
(380,-142,o),
(369,-30,o),
(369,79,cs),
(369,215,o),
(389,343,o),
(421,479,c),
(396,493,l),
(353,465,l),
(179,412,o),
(24,271,o),
(24,91,cs),
(24,25,o),
(50,-22,o),
(110,-22,cs),
(169,-22,o),
(255,59,o),
(314,196,c),
(320,196,l,{
name = hr00;
})
);
},
{
closed = 1;
nodes = (
(306,212,o),
(229,98,o),
(168,98,cs),
(132,98,o),
(118,129,o),
(118,172,cs),
(118,253,o),
(175,348,o),
(339,404,c)
);
}
);
width = 451;
}
);
unicode = 113;
},
{
glyphname = r;
layers = (
{
layerId = master01;
shapes = (
{
closed = 1;
nodes = (
(175,315,ls),
(175,359,o),
(172,401,o),
(168,442,c),
(87,485,l),
(63,468,l),
(74,427,o),
(94,348,o),
(94,222,cs),
(94,155,o),
(88,72,o),
(68,-26,cs),
(68,-28,o),
(70,-30,o),
(76,-30,cs),
(85,-30,o),
(105,-24,o),
(113,-15,c),
(147,90,ls),
(202,260,o),
(219,353,o),
(301,353,cs),
(309,353,o),
(319,352,o),
(329,349,c),
(353,464,l),
(332,483,l),
(267,458,o),
(219,398,o),
(183,296,c),
(175,296,l,{
name = hr00;
})
);
}
);
width = 329;
}
);
unicode = 114;
},
{
glyphname = s;
layers = (
{
layerId = master01;
shapes = (
{
closed = 1;
nodes = (
(323,491,l),
(85,459,o),
(54,375,o),
(54,334,cs),
(54,227,o),
(217,173,o),
(217,92,cs),
(217,44,o),
(169,17,o),
(104,17,cs),
(55,17,o),
(25,28,o),
(18,28,cs),
(15,28,o),
(15,26,o),
(15,24,cs),
(15,13,o),
(26,-12,o),
(33,-17,c),
(74,-30,o),
(96,-31,o),
(126,-31,cs),
(299,-31,o),
(325,54,o),
(325,104,cs),
(325,215,o),
(148,278,o),
(148,356,cs),
(148,398,o),
(183,413,o),
(222,413,cs),
(253,413,o),
(287,400,o),
(313,383,c),
(345,472,l,{
name = hr00;
})
);
}
);
width = 368;
}
);
unicode = 115;
},
{
glyphname = germandbls;
layers = (
{
layerId = master01;
shapes = (
{
closed = 1;
nodes = (
(268,282,o),
(295,290,o),
(318,290,cs),
(380,290,o),
(420,238,o),
(420,167,cs),
(420,73,o),
(360,16,o),
(285,16,cs),
(253,16,o),
(219,27,o),
(184,50,c),
(175,50,o),
(165,17,o),
(165,4,c),
(216,-26,o),
(267,-39,o),
(313,-39,cs),
(424,-39,o),
(529,36,o),
(529,168,cs),
(529,276,o),
(458,350,o),
(359,350,cs),
(343,350,o),
(326,348,o),
(309,344,c),
(342,379,o),
(406,454,o),
(439,554,c),
(403,624,o),
(362,680,o),
(314,712,c),
(126,661,o),
(99,586,o),
(91,543,c),
(93,523,o),
(99,491,o),
(102,424,c),
(72,424,o),
(44,426,o),
(14,432,c),
(14,432,o),
(11,432,o),
(11,426,cs),
(12,415,o),
(21,382,o),
(31,378,c),
(55,371,o),
(79,367,o),
(104,364,c),
(105,347,o),
(105,328,o),
(105,308,cs),
(105,151,o),
(91,-19,o),
(80,-105,cs),
(80,-109,o),
(81,-110,o),
(88,-110,cs),
(100,-110,o),
(120,-103,o),
(130,-93,c),
(163,124,o),
(179,316,o),
(179,497,cs),
(179,566,o),
(187,640,o),
(275,640,c),
(305,615,o),
(354,552,o),
(354,527,cs),
(354,467,o),
(219,304,o),
(219,304,c),
(240,266,l,{
name = hr00;
})
);
}
);
width = 532;
}
);
unicode = 223;
},
{
glyphname = t;
layers = (
{
layerId = master01;
shapes = (
{
closed = 1;
nodes = (
(317,473,l),
(288,462,o),
(251,449,o),
(202,443,c),
(208,560,l),
(127,603,l),
(103,586,l),
(108,549,o),
(111,494,o),
(114,438,c),
(83,438,o),
(47,440,o),
(18,446,c),
(18,446,o),
(14,446,o),
(14,440,cs),
(15,430,o),
(25,396,o),
(34,392,c),
(59,385,o),
(89,381,o),
(117,378,c),
(119,330,o),
(120,285,o),
(120,257,cs),
(120,169,o),
(114,84,o),
(98,-19,cs),
(98,-21,o),
(99,-22,o),
(105,-22,cs),
(114,-22,o),
(139,-17,o),
(147,-8,c),
(171,84,o),
(187,237,o),
(197,376,c),
(231,377,o),
(266,381,o),
(297,387,c),
(327,457,l,{
name = hr00;
})
);
}
);
width = 313;
}
);
unicode = 116;
},
{
glyphname = u;
layers = (
{
layerId = master01;
shapes = (
{
closed = 1;
nodes = (
(159,471,o),
(158,472,o),
(152,472,cs),
(143,472,o),
(117,466,o),
(109,458,c),
(93,329,o),
(71,209,o),
(71,91,cs),
(71,25,o),
(94,-22,o),
(151,-22,cs),
(220,-22,o),
(306,71,o),
(361,203,c),
(372,127,o),
(389,41,o),
(412,-14,c),
(420,-22,o),
(440,-28,o),
(450,-28,cs,{
name = hr01;
}),
(455,-28,o),
(457,-27,o),
(457,-25,cs),
(445,20,o),
(431,184,o),
(431,255,cs),
(431,330,o),
(444,420,o),
(464,479,c),
(439,493,l),
(359,458,l),
(353,424,o),
(350,398,o),
(350,333,cs),
(350,322,o),
(350,309,o),
(351,293,c),
(309,163,o),
(251,98,o),
(204,98,cs,{
name = hr02;
}),
(159,98,o),
(145,162,o),
(145,255,cs),
(145,316,o),
(151,392,o),
(159,468,cs)
);
}
);
width = 511;
}
);
unicode = 117;
},
{
glyphname = v;
layers = (
{
layerId = master01;
shapes = (
{
closed = 1;
nodes = (
(58,468,l),
(54,447,o),
(53,424,o),
(53,400,cs),
(53,261,o),
(101,84,o),
(143,-14,c),
(152,-24,o),
(171,-28,o),
(181,-28,c),
(267,7,l),
(287,165,o),
(356,343,o),
(426,468,c),
(426,470,o),
(427,472,o),
(427,474,cs),
(427,476,o),
(426,478,o),
(424,478,cs),
(414,478,o),
(392,472,o),
(381,464,c),
(305,363,o),
(211,182,o),
(171,42,c),
(157,117,o),
(145,204,o),
(145,293,cs),
(145,345,o),
(151,395,o),
(163,445,c),
(83,485,l,{
name = hr00;
})
);
}
);
width = 406;
}
);
unicode = 118;
},
{
glyphname = w;
layers = (
{
layerId = master01;
shapes = (
{
closed = 1;
nodes = (
(58,468,l),
(54,447,o),
(53,424,o),
(53,400,cs),
(53,261,o),
(101,84,o),
(143,-14,c),
(152,-24,o),
(171,-28,o),
(181,-28,c),
(248,7,l),
(260,103,o),
(291,209,o),
(329,304,c),
(344,187,o),
(381,62,o),
(413,-14,c),
(422,-24,o),
(441,-28,o),
(451,-28,c),
(518,7,l),
(539,165,o),
(608,343,o),
(678,468,c),
(678,470,o),
(680,472,o),
(680,474,cs),
(680,476,o),
(678,478,o),
(676,478,cs),
(667,478,o),
(644,472,o),
(634,464,c),
(565,364,o),
(479,185,o),
(441,45,c),
(428,119,o),
(415,205,o),
(415,293,cs),
(415,345,o),
(421,395,o),
(433,445,c),
(353,485,l),
(328,468,l),
(324,447,o),
(323,424,o),
(323,400,c),
(263,298,o),
(201,158,o),
(171,44,c),
(157,119,o),
(145,205,o),
(145,293,cs),
(145,345,o),
(151,395,o),
(163,445,c),
(83,485,l,{
name = hr00;
})
);
}
);
width = 658;
}
);
unicode = 119;
},
{
glyphname = x;
layers = (
{
layerId = master01;
shapes = (
{
closed = 1;
nodes = (
(100,39,o),
(142,98,o),
(186,158,c),
(234,91,o),
(288,31,o),
(335,-14,cs),
(341,-19,o),
(352,-24,o),
(379,-24,cs),
(383,-24,o),
(389,-21,o),
(389,-17,c),
(331,58,o),
(276,140,o),
(234,221,c),
(294,301,o),
(361,382,o),
(433,464,c),
(411,480,l),
(330,466,l),
(286,411,o),
(244,351,o),
(202,289,c),
(179,342,o),
(163,395,o),
(156,445,c),
(76,485,l),
(51,468,l),
(61,382,o),
(100,293,o),
(151,212,c),
(105,141,o),
(61,68,o),
(18,-6,c),
(26,-14,o),
(42,-20,o),
(52,-20,cs,{
name = hr01;
}),
(58,-20,o),
(61,-19,o),
(63,-17,cs)
);
}
);
width = 427;
}
);
unicode = 120;
},
{
glyphname = y;
layers = (
{
layerId = master01;
shapes = (
{
closed = 1;
nodes = (
(177,-113,o),
(135,-172,o),
(66,-172,cs),
(55,-172,o),
(45,-171,o),
(32,-169,c),
(8,-266,l),
(33,-284,l),
(155,-248,o),
(223,-132,o),
(255,5,cs),
(294,170,o),
(349,341,o),
(426,468,c),
(426,470,o),
(427,472,o),
(427,474,cs),
(427,476,o),
(426,478,o),
(424,478,cs),
(414,478,o),
(392,472,o),
(381,464,c),
(306,363,o),
(211,183,o),
(171,42,c),
(157,118,o),
(145,204,o),
(145,293,cs),
(145,345,o),
(151,395,o),
(163,445,c),
(83,485,l),
(58,468,l),
(54,447,o),
(53,424,o),
(53,400,cs),
(53,261,o),
(101,72,o),
(149,-28,c),
(155,-31,o),
(160,-32,o),
(166,-32,cs),
(179,-32,o),
(191,-27,o),
(205,-18,c,{
name = hr00;
})
);
}
);
width = 406;
}
);
unicode = 121;
},
{
glyphname = z;
layers = (
{
layerId = master01;
shapes = (
{
closed = 1;
nodes = (
(315,56,o),
(224,65,o),
(127,74,c),
(213,153,o),
(351,291,o),
(382,395,c),
(348,465,l),
(348,465,o),
(312,444,o),
(244,444,cs),
(150,444,o),
(59,485,o),
(59,485,c),
(42,459,l),
(76,371,l),
(105,363,o),
(143,359,o),
(179,359,cs),
(214,359,o),
(248,362,o),
(274,373,c),
(214,227,o),
(24,13,o),
(24,13,c),
(40,-12,l),
(100,-2,o),
(157,2,o),
(218,2,cs),
(274,2,o),
(328,-2,o),
(393,-17,c),
(394,-17,o),
(395,-15,o),
(395,-9,cs),
(395,0,o),
(391,25,o),
(385,33,c,{
name = hr00;
})
);
}
);
width = 407;
}
);
unicode = 122;
},
{
glyphname = f_f;
layers = (
{
layerId = master01;
shapes = (
{
closed = 1;
nodes = (
(98,464,o),
(105,386,o),
(105,308,cs),
(105,151,o),
(91,-19,o),
(80,-105,cs),
(80,-109,o),
(81,-110,o),
(88,-110,cs),
(100,-110,o),
(120,-103,o),
(130,-93,c),
(161,111,o),
(179,303,o),
(179,497,cs),
(179,607,o),
(220,648,o),
(277,648,cs),
(324,648,o),
(381,619,o),
(434,577,c),
(458,595,l),
(435,681,l),
(387,694,o),
(362,698,o),
(313,698,cs),
(220,698,o),
(133,661,o),
(91,543,c)
);
},
{
closed = 1;
nodes = (
(393,151,o),
(379,-19,o),
(368,-105,cs),
(368,-109,o),
(369,-110,o),
(376,-110,cs),
(388,-110,o),
(408,-103,o),
(418,-93,c),
(448,111,o),
(467,304,o),
(467,497,cs),
(467,566,o),
(478,627,o),
(531,627,cs,{
name = hr01;
}),
(558,627,o),
(573,621,o),
(603,608,c),
(626,694,l),
(602,712,l,{
name = hr02;
}),
(436,671,o),
(387,586,o),
(379,543,c),
(386,464,o),
(393,386,o),
(393,308,cs)
);
},
{
closed = 1;
nodes = (
(567,450,o),
(495,414,o),
(257,414,cs),
(112,414,o),
(12,431,o),
(15,431,cs),
(12,431,o),
(11,429,o),
(11,425,cs),
(11,416,o),
(17,395,o),
(29,378,c),
(90,364,o),
(185,357,o),
(292,357,cs),
(380,357,o),
(475,361,o),
(565,371,c),
(565,371,o),
(596,443,o),
(596,443,c),
(587,459,l)
);
}
);
width = 576;
}
);
unicode = 64256;
},
{
glyphname = f_f_i;
layers = (
{
layerId = master01;
shapes = (
{
closed = 1;
nodes = (
(98,464,o),
(105,386,o),
(105,308,cs),
(105,151,o),
(91,-19,o),
(80,-105,cs),
(80,-109,o),
(81,-110,o),
(88,-110,cs),
(100,-110,o),
(120,-103,o),
(130,-93,c),
(161,111,o),
(179,303,o),
(179,497,cs),
(179,607,o),
(220,648,o),
(277,648,cs),
(324,648,o),
(381,619,o),
(434,577,c),
(458,595,l),
(435,681,l),
(387,694,o),
(362,698,o),
(313,698,cs),
(220,698,o),
(133,661,o),
(91,543,c,{
name = hr00;
})
);
},
{
closed = 1;
nodes = (
(507,363,o),
(601,373,o),
(642,395,c),
(648,358,o),
(652,312,o),
(652,254,cs),
(652,185,o),
(646,98,o),
(628,-9,cs),
(628,-12,o),
(629,-13,o),
(635,-13,cs),
(643,-13,o),
(664,-7,o),
(672,1,c),
(709,129,o),
(733,254,o),
(733,380,cs),
(733,402,o),
(732,424,o),
(731,446,c),
(650,485,l),
(613,458,o),
(537,437,o),
(466,428,c),
(466,451,o),
(467,474,o),
(467,497,cs),
(467,607,o),
(508,648,o),
(565,648,cs),
(612,648,o),
(669,619,o),
(722,577,c),
(746,595,l),
(723,681,l),
(675,694,o),
(650,698,o),
(601,698,cs),
(508,698,o),
(421,661,o),
(379,543,c),
(389,418,l),
(352,415,o),
(308,414,o),
(257,414,cs),
(112,414,o),
(12,431,o),
(15,431,cs),
(12,431,o),
(11,429,o),
(11,425,cs),
(11,416,o),
(17,395,o),
(29,378,c),
(90,364,o),
(185,357,o),
(292,357,cs),
(324,357,o),
(358,357,o),
(392,358,c),
(392,341,o),
(393,325,o),
(393,308,cs),
(393,151,o),
(379,-19,o),
(368,-105,cs),
(368,-109,o),
(369,-110,o),
(376,-110,cs),
(388,-110,o),
(408,-103,o),
(418,-93,c),
(441,63,o),
(457,213,o),
(464,362,c)
);
}
);
width = 787;
}
);
unicode = 64259;
},
{
glyphname = f_f_l;
layers = (
{
layerId = master01;
shapes = (
{
closed = 1;
nodes = (
(98,464,o),
(105,386,o),
(105,308,cs),
(105,151,o),
(91,-19,o),
(80,-105,cs),
(80,-109,o),
(81,-110,o),
(88,-110,cs),
(100,-110,o),
(120,-103,o),
(130,-93,c),
(161,111,o),
(179,303,o),
(179,497,cs),
(179,607,o),
(220,648,o),
(277,648,cs),
(324,648,o),
(381,619,o),
(434,577,c),
(458,595,l),
(435,681,l),
(387,694,o),
(362,698,o),
(313,698,cs),
(220,698,o),
(133,661,o),
(91,543,c,{
name = hr00;
})
);
},
{
closed = 1;
nodes = (
(352,415,o),
(308,414,o),
(257,414,cs),
(112,414,o),
(12,431,o),
(15,431,cs),
(12,431,o),
(11,429,o),
(11,425,cs),
(11,416,o),
(17,395,o),
(29,378,c),
(90,364,o),
(185,357,o),
(292,357,cs),
(324,357,o),
(358,357,o),
(392,358,c),
(392,341,o),
(393,325,o),
(393,308,cs),
(393,151,o),
(379,-19,o),
(368,-105,cs),
(368,-109,o),
(369,-110,o),
(376,-110,cs),
(388,-110,o),
(408,-103,o),
(418,-93,c),
(441,63,o),
(457,213,o),
(464,362,c),
(499,362,o),
(533,366,o),
(566,373,c),
(596,442,l),
(587,459,l),
(555,446,o),
(518,433,o),
(466,427,c),
(466,451,o),
(467,474,o),
(467,497,cs),
(467,609,o),
(511,649,o),
(565,649,cs),
(596,649,o),
(630,636,o),
(662,616,c),
(673,552,o),
(683,467,o),
(683,379,cs),
(683,265,o),
(672,127,o),
(636,-26,c),
(636,-30,o),
(637,-31,o),
(644,-31,cs),
(656,-31,o),
(681,-24,o),
(690,-14,c),
(725,115,o),
(759,326,o),
(759,513,cs),
(759,569,o),
(756,624,o),
(749,674,c),
(701,687,o),
(650,698,o),
(601,698,cs),
(508,698,o),
(421,661,o),
(379,543,c),
(389,418,l)
);
}
);
width = 787;
}
);
unicode = 64260;
},
{
glyphname = fi;
layers = (
{
layerId = master01;
shapes = (
{
closed = 1;
nodes = (
(435,681,l),
(387,694,o),
(362,698,o),
(313,698,cs),
(220,698,o),
(133,661,o),
(91,543,c),
(93,523,o),
(99,491,o),
(102,424,c),
(72,424,o),
(44,426,o),
(14,432,c),
(14,432,o),
(11,432,o),
(11,426,cs),
(12,415,o),
(21,382,o),
(31,378,c),
(55,372,o),
(79,367,o),
(104,365,c),
(105,347,o),
(105,329,o),
(105,308,cs),
(105,151,o),
(91,-19,o),
(80,-105,cs),
(80,-109,o),
(81,-110,o),
(88,-110,cs),
(100,-110,o),
(120,-103,o),
(130,-93,c),
(155,71,o),
(170,220,o),
(176,362,c),
(219,363,o),
(313,373,o),
(354,395,c),
(360,358,o),
(364,312,o),
(364,254,cs),
(364,185,o),
(358,98,o),
(340,-9,cs),
(340,-12,o),
(341,-13,o),
(347,-13,cs),
(355,-13,o),
(376,-7,o),
(384,1,c),
(421,129,o),
(445,254,o),
(445,380,cs),
(445,402,o),
(444,424,o),
(443,446,c),
(362,485,l),
(325,458,o),
(249,437,o),
(178,428,c),
(178,451,o),
(179,474,o),
(179,497,cs),
(179,607,o),
(220,648,o),
(277,648,cs),
(324,648,o),
(381,619,o),
(434,577,c),
(458,595,l,{
name = hr00;
})
);
}
);
width = 499;
}
);
unicode = 64257;
},
{
glyphname = fl;
layers = (
{
layerId = master01;
shapes = (
{
closed = 1;
nodes = (
(80,-109,o),
(81,-110,o),
(88,-110,cs),
(100,-110,o),
(120,-103,o),
(130,-93,c),
(155,71,o),
(170,220,o),
(176,362,c),
(211,362,o),
(245,366,o),
(278,373,c),
(308,442,l),
(299,459,l),
(267,446,o),
(230,433,o),
(178,427,c),
(178,451,o),
(179,474,o),
(179,497,cs),
(179,609,o),
(223,649,o),
(277,649,cs),
(308,649,o),
(342,636,o),
(374,616,c),
(385,552,o),
(395,467,o),
(395,379,cs),
(395,265,o),
(384,127,o),
(348,-26,c),
(348,-30,o),
(349,-31,o),
(356,-31,cs),
(368,-31,o),
(393,-24,o),
(402,-14,c),
(437,115,o),
(471,326,o),
(471,513,cs),
(471,569,o),
(468,624,o),
(461,674,c),
(413,687,o),
(362,698,o),
(313,698,cs),
(220,698,o),
(133,661,o),
(91,543,c),
(93,523,o),
(99,491,o),
(102,424,c),
(72,424,o),
(44,426,o),
(14,432,c),
(14,432,o),
(11,432,o),
(11,426,cs),
(12,415,o),
(21,382,o),
(31,378,c),
(55,372,o),
(79,367,o),
(104,365,c),
(105,347,o),
(105,329,o),
(105,308,cs),
(105,151,o),
(91,-19,o),
(80,-105,cs,{
name = hr00;
})
);
}
);
width = 529;
}
);
unicode = 64258;
},
{
glyphname = ordfeminine;
layers = (
{
layerId = master01;
shapes = (
{
closed = 1;
nodes = (
(113,684,o),
(18,609,o),
(18,500,cs),
(18,458,o),
(35,427,o),
(76,427,cs),
(113,427,o),
(162,475,o),
(195,538,c),
(202,492,o),
(212,423,o),
(250,423,cs,{
name = hr01;
}),
(259,423,o),
(262,428,o),
(262,434,c),
(255,460,o),
(246,555,o),
(246,596,cs),
(246,637,o),
(255,691,o),
(268,729,c),
(246,743,l),
(194,720,ls)
);
},
{
closed = 1;
nodes = (
(184,650,o),
(185,613,o),
(187,598,c),
(172,546,o),
(131,504,o),
(105,504,cs,{
name = hr02;
}),
(92,504,o),
(83,514,o),
(83,538,cs),
(83,577,o),
(120,641,o),
(184,672,c)
);
}
);
width = 302;
}
);
unicode = 170;
},
{
glyphname = ordmasculine;
layers = (
{
layerId = master01;
shapes = (
{
closed = 1;
nodes = (
(255,737,l),
(84,723,o),
(28,630,o),
(28,553,cs),
(28,466,o),
(79,421,o),
(139,421,cs),
(228,421,o),
(270,506,o),
(270,582,cs),
(270,621,o),
(257,658,o),
(238,681,c),
(266,711,l,{
name = hr00;
})
);
},
{
closed = 1;
nodes = (
(216,646,o),
(221,609,o),
(221,574,cs),
(221,511,o),
(186,474,o),
(153,474,cs),
(114,474,o),
(94,510,o),
(94,552,cs),
(94,604,o),
(125,664,o),
(194,675,c)
);
}
);
width = 306;
}
);
unicode = 186;
},
{
glyphname = pi;
layers = (
{
layerId = master01;
shapes = (
{
closed = 1;
nodes = (
(517,481,l),
(459,461,o),
(373,440,o),
(251,440,cs),
(180,440,o),
(116,443,o),
(47,449,c),
(47,449,o),
(40,449,o),
(40,443,cs),
(41,429,o),
(60,391,o),
(77,387,c),
(95,384,o),
(114,381,o),
(132,379,c),
(137,346,o),
(140,305,o),
(140,255,cs),
(140,186,o),
(133,98,o),
(115,-10,cs),
(115,-12,o),
(117,-13,o),
(122,-13,cs),
(131,-13,o),
(152,-7,o),
(160,1,c),
(196,126,o),
(220,248,o),
(221,371,c),
(255,369,o),
(290,368,o),
(324,368,cs),
(336,368,o),
(350,368,o),
(363,369,c),
(367,337,o),
(370,299,o),
(370,255,cs),
(370,186,o),
(363,98,o),
(345,-10,cs),
(345,-12,o),
(347,-13,o),
(352,-13,cs),
(361,-13,o),
(382,-7,o),
(390,1,c),
(426,127,o),
(450,251,o),
(451,376,c),
(466,377,o),
(480,379,o),
(493,381,c),
(528,461,l,{
name = hr00;
})
);
}
);
width = 568;
}
);
unicode = 960;
},
{
glyphname = zero;
layers = (
{
layerId = master01;
shapes = (
{
closed = 1;
nodes = (
(469,573,o),
(384,677,o),
(284,677,cs),
(145,677,o),
(31,517,o),
(31,301,cs),
(31,73,o),
(116,-31,o),
(214,-31,cs),
(353,-31,o),
(469,129,o),
(469,345,cs,{
name = hr00;
})
);
},
{
closed = 1;
nodes = (
(92,462,o),
(171,579,o),
(275,579,cs),
(347,579,o),
(410,500,o),
(410,330,cs),
(410,177,o),
(330,65,o),
(226,65,cs),
(153,65,o),
(92,139,o),
(92,304,cs)
);
}
);
width = 500;
}
);
unicode = 48;
},
{
glyphname = one;
layers = (
{
layerId = master01;
shapes = (
{
closed = 1;
nodes = (
(305,0,o),
(304,42,o),
(304,92,cs),
(304,284,o),
(318,510,o),
(374,636,c),
(291,677,l),
(264,661,l),
(259,640,o),
(255,620,o),
(252,600,c),
(202,535,o),
(127,459,o),
(45,411,c),
(46,392,o),
(79,369,o),
(90,369,c),
(139,390,o),
(189,422,o),
(235,460,c),
(232,424,o),
(231,388,o),
(231,351,cs),
(231,231,o),
(243,109,o),
(262,-19,c),
(269,-28,o),
(290,-34,o),
(300,-34,cs),
(307,-34,o),
(308,-33,o),
(308,-31,cs,{
name = hr00;
})
);
}
);
width = 500;
}
);
unicode = 49;
},
{
glyphname = two;
layers = (
{
layerId = master01;
shapes = (
{
closed = 1;
nodes = (
(411,554,o),
(373,645,o),
(186,645,cs),
(155,645,o),
(120,642,o),
(80,637,c),
(43,565,l),
(55,537,l),
(92,556,o),
(151,575,o),
(203,575,cs),
(259,575,o),
(306,553,o),
(306,483,cs),
(306,368,o),
(158,187,o),
(7,13,cs),
(0,6,l),
(19,-24,l),
(91,-13,o),
(158,-8,o),
(230,-8,cs),
(297,-8,o),
(381,-13,o),
(459,-30,c),
(460,-30,o),
(461,-28,o),
(461,-21,cs),
(461,-10,o),
(456,20,o),
(449,29,c),
(369,56,o),
(250,67,o),
(135,77,c),
(266,212,o),
(411,380,o),
(411,486,cs,{
name = hr00;
})
);
}
);
width = 500;
}
);
unicode = 50;
},
{
glyphname = three;
layers = (
{
layerId = master01;
shapes = (
{
closed = 1;
nodes = (
(299,414,o),
(372,481,o),
(431,566,c),
(431,581,o),
(427,597,o),
(418,606,c),
(353,635,o),
(276,645,o),
(199,645,cs),
(161,645,o),
(122,642,o),
(87,637,c),
(50,565,l),
(62,537,l),
(121,565,o),
(211,577,o),
(294,577,cs),
(307,577,o),
(320,577,o),
(332,576,c),
(251,454,o),
(175,380,o),
(85,304,c),
(106,266,l),
(140,282,o),
(172,290,o),
(200,290,cs),
(275,290,o),
(323,238,o),
(323,167,cs),
(323,73,o),
(254,16,o),
(167,16,cs),
(130,16,o),
(90,27,o),
(50,50,c),
(41,50,o),
(31,17,o),
(31,4,c),
(85,-26,o),
(142,-39,o),
(193,-39,cs),
(316,-39,o),
(432,36,o),
(432,168,cs),
(432,276,o),
(352,350,o),
(242,350,cs),
(231,350,l),
(226,358,l,{
name = hr00;
})
);
}
);
width = 500;
}
);
unicode = 51;
},
{
glyphname = four;
layers = (
{
layerId = master01;
shapes = (
{
closed = 1;
nodes = (
(205,543,o),
(160,454,o),
(-6,195,c),
(-6,186,o),
(0,156,o),
(9,149,c),
(74,127,o),
(149,119,o),
(224,119,cs),
(249,119,o),
(275,120,o),
(300,121,c),
(305,75,o),
(311,28,o),
(318,-19,c),
(325,-28,o),
(346,-34,o),
(356,-34,cs),
(363,-34,o),
(364,-33,o),
(364,-31,cs),
(361,0,o),
(360,42,o),
(360,92,c),
(360,126,l),
(375,128,o),
(391,130,o),
(406,133,c),
(445,217,l),
(430,244,l),
(410,235,o),
(387,227,o),
(362,220,c),
(368,363,o),
(387,503,o),
(428,604,c),
(298,652,l),
(286,652,o),
(262,646,o),
(250,633,c,{
name = hr00;
})
);
},
{
closed = 1;
nodes = (
(187,362,o),
(237,475,o),
(288,572,c),
(298,572,l),
(293,505,o),
(287,421,o),
(287,342,cs),
(287,296,o),
(289,250,o),
(292,204,c),
(231,193,o),
(164,188,o),
(97,188,c)
);
}
);
width = 500;
}
);
unicode = 52;
},
{
glyphname = five;
layers = (
{
layerId = master01;
shapes = (
{
closed = 1;
nodes = (
(442,288,o),
(341,362,o),
(239,362,cs),
(202,362,o),
(166,352,o),
(134,332,c),
(148,401,o),
(155,493,o),
(162,565,c),
(183,567,o),
(206,568,o),
(233,568,cs),
(306,568,o),
(370,560,o),
(422,538,c),
(433,566,l),
(393,637,l),
(370,639,o),
(347,640,o),
(324,640,cs),
(243,640,o),
(163,628,o),
(98,599,c),
(86,586,o),
(80,567,o),
(80,552,c),
(82,527,o),
(83,502,o),
(83,476,cs),
(83,425,o),
(78,320,o),
(63,259,c),
(63,258,o),
(64,257,o),
(71,257,cs),
(81,257,o),
(108,262,o),
(116,268,cs),
(146,288,o),
(178,297,o),
(208,297,cs),
(276,297,o),
(333,249,o),
(333,167,cs),
(333,73,o),
(264,16,o),
(177,16,cs),
(140,16,o),
(100,27,o),
(60,50,c),
(51,50,o),
(41,17,o),
(41,4,c),
(95,-26,o),
(152,-39,o),
(203,-39,cs),
(326,-39,o),
(442,36,o),
(442,168,cs,{
name = hr00;
})
);
}
);
width = 500;
}
);
unicode = 53;
},
{
glyphname = six;
layers = (
{
layerId = master01;
shapes = (
{
closed = 1;
nodes = (
(206,446,o),
(265,546,o),
(346,657,c),
(346,662,o),
(329,669,o),
(305,669,cs),
(300,669,o),
(295,668,o),
(292,667,c),
(184,547,o),
(40,337,o),
(40,190,cs),
(40,79,o),
(96,-41,o),
(256,-41,cs),
(398,-41,o),
(467,71,o),
(467,177,cs),
(467,300,o),
(376,374,o),
(282,374,cs),
(247,374,o),
(212,363,o),
(180,342,c),
(171,348,l,{
name = hr00;
})
);
},
{
closed = 1;
nodes = (
(175,38,o),
(136,115,o),
(136,185,cs),
(136,253,o),
(172,314,o),
(260,314,cs),
(332,314,o),
(367,245,o),
(367,182,cs),
(367,85,o),
(295,13,o),
(235,13,c)
);
}
);
width = 500;
}
);
unicode = 54;
},
{
glyphname = seven;
layers = (
{
layerId = master01;
shapes = (
{
closed = 1;
nodes = (
(261,164,o),
(336,348,o),
(465,558,c),
(465,562,ls),
(465,572,o),
(460,598,o),
(452,605,c),
(377,636,o),
(287,645,o),
(198,645,cs),
(157,645,o),
(117,643,o),
(79,638,c),
(39,556,l),
(51,528,l),
(119,558,o),
(222,571,o),
(315,571,cs),
(330,571,o),
(345,570,o),
(360,570,c),
(252,338,o),
(203,177,o),
(140,-30,c),
(148,-43,o),
(158,-52,o),
(168,-52,cs),
(175,-52,o),
(179,-49,o),
(180,-47,cs,{
name = hr00;
})
);
}
);
width = 500;
}
);
unicode = 55;
},
{
glyphname = eight;
layers = (
{
layerId = master01;
shapes = (
{
closed = 1;
nodes = (
(460,274,o),
(500,203,o),
(500,134,cs),
(500,39,o),
(416,-38,o),
(280,-38,cs),
(138,-38,o),
(54,47,o),
(54,134,cs),
(54,206,o),
(95,278,o),
(187,318,c),
(94,359,o),
(65,428,o),
(65,496,cs),
(65,592,o),
(146,671,o),
(274,671,cs),
(408,671,o),
(489,585,o),
(489,496,cs),
(489,425,o),
(459,354,o),
(367,315,c,{
name = hr00;
})
);
},
{
closed = 1;
nodes = (
(151,57,o),
(216,17,o),
(280,17,cs),
(343,17,o),
(404,55,o),
(404,132,cs),
(404,194,o),
(367,257,o),
(279,290,c),
(199,269,o),
(151,197,o),
(151,141,cs)
);
},
{
closed = 1;
nodes = (
(397,574,o),
(333,616,o),
(274,616,cs),
(214,616,o),
(156,578,o),
(156,501,cs),
(156,439,o),
(187,376,o),
(275,343,c),
(355,364,o),
(397,436,o),
(397,492,cs)
);
}
);
width = 550;
}
);
unicode = 56;
},
{
glyphname = nine;
layers = (
{
layerId = master01;
shapes = (
{
closed = 1;
nodes = (
(302,178,o),
(249,78,o),
(176,-33,c),
(176,-38,o),
(183,-45,o),
(207,-45,cs),
(212,-45,o),
(227,-44,o),
(230,-43,c),
(331,77,o),
(465,287,o),
(465,434,cs),
(465,545,o),
(409,665,o),
(249,665,cs),
(107,665,o),
(38,553,o),
(38,447,cs),
(38,324,o),
(129,250,o),
(223,250,cs),
(258,250,o),
(293,261,o),
(325,282,c),
(334,276,l,{
name = hr00;
})
);
},
{
closed = 1;
nodes = (
(330,586,o),
(369,508,o),
(369,438,cs),
(369,353,o),
(310,308,o),
(251,308,cs),
(194,308,o),
(138,351,o),
(138,442,cs),
(138,539,o),
(210,611,o),
(270,611,c)
);
}
);
width = 500;
}
);
unicode = 57;
},
{
glyphname = fraction;
layers = (
{
layerId = master01;
shapes = (
{
closed = 1;
nodes = (
(350,175,o),
(462,438,o),
(634,712,c),
(602,738,l),
(519,716,l),
(393,441,o),
(281,176,o),
(174,-81,c),
(182,-94,o),
(200,-103,o),
(210,-103,cs),
(217,-103,o),
(221,-100,o),
(222,-98,cs,{
name = hr00;
})
);
}
);
width = 809;
}
);
unicode = 8260;
},
{
glyphname = onesuperior;
layers = (
{
layerId = master01;
shapes = (
{
closed = 1;
nodes = (
(188,448,o),
(187,472,o),
(187,500,cs),
(187,611,o),
(196,744,o),
(229,821,c),
(172,850,l),
(148,837,l),
(145,825,o),
(143,810,o),
(141,798,c),
(111,760,o),
(68,717,o),
(20,690,c),
(21,673,o),
(46,655,o),
(55,655,c),
(81,667,o),
(106,680,o),
(129,699,c),
(128,692,o),
(128,686,o),
(128,682,cs),
(128,600,o),
(134,517,o),
(147,433,c),
(152,424,o),
(169,421,o),
(177,421,cs),
(187,421,o),
(189,421,o),
(189,429,c,{
name = hr00;
})
);
}
);
width = 300;
}
);
unicode = 185;
},
{
glyphname = twosuperior;
layers = (
{
layerId = master01;
shapes = (
{
closed = 1;
nodes = (
(250,773,o),
(227,830,o),
(111,830,cs),
(94,830,o),
(72,828,o),
(44,824,c),
(19,777,l),
(30,750,l),
(54,764,o),
(91,776,o),
(121,776,cs),
(149,776,o),
(173,765,o),
(173,729,cs),
(173,665,o),
(87,559,o),
(-5,452,c),
(8,425,l),
(55,432,o),
(95,435,o),
(136,435,cs),
(174,435,o),
(223,432,o),
(267,422,c),
(273,422,o),
(279,424,o),
(279,434,cs),
(279,442,o),
(275,462,o),
(268,469,c),
(224,485,o),
(159,492,o),
(97,497,c),
(173,576,o),
(250,668,o),
(250,731,cs,{
name = hr00;
})
);
}
);
width = 300;
}
);
unicode = 178;
},
{
glyphname = threesuperior;
layers = (
{
layerId = master01;
shapes = (
{
closed = 1;
nodes = (
(183,689,o),
(231,729,o),
(262,775,c),
(262,786,o),
(258,798,o),
(251,806,c),
(210,823,o),
(164,830,o),
(118,830,cs),
(97,830,o),
(72,828,o),
(48,824,c),
(23,777,l),
(34,751,l),
(72,769,o),
(125,777,o),
(182,777,c),
(134,706,o),
(94,669,o),
(43,625,c),
(58,598,l),
(76,607,o),
(96,611,o),
(114,611,cs),
(151,611,o),
(183,591,o),
(183,544,cs),
(183,494,o),
(146,463,o),
(99,463,cs),
(79,463,o),
(56,469,o),
(33,483,c),
(23,483,o),
(13,456,o),
(13,445,c),
(48,425,o),
(84,418,o),
(115,418,cs),
(191,418,o),
(262,464,o),
(262,545,cs),
(262,607,o),
(215,649,o),
(146,653,c),
(144,659,l,{
name = hr00;
})
);
}
);
width = 300;
}
);
unicode = 179;
},
{
glyphname = foursuperior;
layers = (
{
layerId = master01;
shapes = (
{
closed = 1;
nodes = (
(120,766,o),
(99,732,o),
(44,644,cs),
(-7,563,l),
(-7,557,o),
(-2,534,o),
(8,527,c),
(46,514,o),
(90,509,o),
(135,509,cs),
(148,509,o),
(157,509,o),
(171,510,c),
(174,483,o),
(178,460,o),
(182,433,c),
(188,424,o),
(204,421,o),
(212,421,cs),
(222,421,o),
(225,421,o),
(225,429,c),
(223,448,o),
(222,472,o),
(222,500,cs),
(222,514,l),
(231,515,o),
(239,516,o),
(247,519,c),
(272,574,l),
(259,598,l),
(224,585,l),
(227,669,o),
(239,753,o),
(264,811,c),
(244,824,o),
(203,840,o),
(168,840,c,{
name = hr00;
})
);
},
{
closed = 1;
nodes = (
(165,719,o),
(164,687,o),
(164,652,cs),
(164,625,o),
(164,599,o),
(166,571,c),
(134,566,o),
(102,564,o),
(72,564,c),
(101,622,o),
(121,659,o),
(169,750,c)
);
}
);
width = 300;
}
);
unicode = 8308;
},
{
glyphname = period;
layers = (
{
layerId = master01;
shapes = (
{
closed = 1;
nodes = (
(39,79,o),
(75,112,o),
(142,121,c),
(169,100,o),
(177,72,o),
(177,48,cs),
(177,-1,o),
(136,-28,o),
(98,-28,cs),
(60,-28,o),
(39,4,o),
(39,36,cs,{
name = hr00;
})
);
}
);
width = 212;
}
);
unicode = 46;
},
{
glyphname = comma;
layers = (
{
layerId = master01;
shapes = (
{
closed = 1;
nodes = (
(178,99,o),
(153,129,o),
(116,129,cs),
(79,129,o),
(43,103,o),
(43,56,c),
(86,-6,l),
(83,-46,o),
(63,-82,o),
(10,-107,c),
(10,-117,o),
(20,-138,o),
(26,-138,cs),
(39,-138,o),
(178,-82,o),
(178,53,cs,{
name = hr00;
})
);
}
);
width = 217;
}
);
unicode = 44;
},
{
glyphname = ellipsis;
layers = (
{
layerId = master01;
shapes = (
{
closed = 1;
nodes = (
(39,79,o),
(75,112,o),
(142,121,c),
(169,100,o),
(177,72,o),
(177,48,cs),
(177,-1,o),
(136,-28,o),
(98,-28,cs),
(60,-28,o),
(39,4,o),
(39,36,cs,{
name = hr00;
})
);
},
{
closed = 1;
nodes = (
(251,79,o),
(287,112,o),
(354,121,c),
(381,100,o),
(389,72,o),
(389,48,cs),
(389,-1,o),
(348,-28,o),
(310,-28,cs),
(272,-28,o),
(251,4,o),
(251,36,cs)
);
},
{
closed = 1;
nodes = (
(463,79,o),
(499,112,o),
(566,121,c),
(593,100,o),
(601,72,o),
(601,48,cs),
(601,-1,o),
(560,-28,o),
(522,-28,cs),
(484,-28,o),
(463,4,o),
(463,36,cs)
);
}
);
width = 636;
}
);
unicode = 8230;
},
{
glyphname = exclam;
layers = (
{
layerId = master01;
shapes = (
{
closed = 1;
nodes = (
(101,188,o),
(106,182,o),
(116,182,cs),
(126,182,o),
(142,185,o),
(153,194,c),
(165,348,o),
(210,564,o),
(257,659,c),
(176,707,l),
(149,694,l),
(116,563,o),
(101,407,o),
(101,224,cs,{
name = hr00;
})
);
},
{
closed = 1;
nodes = (
(60,79,o),
(96,112,o),
(163,121,c),
(190,100,o),
(198,72,o),
(198,48,cs),
(198,-1,o),
(157,-28,o),
(119,-28,cs),
(81,-28,o),
(60,4,o),
(60,36,cs)
);
}
);
width = 257;
}
);
unicode = 33;
},
{
glyphname = exclamdown;
layers = (
{
layerId = master01;
shapes = (
{
closed = 1;
nodes = (
(151,284,o),
(146,290,o),
(136,290,cs),
(126,290,o),
(110,287,o),
(99,278,c),
(87,124,o),
(42,-92,o),
(-5,-187,c),
(76,-235,l),
(103,-222,l),
(136,-91,o),
(151,65,o),
(151,248,cs,{
name = hr00;
})
);
},
{
closed = 1;
nodes = (
(192,393,o),
(156,360,o),
(89,351,c),
(62,372,o),
(54,400,o),
(54,424,cs),
(54,473,o),
(95,500,o),
(133,500,cs),
(171,500,o),
(192,468,o),
(192,436,cs)
);
}
);
width = 212;
}
);
unicode = 161;
},
{
glyphname = question;
layers = (
{
layerId = master01;
shapes = (
{
closed = 1;
nodes = (
(198,232,o),
(181,253,o),
(181,281,cs),
(181,364,o),
(383,413,o),
(383,539,cs),
(383,595,o),
(348,688,o),
(91,709,c),
(67,689,l),
(101,592,l),
(130,610,o),
(167,624,o),
(200,624,cs),
(243,624,o),
(286,608,o),
(286,563,cs),
(286,465,o),
(81,424,o),
(81,297,cs),
(81,265,o),
(113,213,o),
(198,183,c),
(214,183,o),
(224,198,o),
(224,219,c,{
name = hr00;
})
);
},
{
closed = 1;
nodes = (
(65,79,o),
(101,112,o),
(168,121,c),
(195,100,o),
(203,72,o),
(203,48,cs),
(203,-1,o),
(162,-28,o),
(124,-28,cs),
(86,-28,o),
(65,4,o),
(65,36,cs)
);
}
);
width = 405;
}
);
unicode = 63;
},
{
glyphname = questiondown;
layers = (
{
layerId = master01;
shapes = (
{
closed = 1;
nodes = (
(207,240,o),
(224,219,o),
(224,191,cs),
(224,108,o),
(22,59,o),
(22,-67,cs),
(22,-123,o),
(57,-216,o),
(314,-237,c),
(338,-217,l),
(304,-120,l),
(275,-138,o),
(238,-152,o),
(205,-152,cs),
(162,-152,o),
(119,-136,o),
(119,-91,cs),
(119,7,o),
(324,48,o),
(324,175,cs),
(324,207,o),
(292,259,o),
(207,289,c),
(191,289,o),
(181,274,o),
(181,253,c,{
name = hr00;
})
);
},
{
closed = 1;
nodes = (
(340,393,o),
(304,360,o),
(237,351,c),
(210,372,o),
(202,400,o),
(202,424,cs),
(202,473,o),
(243,500,o),
(281,500,cs),
(319,500,o),
(340,468,o),
(340,436,cs)
);
}
);
width = 405;
}
);
unicode = 191;
},
{
glyphname = bullet;
layers = (
{
layerId = master01;
shapes = (
{
closed = 1;
nodes = (
(39,319,o),
(90,365,o),
(184,378,c),
(221,348,o),
(233,309,o),
(233,276,cs),
(233,207,o),
(175,169,o),
(122,169,cs),
(69,169,o),
(39,214,o),
(39,259,cs,{
name = hr00;
})
);
}
);
width = 268;
}
);
unicode = 8226;
},
{
glyphname = asterisk;
layers = (
{
layerId = master01;
shapes = (
{
closed = 1;
nodes = (
(211,657,o),
(205,623,o),
(201,588,c),
(175,611,o),
(151,637,o),
(128,666,c),
(102,648,l),
(80,605,l),
(107,576,o),
(136,552,o),
(167,529,c),
(140,508,o),
(113,485,o),
(84,460,c),
(84,452,o),
(97,417,o),
(106,417,cs),
(109,417,o),
(140,444,o),
(197,480,c),
(198,445,o),
(200,407,o),
(204,368,c),
(216,361,o),
(242,359,o),
(242,359,c),
(248,359,o),
(250,361,o),
(251,363,c),
(251,402,o),
(252,437,o),
(254,470,c),
(283,453,o),
(314,436,o),
(348,418,c),
(366,423,o),
(381,452,o),
(381,452,c),
(381,454,o),
(380,454,o),
(379,455,cs),
(340,479,o),
(307,502,o),
(276,525,c),
(311,542,o),
(350,560,o),
(395,577,c),
(388,608,l),
(355,642,l),
(327,631,o),
(300,618,o),
(274,602,c),
(280,630,o),
(287,657,o),
(297,687,c),
(269,700,l),
(222,696,l,{
name = hr00;
})
);
}
);
width = 465;
}
);
unicode = 42;
},
{
glyphname = numbersign;
layers = (
{
layerId = master01;
shapes = (
{
closed = 1;
nodes = (
(53,41,o),
(71,115,o),
(89,188,c),
(159,192,o),
(226,196,o),
(293,201,c,{
name = hr01;
}),
(277,127,o),
(262,54,o),
(249,-18,c),
(258,-30,o),
(281,-38,o),
(290,-38,cs),
(297,-38,o),
(300,-35,o),
(301,-33,cs),
(361,206,l),
(408,210,o),
(455,216,o),
(502,222,c),
(507,230,o),
(510,243,o),
(510,254,cs),
(510,271,o),
(505,276,o),
(501,276,cs),
(456,271,o),
(415,267,o),
(376,265,c),
(391,319,o),
(406,373,o),
(422,427,c),
(465,431,o),
(508,436,o),
(552,442,c),
(557,450,o),
(560,463,o),
(560,474,cs),
(560,491,o),
(555,496,o),
(551,496,cs),
(512,492,o),
(475,488,o),
(441,486,c),
(463,555,o),
(488,625,o),
(518,696,c),
(485,719,l),
(409,699,l),
(356,481,l),
(316,479,o),
(279,478,o),
(243,478,cs),
(219,478,o),
(195,478,o),
(171,479,c),
(194,551,o),
(220,623,o),
(251,696,c),
(218,719,l),
(142,699,l),
(124,627,o),
(106,555,o),
(90,484,c),
(54,487,o),
(17,491,o),
(-21,497,c),
(-34,458,l),
(0,400,l),
(71,404,l),
(60,357,o),
(49,311,o),
(39,264,c),
(4,267,o),
(-32,271,o),
(-71,277,c),
(-84,238,l),
(-50,180,l),
(22,184,l),
(8,116,o),
(-5,48,o),
(-18,-18,c),
(-9,-30,o),
(14,-38,o),
(23,-38,cs),
(30,-38,o),
(33,-35,o),
(34,-33,cs)
);
},
{
closed = 1;
nodes = (
(329,367,o),
(317,314,o),
(306,261,c),
(266,259,o),
(229,258,o),
(193,258,cs),
(164,258,o),
(136,258,o),
(108,260,c),
(121,309,o),
(135,359,o),
(149,408,c,{
name = hr02;
}),
(215,412,o),
(279,416,o),
(342,421,c)
);
}
);
width = 500;
}
);
unicode = 35;
},
{
glyphname = slash;
layers = (
{
layerId = master01;
shapes = (
{
closed = 1;
nodes = (
(176,175,o),
(288,438,o),
(460,712,c),
(428,738,l),
(345,716,l),
(219,441,o),
(107,176,o),
(0,-81,c),
(8,-94,o),
(26,-103,o),
(36,-103,cs),
(43,-103,o),
(47,-100,o),
(48,-98,cs,{
name = hr00;
})
);
}
);
width = 460;
}
);
unicode = 47;
},
{
glyphname = backslash;
layers = (
{
layerId = master01;
shapes = (
{
closed = 1;
nodes = (
(284,175,o),
(172,438,o),
(0,712,c),
(32,738,l),
(115,716,l),
(241,441,o),
(353,176,o),
(460,-81,c),
(452,-94,o),
(434,-103,o),
(424,-103,cs),
(417,-103,o),
(413,-100,o),
(412,-98,cs,{
name = hr00;
})
);
}
);
width = 460;
}
);
unicode = 92;
},
{
glyphname = hyphen;
layers = (
{
layerId = master01;
shapes = (
{
closed = 1;
nodes = (
(355,326,l),
(308,308,o),
(248,288,o),
(149,288,cs),
(110,288,o),
(77,290,o),
(39,296,c),
(39,296,o),
(35,296,o),
(35,290,cs),
(37,277,o),
(48,242,o),
(58,236,c),
(106,224,o),
(157,219,o),
(205,219,cs),
(249,219,o),
(291,223,o),
(333,230,c),
(366,308,l,{
name = hr00;
})
);
}
);
width = 401;
}
);
unicode = 45;
},
{
glyphname = endash;
layers = (
{
layerId = master01;
shapes = (
{
closed = 1;
nodes = (
(405,214,o),
(495,220,o),
(578,232,c),
(588,258,l),
(557,327,l),
(415,291,o),
(192,279,o),
(18,279,c),
(4,269,o),
(0,253,o),
(0,243,cs),
(0,234,o),
(96,214,o),
(304,214,cs,{
name = hr00;
})
);
}
);
width = 588;
}
);
unicode = 8211;
},
{
glyphname = emdash;
layers = (
{
layerId = master01;
shapes = (
{
closed = 1;
nodes = (
(524,214,o),
(641,220,o),
(748,232,c),
(761,258,l),
(721,327,l),
(535,291,o),
(245,279,o),
(18,279,c),
(4,269,o),
(0,253,o),
(0,243,cs),
(0,234,o),
(124,214,o),
(393,214,cs,{
name = hr00;
})
);
}
);
width = 761;
}
);
unicode = 8212;
},
{
glyphname = underscore;
layers = (
{
layerId = master01;
shapes = (
{
closed = 1;
nodes = (
(434,-7,l),
(377,-25,o),
(294,-45,o),
(158,-45,cs),
(104,-45,o),
(58,-43,o),
(6,-37,c),
(6,-37,o),
(0,-37,o),
(0,-43,c),
(3,-56,o),
(18,-91,o),
(32,-97,c),
(98,-109,o),
(169,-114,o),
(235,-114,cs),
(296,-114,o),
(354,-110,o),
(412,-103,c),
(445,-25,l,{
name = hr00;
})
);
}
);
width = 445;
}
);
unicode = 95;
},
{
glyphname = parenleft;
layers = (
{
layerId = master01;
shapes = (
{
closed = 1;
nodes = (
(279,-76,o),
(246,-98,o),
(237,-98,c),
(109,6,o),
(45,140,o),
(45,289,cs),
(45,467,o),
(127,623,o),
(290,743,c),
(299,743,o),
(313,730,o),
(317,712,c),
(198,602,o),
(146,451,o),
(146,293,cs),
(146,129,o),
(204,14,o),
(285,-58,c,{
name = hr00;
})
);
}
);
width = 317;
}
);
unicode = 40;
},
{
glyphname = parenright;
layers = (
{
layerId = master01;
shapes = (
{
closed = 1;
nodes = (
(38,721,o),
(71,743,o),
(80,743,c),
(208,639,o),
(272,505,o),
(272,356,cs),
(272,178,o),
(190,22,o),
(27,-98,c),
(18,-98,o),
(4,-85,o),
(0,-67,c),
(119,43,o),
(171,194,o),
(171,352,cs),
(171,516,o),
(113,631,o),
(32,703,c,{
name = hr00;
})
);
}
);
width = 317;
}
);
unicode = 41;
},
{
glyphname = braceleft;
layers = (
{
layerId = master01;
shapes = (
{
closed = 1;
nodes = (
(58,315,o),
(77,307,o),
(95,291,c),
(84,246,o),
(74,165,o),
(74,107,cs),
(74,0,o),
(98,-83,o),
(216,-83,cs),
(236,-83,o),
(257,-81,o),
(282,-76,c),
(315,2,l),
(304,20,l),
(267,6,o),
(223,-9,o),
(158,-15,c),
(158,141,o),
(168,180,o),
(168,242,cs),
(168,286,o),
(157,315,o),
(117,343,c),
(154,367,o),
(172,408,o),
(176,440,cs),
(186,528,o),
(201,608,o),
(223,670,c),
(263,667,o),
(302,660,o),
(341,650,c),
(346,655,o),
(347,665,o),
(347,674,cs),
(347,689,o),
(343,707,o),
(338,712,c),
(282,733,o),
(239,744,o),
(205,744,cs),
(117,744,o),
(96,592,o),
(96,465,cs),
(96,439,o),
(97,406,o),
(98,387,c),
(88,381,o),
(60,372,o),
(39,372,c),
(36,321,l,{
name = hr00;
})
);
}
);
width = 347;
}
);
unicode = 123;
},
{
glyphname = braceright;
layers = (
{
layerId = master01;
shapes = (
{
closed = 1;
nodes = (
(289,346,o),
(270,354,o),
(252,370,c),
(263,415,o),
(273,496,o),
(273,554,cs),
(273,661,o),
(249,744,o),
(131,744,cs),
(111,744,o),
(90,742,o),
(65,737,c),
(32,659,l),
(43,641,l),
(80,655,o),
(124,670,o),
(189,676,c),
(189,520,o),
(179,481,o),
(179,419,cs),
(179,375,o),
(190,346,o),
(230,318,c),
(193,294,o),
(175,253,o),
(171,221,cs),
(161,133,o),
(146,53,o),
(124,-9,c),
(84,-6,o),
(45,1,o),
(6,11,c),
(1,6,o),
(0,-4,o),
(0,-13,cs),
(0,-28,o),
(4,-46,o),
(9,-51,c),
(65,-72,o),
(108,-83,o),
(142,-83,cs),
(230,-83,o),
(251,69,o),
(251,196,cs),
(251,222,o),
(250,255,o),
(249,274,c),
(259,280,o),
(287,289,o),
(308,289,c),
(311,340,l,{
name = hr00;
})
);
}
);
width = 347;
}
);
unicode = 125;
},
{
glyphname = bracketleft;
layers = (
{
layerId = master01;
shapes = (
{
closed = 1;
nodes = (
(100,646,o),
(85,464,o),
(85,355,cs),
(85,217,o),
(95,77,o),
(114,-70,c),
(134,-87,l),
(182,-87,o),
(241,-83,o),
(282,-76,c),
(315,2,l),
(304,20,l),
(267,6,o),
(223,-9,o),
(158,-15,c),
(158,58,ls),
(158,272,o),
(171,523,o),
(223,670,c),
(263,667,o),
(302,660,o),
(341,650,c),
(346,655,o),
(347,665,o),
(347,674,cs),
(347,689,o),
(343,707,o),
(338,712,c),
(285,737,o),
(204,750,o),
(123,750,c,{
name = hr00;
})
);
}
);
width = 347;
}
);
unicode = 91;
},
{
glyphname = bracketright;
layers = (
{
layerId = master01;
shapes = (
{
closed = 1;
nodes = (
(247,17,o),
(262,199,o),
(262,308,cs),
(262,446,o),
(252,586,o),
(233,733,c),
(213,750,l),
(165,750,o),
(106,746,o),
(65,739,c),
(32,661,l),
(43,643,l),
(80,657,o),
(124,672,o),
(189,678,c),
(189,605,ls),
(189,391,o),
(176,140,o),
(124,-7,c),
(84,-4,o),
(45,3,o),
(6,13,c),
(1,8,o),
(0,-2,o),
(0,-11,cs),
(0,-26,o),
(4,-44,o),
(9,-49,c),
(62,-74,o),
(143,-87,o),
(224,-87,c,{
name = hr00;
})
);
}
);
width = 347;
}
);
unicode = 93;
},
{
glyphname = quotedblleft;
layers = (
{
layerId = master01;
shapes = (
{
closed = 1;
nodes = (
(39,433,o),
(64,403,o),
(101,403,cs),
(138,403,o),
(174,429,o),
(174,476,c),
(131,538,l),
(134,578,o),
(154,614,o),
(207,639,c),
(207,649,o),
(197,670,o),
(191,670,cs),
(178,670,o),
(39,614,o),
(39,479,cs,{
name = hr00;
})
);
},
{
closed = 1;
nodes = (
(227,433,o),
(252,403,o),
(289,403,cs),
(326,403,o),
(362,429,o),
(362,476,c),
(319,538,l),
(322,578,o),
(342,614,o),
(395,639,c),
(395,649,o),
(385,670,o),
(379,670,cs),
(366,670,o),
(227,614,o),
(227,479,cs)
);
}
);
width = 385;
}
);
unicode = 8220;
},
{
glyphname = quotedblright;
layers = (
{
layerId = master01;
shapes = (
{
closed = 1;
nodes = (
(178,640,o),
(153,670,o),
(116,670,cs),
(79,670,o),
(43,644,o),
(43,597,c),
(86,535,l),
(83,495,o),
(63,459,o),
(10,434,c),
(10,424,o),
(20,403,o),
(26,403,cs),
(39,403,o),
(178,459,o),
(178,594,cs,{
name = hr00;
})
);
},
{
closed = 1;
nodes = (
(366,640,o),
(341,670,o),
(304,670,cs),
(267,670,o),
(231,644,o),
(231,597,c),
(274,535,l),
(271,495,o),
(251,459,o),
(198,434,c),
(198,424,o),
(208,403,o),
(214,403,cs),
(227,403,o),
(366,459,o),
(366,594,cs)
);
}
);
width = 405;
}
);
unicode = 8221;
},
{
glyphname = quoteleft;
layers = (
{
layerId = master01;
shapes = (
{
closed = 1;
nodes = (
(39,433,o),
(64,403,o),
(101,403,cs),
(138,403,o),
(174,429,o),
(174,476,c),
(131,538,l),
(134,578,o),
(154,614,o),
(207,639,c),
(207,649,o),
(197,670,o),
(191,670,cs),
(178,670,o),
(39,614,o),
(39,479,cs,{
name = hr00;
})
);
}
);
width = 197;
}
);
unicode = 8216;
},
{
glyphname = quoteright;
layers = (
{
layerId = master01;
shapes = (
{
closed = 1;
nodes = (
(178,640,o),
(153,670,o),
(116,670,cs),
(79,670,o),
(43,644,o),
(43,597,c),
(86,535,l),
(83,495,o),
(63,459,o),
(10,434,c),
(10,424,o),
(20,403,o),
(26,403,cs),
(39,403,o),
(178,459,o),
(178,594,cs,{
name = hr00;
})
);
}
);
width = 217;
}
);
unicode = 8217;
},
{
glyphname = guillemotleft;
layers = (
{
layerId = master01;
shapes = (
{
closed = 1;
nodes = (
(111,184,o),
(157,124,o),
(202,44,c),
(222,56,l),
(248,143,l),
(204,198,o),
(168,223,o),
(118,258,c),
(119,271,l),
(175,306,o),
(215,331,o),
(269,386,c),
(259,473,l),
(241,485,l),
(171,399,o),
(122,345,o),
(45,295,c),
(40,234,l,{
name = hr00;
})
);
},
{
closed = 1;
nodes = (
(326,184,o),
(372,124,o),
(417,44,c),
(437,56,l),
(463,143,l),
(419,198,o),
(383,223,o),
(333,258,c),
(334,271,l),
(390,306,o),
(430,331,o),
(484,386,c),
(474,473,l),
(456,485,l),
(386,399,o),
(337,345,o),
(260,295,c),
(255,234,l)
);
}
);
width = 544;
}
);
unicode = 171;
},
{
glyphname = guillemotright;
layers = (
{
layerId = master01;
shapes = (
{
closed = 1;
nodes = (
(218,345,o),
(172,405,o),
(127,485,c),
(107,473,l),
(81,386,l),
(125,331,o),
(161,306,o),
(211,271,c),
(210,258,l),
(154,223,o),
(114,198,o),
(60,143,c),
(70,56,l),
(88,44,l),
(158,130,o),
(207,184,o),
(284,234,c),
(289,295,l,{
name = hr00;
})
);
},
{
closed = 1;
nodes = (
(433,345,o),
(387,405,o),
(342,485,c),
(322,473,l),
(296,386,l),
(340,331,o),
(376,306,o),
(426,271,c),
(425,258,l),
(369,223,o),
(329,198,o),
(275,143,c),
(285,56,l),
(303,44,l),
(373,130,o),
(422,184,o),
(499,234,c),
(504,295,l)
);
}
);
width = 544;
}
);
unicode = 187;
},
{
glyphname = guilsinglleft;
layers = (
{
layerId = master01;
shapes = (
{
closed = 1;
nodes = (
(111,184,o),
(157,124,o),
(202,44,c),
(222,56,l),
(248,143,l),
(204,198,o),
(168,223,o),
(118,258,c),
(119,271,l),
(175,306,o),
(215,331,o),
(269,386,c),
(259,473,l),
(241,485,l),
(171,399,o),
(122,345,o),
(45,295,c),
(40,234,l,{
name = hr00;
})
);
}
);
width = 329;
}
);
unicode = 8249;
},
{
glyphname = guilsinglright;
layers = (
{
layerId = master01;
shapes = (
{
closed = 1;
nodes = (
(218,345,o),
(172,405,o),
(127,485,c),
(107,473,l),
(81,386,l),
(125,331,o),
(161,306,o),
(211,271,c),
(210,258,l),
(154,223,o),
(114,198,o),
(60,143,c),
(70,56,l),
(88,44,l),
(158,130,o),
(207,184,o),
(284,234,c),
(289,295,l,{
name = hr00;
})
);
}
);
width = 329;
}
);
unicode = 8250;
},
{
glyphname = quotedbl;
layers = (
{
layerId = master01;
shapes = (
{
closed = 1;
nodes = (
(125,507,o),
(140,605,o),
(166,670,c),
(96,705,l),
(77,696,l),
(64,598,o),
(60,537,o),
(60,471,cs),
(60,452,o),
(62,447,o),
(70,447,cs),
(86,447,o),
(108,450,o),
(120,455,c,{
name = hr00;
})
);
},
{
closed = 1;
nodes = (
(272,507,o),
(288,605,o),
(313,670,c),
(243,705,l),
(224,696,l),
(212,598,o),
(207,537,o),
(207,471,cs),
(207,452,o),
(209,447,o),
(217,447,cs),
(234,447,o),
(255,450,o),
(267,455,c)
);
}
);
width = 313;
}
);
unicode = 34;
},
{
glyphname = quotesingle;
layers = (
{
layerId = master01;
shapes = (
{
closed = 1;
nodes = (
(125,507,o),
(140,605,o),
(166,670,c),
(96,705,l),
(77,696,l),
(64,598,o),
(60,537,o),
(60,471,cs),
(60,452,o),
(62,447,o),
(70,447,cs),
(86,447,o),
(108,450,o),
(120,455,c,{
name = hr00;
})
);
}
);
width = 166;
}
);
unicode = 39;
},
{
glyphname = florin;
layers = (
{
layerId = master01;
shapes = (
{
closed = 1;
nodes = (
(411,356,l),
(376,342,o),
(327,327,o),
(261,322,c),
(263,376,o),
(263,430,o),
(263,481,cs),
(263,560,o),
(284,588,o),
(344,588,cs),
(384,588,o),
(422,570,o),
(445,552,c),
(477,638,l),
(461,664,l),
(192,636,o),
(166,550,o),
(166,471,cs),
(166,416,o),
(168,368,o),
(170,321,c),
(134,322,o),
(99,324,o),
(63,329,c),
(63,329,o),
(58,329,o),
(58,323,cs),
(59,312,o),
(72,279,o),
(85,275,c),
(114,269,o),
(143,265,o),
(173,263,c),
(173,241,o),
(174,220,o),
(174,198,cs),
(174,63,o),
(155,-172,o),
(25,-172,cs),
(14,-172,o),
(3,-171,o),
(-10,-169,c),
(-33,-266,l),
(-8,-284,l),
(197,-223,o),
(247,17,o),
(259,259,c),
(266,259,ls),
(305,259,o),
(353,263,o),
(390,270,c),
(420,339,l,{
name = hr00;
})
);
}
);
width = 500;
}
);
unicode = 402;
},
{
glyphname = at;
layers = (
{
layerId = master01;
shapes = (
{
closed = 1;
nodes = (
(488,176,o),
(485,140,o),
(485,108,cs),
(485,36,o),
(500,-19,o),
(567,-19,cs),
(681,-19,o),
(824,131,o),
(824,321,cs),
(824,516,o),
(684,605,o),
(505,605,cs),
(261,605,o),
(66,418,o),
(66,172,cs),
(66,-19,o),
(187,-107,o),
(350,-107,c),
(358,-97,o),
(364,-74,o),
(365,-63,cs),
(365,-59,o),
(363,-57,o),
(358,-57,cs),
(242,-57,o),
(152,17,o),
(152,174,cs),
(152,391,o),
(302,555,o),
(487,555,cs),
(621,555,o),
(728,479,o),
(728,317,cs),
(728,121,o),
(642,39,o),
(593,39,cs),
(559,39,o),
(550,83,o),
(550,143,cs),
(550,255,o),
(582,425,o),
(604,475,c),
(584,487,l),
(514,457,ls),
(396,406,o),
(239,286,o),
(239,128,cs),
(239,77,o),
(260,42,o),
(308,42,cs),
(364,42,o),
(434,113,o),
(486,216,c),
(492,212,l,{
name = hr00;
})
);
},
{
closed = 1;
nodes = (
(334,144,o),
(322,170,o),
(322,207,cs),
(322,302,o),
(437,376,o),
(516,407,c),
(501,311,l),
(454,192,o),
(395,144,o),
(361,144,cs)
);
}
);
width = 882;
}
);
unicode = 64;
},
{
glyphname = ampersand;
layers = (
{
layerId = master01;
shapes = (
{
closed = 1;
nodes = (
(246,-22,o),
(314,21,o),
(368,89,c),
(404,50,o),
(440,13,o),
(476,-20,cs),
(482,-25,o),
(494,-33,o),
(524,-33,cs,{
name = hr01;
}),
(528,-33,o),
(533,-30,o),
(533,-24,c),
(488,32,o),
(444,87,o),
(404,141,c),
(437,198,o),
(460,265,o),
(471,335,c),
(459,345,o),
(447,349,o),
(440,349,cs),
(437,349,o),
(434,346,o),
(433,341,cs),
(417,287,o),
(395,235,o),
(368,191,c),
(294,298,o),
(243,397,o),
(243,481,cs),
(243,555,o),
(287,588,o),
(344,588,cs),
(379,588,o),
(420,575,o),
(458,552,c),
(490,638,l),
(474,664,l),
(178,636,o),
(140,550,o),
(140,471,cs),
(140,442,o),
(149,409,o),
(164,374,c),
(69,309,o),
(25,214,o),
(25,134,cs),
(25,48,o),
(76,-22,o),
(174,-22,cs)
);
},
{
closed = 1;
nodes = (
(291,92,o),
(250,67,o),
(208,67,cs),
(151,67,o),
(122,121,o),
(122,176,cs),
(122,224,o),
(144,281,o),
(189,323,c),
(224,262,o),
(273,197,o),
(327,134,c)
);
}
);
width = 533;
}
);
unicode = 38;
},
{
glyphname = paragraph;
layers = (
{
layerId = master01;
shapes = (
{
closed = 1;
nodes = (
(326,-48,o),
(325,0,o),
(325,58,cs),
(325,298,o),
(333,527,o),
(417,737,c),
(393,751,l),
(120,653,o),
(0,511,o),
(0,373,cs),
(0,292,o),
(49,256,o),
(107,256,cs),
(157,256,o),
(213,282,o),
(252,327,c),
(253,198,o),
(265,67,o),
(283,-70,c),
(290,-80,o),
(311,-87,o),
(321,-87,cs),
(328,-87,o),
(329,-86,o),
(329,-84,cs,{
name = hr00;
})
);
}
);
width = 432;
}
);
unicode = 182;
},
{
glyphname = section;
layers = (
{
layerId = master01;
shapes = (
{
closed = 1;
nodes = (
(88,363,o),
(79,336,o),
(79,312,cs),
(79,186,o),
(322,105,o),
(322,-10,cs),
(322,-81,o),
(246,-131,o),
(133,-131,cs),
(75,-131,o),
(45,-116,o),
(36,-116,cs),
(35,-116,o),
(35,-117,o),
(35,-123,cs),
(35,-130,o),
(39,-148,o),
(46,-159,c),
(98,-175,o),
(127,-176,o),
(164,-176,cs),
(388,-176,o),
(434,-58,o),
(434,7,cs),
(434,159,o),
(164,243,o),
(110,391,c,{
name = hr00;
})
);
},
{
closed = 1;
nodes = (
(425,187,o),
(435,216,o),
(435,237,cs),
(435,383,o),
(174,476,o),
(174,577,cs),
(174,642,o),
(235,664,o),
(297,664,cs),
(338,664,o),
(380,654,o),
(410,638,c),
(443,724,l),
(426,750,l),
(120,707,o),
(78,599,o),
(78,546,cs),
(78,416,o),
(298,360,o),
(413,164,c)
);
}
);
width = 503;
}
);
unicode = 167;
},
{
glyphname = copyright;
layers = (
{
layerId = master01;
shapes = (
{
closed = 1;
nodes = (
(482,643,l),
(273,611,o),
(204,472,o),
(204,367,cs),
(204,256,o),
(256,180,o),
(342,180,cs),
(413,180,o),
(488,253,o),
(508,380,c),
(495,389,o),
(483,394,o),
(478,394,cs),
(471,394,o),
(465,389,o),
(463,383,cs),
(438,295,o),
(405,250,o),
(352,250,cs),
(316,250,o),
(280,297,o),
(280,402,cs),
(280,469,o),
(313,559,o),
(429,559,cs),
(442,559,o),
(456,558,o),
(473,555,c),
(498,619,l,{
name = hr00;
})
);
},
{
closed = 1;
nodes = (
(206,744,o),
(50,585,o),
(50,370,cs),
(50,161,o),
(174,66,o),
(326,66,cs),
(535,66,o),
(692,225,o),
(692,440,cs),
(692,649,o),
(566,744,o),
(415,744,cs)
);
},
{
closed = 1;
nodes = (
(533,699,o),
(632,618,o),
(632,440,cs),
(632,251,o),
(501,111,o),
(326,111,cs),
(207,111,o),
(110,192,o),
(110,370,cs),
(110,559,o),
(240,699,o),
(415,699,cs)
);
}
);
width = 742;
}
);
unicode = 169;
},
{
glyphname = registered;
layers = (
{
layerId = master01;
shapes = (
{
closed = 1;
nodes = (
(268,299,o),
(263,221,o),
(259,189,cs),
(259,184,o),
(262,179,o),
(274,179,cs),
(282,179,o),
(300,184,o),
(309,193,c),
(316,248,o),
(324,311,o),
(327,372,c),
(360,375,l),
(396,304,o),
(438,237,o),
(474,187,c),
(502,187,o),
(511,193,o),
(517,203,c),
(486,250,o),
(456,328,o),
(428,394,c),
(472,417,o),
(500,439,o),
(500,485,cs),
(500,569,o),
(380,575,o),
(265,644,c),
(233,596,l),
(264,537,o),
(268,435,o),
(268,362,cs,{
name = hr00;
})
);
},
{
closed = 1;
nodes = (
(206,744,o),
(50,585,o),
(50,370,cs),
(50,161,o),
(174,66,o),
(326,66,cs),
(535,66,o),
(692,225,o),
(692,440,cs),
(692,649,o),
(566,744,o),
(415,744,cs)
);
},
{
closed = 1;
nodes = (
(533,699,o),
(632,618,o),
(632,440,cs),
(632,251,o),
(501,111,o),
(326,111,cs),
(207,111,o),
(110,192,o),
(110,370,cs),
(110,559,o),
(240,699,o),
(415,699,cs)
);
},
{
closed = 1;
nodes = (
(372,544,o),
(422,522,o),
(422,488,cs),
(422,451,o),
(384,428,o),
(329,420,c),
(329,471,o),
(328,515,o),
(322,559,c)
);
}
);
width = 742;
}
);
unicode = 174;
},
{
glyphname = trademark;
layers = (
{
layerId = master01;
shapes = (
{
closed = 1;
nodes = (
(747,230,o),
(742,303,o),
(742,379,cs),
(742,470,o),
(749,552,o),
(772,611,c),
(707,643,l),
(683,629,l),
(633,529,o),
(591,444,o),
(555,352,c),
(526,443,o),
(494,536,o),
(452,629,c),
(429,643,l),
(353,612,l),
(353,612,o),
(371,507,o),
(371,395,cs),
(371,277,o),
(355,218,o),
(352,192,c),
(352,186,o),
(354,183,o),
(365,183,cs),
(377,183,o),
(399,188,o),
(409,199,c),
(423,255,o),
(440,380,o),
(448,491,c),
(475,403,o),
(494,312,o),
(506,208,c),
(576,177,l),
(600,194,l),
(591,223,l),
(608,312,o),
(632,395,o),
(670,490,c),
(670,394,o),
(682,296,o),
(702,193,c),
(711,184,o),
(729,179,o),
(737,179,cs),
(749,179,o),
(752,184,o),
(752,188,c,{
name = hr00;
})
);
},
{
closed = 1;
nodes = (
(205,278,o),
(217,449,o),
(221,552,c),
(249,559,o),
(280,569,o),
(316,586,c),
(322,591,o),
(326,607,o),
(326,614,cs),
(326,621,o),
(325,627,o),
(318,627,c),
(287,620,o),
(229,611,o),
(177,611,cs),
(133,611,o),
(93,617,o),
(58,636,c),
(28,569,l),
(41,547,l),
(69,542,o),
(94,540,o),
(139,540,c),
(144,483,o),
(146,406,o),
(146,370,cs),
(146,315,o),
(143,254,o),
(133,189,c),
(133,182,o),
(136,180,o),
(146,180,cs),
(155,180,o),
(173,184,o),
(183,194,c)
);
}
);
width = 832;
}
);
unicode = 8482;
},
{
glyphname = degree;
layers = (
{
layerId = master01;
shapes = (
{
closed = 1;
nodes = (
(87,705,o),
(30,645,o),
(30,562,cs),
(30,482,o),
(77,447,o),
(136,447,cs),
(212,447,o),
(273,507,o),
(273,590,cs),
(273,670,o),
(224,705,o),
(167,705,cs,{
name = hr00;
})
);
},
{
closed = 1;
nodes = (
(197,638,o),
(225,621,o),
(225,585,cs),
(225,543,o),
(187,514,o),
(138,514,cs),
(106,514,o),
(77,531,o),
(77,567,cs),
(77,609,o),
(113,638,o),
(162,638,cs)
);
}
);
width = 303;
}
);
unicode = 176;
},
{
glyphname = bar;
layers = (
{
layerId = master01;
shapes = (
{
closed = 1;
nodes = (
(122,-104,o),
(127,-114,o),
(137,-114,cs),
(147,-114,o),
(163,-110,o),
(173,-94,c),
(173,164,o),
(197,534,o),
(236,695,c),
(152,750,l),
(126,735,l),
(114,613,o),
(108,479,o),
(108,330,cs),
(108,214,o),
(111,89,o),
(118,-44,cs,{
name = hr00;
})
);
}
);
width = 316;
}
);
unicode = 124;
},
{
glyphname = brokenbar;
layers = (
{
layerId = master01;
shapes = (
{
closed = 1;
nodes = (
(184,253,o),
(181,260,o),
(167,260,cs),
(154,260,o),
(125,254,o),
(108,241,c),
(109,150,o),
(112,53,o),
(118,-49,cs),
(122,-105,o),
(127,-114,o),
(137,-114,cs),
(147,-114,o),
(163,-110,o),
(173,-95,c),
(173,131,o),
(184,218,o),
(184,234,cs,{
name = hr00;
})
);
},
{
closed = 1;
nodes = (
(208,548,o),
(219,626,o),
(236,695,c),
(152,750,l),
(126,735,l),
(118,654,o),
(110,567,o),
(110,458,cs),
(110,412,o),
(114,403,o),
(129,403,cs),
(144,403,o),
(178,410,o),
(197,427,c)
);
}
);
width = 316;
}
);
unicode = 166;
},
{
glyphname = dagger;
layers = (
{
layerId = master01;
shapes = (
{
closed = 1;
nodes = (
(335,549,l),
(292,532,o),
(228,514,o),
(138,514,cs),
(85,514,o),
(38,516,o),
(-13,522,c),
(-13,522,o),
(-18,522,o),
(-18,516,cs),
(-17,505,o),
(-4,472,o),
(9,468,c),
(68,457,o),
(130,452,o),
(190,452,cs),
(229,452,o),
(277,456,o),
(314,463,c),
(344,532,l,{
name = hr00;
})
);
},
{
ref = bar;
}
);
width = 316;
}
);
unicode = 8224;
},
{
glyphname = uni2113;
layers = (
{
layerId = master01;
shapes = (
{
closed = 1;
nodes = (
(171,511,o),
(203,635,o),
(226,696,c),
(203,712,l),
(119,674,l),
(104,608,o),
(80,425,o),
(80,264,cs),
(80,112,o),
(102,-22,o),
(174,-22,cs),
(223,-22,o),
(279,38,o),
(316,113,c),
(309,119,o),
(295,126,o),
(290,126,cs),
(288,126,o),
(287,125,o),
(286,123,cs),
(259,74,o),
(228,44,o),
(197,44,cs),
(171,44,o),
(150,74,o),
(150,197,cs),
(150,244,o),
(153,304,o),
(159,379,cs,{
name = hr00;
})
);
}
);
width = 242;
}
);
unicode = 8467;
},
{
glyphname = daggerdbl;
layers = (
{
layerId = master01;
shapes = (
{
closed = 1;
nodes = (
(320,161,l),
(277,144,o),
(213,126,o),
(123,126,cs),
(70,126,o),
(23,128,o),
(-28,134,c),
(-28,134,o),
(-33,134,o),
(-33,128,cs),
(-32,117,o),
(-19,84,o),
(-6,80,c),
(53,69,o),
(115,64,o),
(175,64,cs),
(214,64,o),
(262,68,o),
(299,75,c),
(329,144,l,{
name = hr00;
})
);
},
{
closed = 1;
nodes = (
(335,549,l),
(292,532,o),
(228,514,o),
(138,514,cs),
(85,514,o),
(38,516,o),
(-13,522,c),
(-13,522,o),
(-18,522,o),
(-18,516,cs),
(-17,505,o),
(-4,472,o),
(9,468,c),
(68,457,o),
(130,452,o),
(190,452,cs),
(229,452,o),
(277,456,o),
(314,463,c),
(344,532,l)
);
},
{
ref = bar;
}
);
width = 316;
}
);
unicode = 8225;
},
{
glyphname = estimated;
layers = (
{
layerId = master01;
shapes = (
{
closed = 1;
nodes = (
(157,78,l),
(198,39,o),
(247,19,o),
(302,19,cs),
(385,19,o),
(449,59,o),
(495,139,c),
(530,118,l),
(461,26,o),
(409,-17,o),
(302,-17,cs),
(138,-17,o),
(44,107,o),
(44,259,cs),
(44,422,o),
(142,535,o),
(302,535,cs),
(473,535,o),
(554,413,o),
(561,259,c),
(157,259,l,{
name = hr00;
})
);
},
{
closed = 1;
nodes = (
(448,440,l),
(406,480,o),
(357,500,o),
(301,500,cs),
(244,500,o),
(196,480,o),
(157,440,c),
(157,295,l),
(448,295,l)
);
}
);
width = 600;
}
);
unicode = 8494;
},
{
glyphname = Euro;
layers = (
{
layerId = master01;
shapes = (
{
closed = 1;
nodes = (
(280,633,o),
(158,513,o),
(104,382,c),
(74,382,ls),
(45,382,o),
(29,384,o),
(24,384,cs),
(24,384,o),
(19,383,o),
(19,377,cs),
(19,367,o),
(36,334,o),
(50,332,cs),
(62,330,o),
(74,329,o),
(86,328,c),
(79,303,o),
(75,278,o),
(72,253,c),
(36,256,o),
(16,259,o),
(13,259,cs),
(10,259,o),
(8,256,o),
(8,253,cs),
(8,245,o),
(22,207,o),
(35,205,c),
(47,202,o),
(59,201,o),
(71,199,c),
(77,71,o),
(146,-33,o),
(266,-33,cs),
(378,-33,o),
(445,41,o),
(488,138,c),
(477,148,o),
(465,152,o),
(458,152,cs),
(455,152,o),
(452,149,o),
(450,144,cs),
(408,64,o),
(328,40,o),
(281,40,cs),
(211,40,o),
(171,106,o),
(161,190,c),
(179,189,o),
(198,189,o),
(216,189,cs),
(255,189,o),
(303,193,o),
(340,200,c),
(370,269,l),
(361,286,l),
(318,269,o),
(254,251,o),
(164,251,cs),
(158,251,l),
(159,275,o),
(162,301,o),
(167,326,c,{
name = hr01;
}),
(229,327,o),
(294,334,o),
(355,349,c),
(379,420,l),
(369,437,l),
(329,417,o),
(268,397,o),
(185,388,c),
(220,485,o),
(289,565,o),
(390,565,cs),
(411,565,o),
(435,561,o),
(462,552,c),
(496,638,l),
(480,664,l)
);
}
);
width = 500;
}
);
unicode = 8364;
},
{
glyphname = cent;
layers = (
{
layerId = master01;
shapes = (
{
closed = 1;
nodes = (
(375,570,l),
(352,566,o),
(330,561,o),
(310,555,c),
(315,604,o),
(318,653,o),
(321,703,c),
(316,713,o),
(298,717,o),
(287,717,c),
(281,663,o),
(272,602,o),
(262,537,c),
(140,482,o),
(97,377,o),
(97,294,cs),
(97,191,o),
(141,119,o),
(215,108,c),
(208,48,o),
(197,-28,o),
(190,-61,c),
(203,-67,o),
(219,-69,o),
(236,-69,cs),
(245,-69,o),
(253,-69,o),
(262,-66,c),
(266,-33,o),
(275,59,o),
(279,116,c),
(335,140,o),
(385,206,o),
(401,307,c),
(388,316,o),
(376,321,o),
(371,321,cs),
(364,321,o),
(358,316,o),
(356,310,cs),
(331,222,o),
(298,177,o),
(245,177,cs),
(209,177,o),
(173,224,o),
(173,329,cs),
(173,396,o),
(206,486,o),
(322,486,cs),
(335,486,o),
(349,485,o),
(366,482,c),
(391,546,l,{
name = hr00;
})
);
}
);
width = 500;
}
);
unicode = 162;
},
{
glyphname = currency;
layers = (
{
layerId = master01;
shapes = (
{
closed = 1;
nodes = (
(227,502,o),
(185,486,o),
(153,458,c),
(127,484,o),
(105,509,o),
(88,531,c),
(57,512,l),
(30,462,l),
(49,438,o),
(74,411,o),
(104,385,c),
(95,362,o),
(91,336,o),
(91,309,cs),
(91,267,o),
(100,234,o),
(117,210,c),
(96,181,o),
(76,155,o),
(61,131,c),
(69,112,o),
(93,90,o),
(97,89,cs),
(99,89,o),
(100,90,o),
(101,91,cs),
(119,116,o),
(141,142,o),
(164,169,c),
(185,159,o),
(209,154,o),
(235,154,cs),
(272,154,o),
(306,164,o),
(335,183,c),
(368,154,o),
(401,128,o),
(429,106,c),
(449,114,o),
(472,135,o),
(472,139,cs),
(472,141,o),
(472,142,o),
(471,143,cs),
(442,167,o),
(411,196,o),
(381,226,c),
(405,259,o),
(420,300,o),
(420,347,cs),
(420,385,o),
(411,416,o),
(397,440,c),
(424,468,o),
(450,492,o),
(473,511,c),
(452,543,l),
(401,567,l),
(377,548,o),
(353,523,o),
(328,493,c),
(312,499,o),
(294,502,o),
(276,502,cs,{
name = hr00;
})
);
},
{
closed = 1;
nodes = (
(326,429,o),
(370,401,o),
(370,342,cs),
(370,274,o),
(310,227,o),
(234,227,cs),
(185,227,o),
(140,255,o),
(140,314,cs),
(140,382,o),
(196,429,o),
(272,429,cs)
);
}
);
width = 500;
}
);
unicode = 164;
},
{
glyphname = dollar;
layers = (
{
layerId = master01;
shapes = (
{
closed = 1;
nodes = (
(429,664,l),
(385,658,o),
(346,650,o),
(312,641,c),
(318,734,l),
(313,745,o),
(295,750,o),
(284,750,c),
(270,630,l),
(107,578,o),
(81,502,o),
(81,460,cs),
(81,390,o),
(150,337,o),
(215,286,c),
(196,191,o),
(175,98,o),
(152,17,c),
(78,17,o),
(48,32,o),
(39,32,cs),
(38,32,o),
(38,31,o),
(38,25,cs),
(38,18,o),
(42,0,o),
(49,-11,c),
(87,-22,o),
(113,-26,o),
(138,-27,c),
(130,-54,o),
(121,-79,o),
(113,-102,c),
(131,-115,o),
(156,-121,o),
(183,-121,c),
(192,-89,o),
(201,-58,o),
(209,-26,c),
(397,-12,o),
(437,94,o),
(437,155,cs),
(437,240,o),
(355,300,o),
(283,355,c),
(293,428,o),
(301,503,o),
(307,578,c),
(346,577,o),
(385,567,o),
(413,552,c),
(446,638,l,{
name = hr00;
})
);
},
{
closed = 1;
nodes = (
(201,425,o),
(177,456,o),
(177,491,cs),
(177,543,o),
(216,567,o),
(263,575,c),
(255,517,o),
(245,456,o),
(234,395,c)
);
},
{
closed = 1;
nodes = (
(300,210,o),
(325,176,o),
(325,138,cs),
(325,87,o),
(286,46,o),
(222,28,c),
(239,99,o),
(253,170,o),
(266,242,c)
);
}
);
width = 500;
}
);
unicode = 36;
},
{
glyphname = franc;
layers = (
{
layerId = master01;
shapes = (
{
closed = 1;
nodes = (
(280,109,o),
(328,113,o),
(365,120,c),
(395,189,l),
(386,206,l),
(316,179,o),
(244,170,o),
(172,170,cs),
(127,170,o),
(82,174,o),
(38,179,c),
(38,179,o),
(33,179,o),
(33,173,cs),
(34,163,o),
(47,128,o),
(60,125,cs),
(120,111,o),
(182,110,o),
(241,109,cs)
);
},
{
closed = 1;
nodes = (
(377,376,l),
(338,361,o),
(283,346,o),
(209,342,c),
(211,381,o),
(213,419,o),
(213,458,cs),
(213,492,o),
(212,526,o),
(210,560,c),
(281,553,o),
(352,555,o),
(430,565,c),
(463,651,l),
(446,677,l),
(373,640,o),
(287,628,o),
(203,626,c),
(202,638,o),
(200,649,o),
(198,661,c),
(172,677,l),
(102,629,l),
(83,630,o),
(65,631,o),
(47,633,c),
(46,633,o),
(45,632,o),
(45,628,cs),
(45,621,o),
(52,597,o),
(65,588,c),
(79,584,o),
(93,580,o),
(108,577,c),
(116,526,o),
(129,440,o),
(134,342,c),
(113,343,o),
(93,345,o),
(72,349,c),
(72,349,o),
(69,349,o),
(69,343,cs),
(70,332,o),
(79,299,o),
(89,295,c),
(104,290,o),
(119,287,o),
(135,285,c),
(136,274,o),
(136,264,o),
(136,253,cs),
(136,70,o),
(105,-28,o),
(106,-28,c),
(106,-32,o),
(108,-33,o),
(117,-33,cs,{
name = hr01;
}),
(128,-33,o),
(155,-26,o),
(165,-14,c),
(180,78,o),
(195,178,o),
(204,279,c),
(214,278,o),
(224,278,o),
(234,278,cs),
(274,278,o),
(316,284,o),
(355,290,c),
(386,359,l)
);
}
);
width = 433;
}
);
unicode = 8355;
},
{
glyphname = lira;
layers = (
{
layerId = master01;
shapes = (
{
closed = 1;
nodes = (
(31,6,l),
(50,-24,l),
(118,-13,o),
(181,-8,o),
(249,-8,cs),
(312,-8,o),
(392,-13,o),
(465,-30,c),
(466,-30,o),
(467,-28,o),
(467,-21,cs),
(467,-10,o),
(462,20,o),
(456,29,c),
(382,56,o),
(273,67,o),
(168,77,c),
(196,215,o),
(195,363,o),
(210,481,cs),
(220,559,o),
(242,588,o),
(312,588,cs),
(359,588,o),
(403,570,o),
(430,552,c),
(462,638,l),
(446,664,l),
(150,636,o),
(112,550,o),
(112,471,cs),
(112,385,o),
(119,324,o),
(119,249,cs),
(119,202,o),
(116,150,o),
(107,83,c,{
name = hr00;
})
);
},
{
closed = 1;
nodes = (
(280,329,o),
(328,333,o),
(365,340,c),
(395,409,l),
(386,426,l),
(316,399,o),
(244,390,o),
(172,390,cs),
(127,390,o),
(82,394,o),
(38,399,c),
(38,399,o),
(33,399,o),
(33,393,cs),
(34,383,o),
(47,348,o),
(60,345,cs),
(120,331,o),
(182,330,o),
(241,329,cs)
);
},
{
closed = 1;
nodes = (
(280,179,o),
(328,183,o),
(365,190,c),
(395,259,l),
(386,276,l),
(316,249,o),
(244,240,o),
(172,240,cs),
(127,240,o),
(82,244,o),
(38,249,c),
(38,249,o),
(33,249,o),
(33,243,cs),
(34,233,o),
(47,198,o),
(60,195,cs),
(120,181,o),
(182,180,o),
(241,179,cs)
);
}
);
width = 500;
}
);
unicode = 8356;
},
{
glyphname = sterling;
layers = (
{
layerId = master01;
shapes = (
{
closed = 1;
nodes = (
(386,356,l),
(344,339,o),
(283,322,o),
(198,321,c),
(203,388,o),
(205,441,o),
(210,481,cs),
(220,559,o),
(242,588,o),
(312,588,cs),
(359,588,o),
(403,570,o),
(430,552,c),
(462,638,l),
(446,664,l),
(150,636,o),
(112,550,o),
(112,471,cs),
(112,410,o),
(115,369,o),
(117,322,c),
(91,323,o),
(65,326,o),
(38,329,c),
(38,329,o),
(33,329,o),
(33,323,cs),
(34,312,o),
(47,279,o),
(60,275,c),
(79,271,o),
(98,268,o),
(118,266,c),
(118,215,o),
(115,158,o),
(107,83,c),
(31,6,l),
(50,-24,l),
(118,-13,o),
(181,-8,o),
(249,-8,cs),
(312,-8,o),
(392,-13,o),
(465,-30,c),
(466,-30,o),
(467,-28,o),
(467,-21,cs),
(467,-10,o),
(462,20,o),
(456,29,c),
(382,56,o),
(273,66,o),
(168,77,c),
(180,146,o),
(188,207,o),
(193,260,c),
(209,259,o),
(225,259,o),
(241,259,cs),
(280,259,o),
(328,263,o),
(365,270,c),
(395,339,l,{
name = hr00;
})
);
}
);
width = 500;
}
);
unicode = 163;
},
{
glyphname = yen;
layers = (
{
layerId = master01;
shapes = (
{
closed = 1;
nodes = (
(272,28,o),
(269,81,o),
(269,129,cs),
(269,146,l),
(279,146,ls),
(318,146,o),
(366,150,o),
(403,157,c),
(433,226,l),
(424,243,l),
(388,229,o),
(338,214,o),
(271,209,c),
(276,273,l,{
name = hr01;
}),
(315,273,o),
(362,277,o),
(398,284,c),
(428,353,l),
(419,370,l),
(391,359,o),
(355,347,o),
(308,341,c),
(372,449,o),
(440,562,o),
(514,654,c),
(485,677,l),
(398,657,l),
(344,580,o),
(290,452,o),
(246,344,c),
(214,437,o),
(180,561,o),
(171,634,c),
(86,677,l),
(60,659,l),
(74,571,o),
(116,447,o),
(163,336,c),
(132,337,o),
(102,339,o),
(71,343,c),
(71,343,o),
(66,343,o),
(66,337,cs),
(67,326,o),
(80,293,o),
(93,289,c),
(125,283,o),
(157,278,o),
(190,276,c),
(193,269,o),
(196,261,o),
(200,254,c),
(200,239,o),
(200,224,o),
(201,208,c),
(158,208,o),
(118,211,o),
(76,216,c),
(76,216,o),
(71,216,o),
(71,210,cs),
(72,199,o),
(85,166,o),
(98,162,c),
(133,155,o),
(169,151,o),
(205,148,c),
(210,91,o),
(219,34,o),
(230,-19,c),
(238,-28,o),
(259,-34,o),
(269,-34,cs),
(276,-34,o),
(277,-33,o),
(277,-31,cs)
);
}
);
width = 500;
}
);
unicode = 165;
},
{
glyphname = plus;
layers = (
{
layerId = master01;
shapes = (
{
closed = 1;
nodes = (
(204,480,o),
(202,445,o),
(202,410,cs),
(202,394,o),
(202,378,o),
(203,362,c),
(154,352,o),
(103,339,o),
(48,323,c),
(46,315,o),
(46,292,o),
(46,284,cs),
(46,269,o),
(50,265,o),
(54,265,c),
(108,276,o),
(160,286,o),
(210,291,c),
(216,238,o),
(227,182,o),
(240,123,c),
(248,120,o),
(271,119,o),
(279,119,cs),
(294,119,o),
(298,121,o),
(298,124,cs),
(290,184,o),
(285,244,o),
(283,297,c),
(299,298,o),
(317,299,o),
(334,299,cs),
(371,299,o),
(408,296,o),
(449,291,c),
(458,329,l),
(440,384,l),
(426,385,o),
(412,385,o),
(397,385,cs),
(360,385,o),
(322,382,o),
(283,377,c),
(285,423,o),
(291,470,o),
(301,521,c),
(265,533,l),
(209,519,l,{
name = hr00;
})
);
}
);
width = 500;
}
);
unicode = 43;
},
{
glyphname = minus;
layers = (
{
layerId = master01;
shapes = (
{
closed = 1;
nodes = (
(426,385,o),
(412,385,o),
(397,385,cs),
(290,385,o),
(180,361,o),
(48,323,c),
(46,316,o),
(46,292,o),
(46,284,cs),
(46,269,o),
(50,265,o),
(54,265,c),
(156,287,o),
(251,299,o),
(334,299,cs),
(371,299,o),
(408,296,o),
(449,291,c),
(458,329,l),
(440,384,l,{
name = hr00;
})
);
}
);
width = 500;
}
);
unicode = 8722;
},
{
glyphname = multiply;
layers = (
{
layerId = master01;
shapes = (
{
closed = 1;
nodes = (
(100,417,o),
(139,368,o),
(184,320,c),
(142,268,o),
(103,215,o),
(71,166,c),
(79,147,o),
(103,125,o),
(107,124,cs),
(109,124,o),
(110,125,o),
(111,126,cs),
(147,176,o),
(189,226,o),
(233,271,c),
(288,218,o),
(348,168,o),
(402,127,c),
(422,135,o),
(445,156,o),
(445,160,cs),
(445,162,o),
(445,163,o),
(444,164,cs),
(387,211,o),
(333,266,o),
(285,322,c),
(342,374,o),
(399,419,o),
(450,453,c),
(433,487,l),
(385,517,l),
(335,484,o),
(284,436,o),
(236,382,c),
(197,432,o),
(165,481,o),
(140,525,c),
(106,510,l),
(73,466,l,{
name = hr00;
})
);
}
);
width = 500;
}
);
unicode = 215;
},
{
glyphname = equal;
layers = (
{
layerId = master01;
shapes = (
{
closed = 1;
nodes = (
(410,288,o),
(375,290,o),
(340,290,cs),
(256,290,o),
(159,274,o),
(53,251,c),
(50,244,o),
(49,221,o),
(49,212,cs),
(49,198,o),
(51,194,o),
(54,194,cs),
(130,204,o),
(207,208,o),
(269,208,cs),
(330,208,o),
(386,203,o),
(451,190,c,{
name = hr01;
}),
(463,227,l),
(449,283,l)
);
},
{
closed = 1;
nodes = (
(426,466,o),
(411,466,o),
(397,466,cs),
(290,466,o),
(179,441,o),
(48,404,c),
(46,396,o),
(46,373,o),
(46,365,cs),
(46,350,o),
(50,346,o),
(53,346,c),
(156,368,o),
(251,379,o),
(334,379,cs),
(371,379,o),
(408,376,o),
(449,372,c),
(458,410,l),
(440,464,l)
);
}
);
width = 500;
}
);
unicode = 61;
},
{
glyphname = greater;
layers = (
{
layerId = master01;
shapes = (
{
closed = 1;
nodes = (
(330,382,o),
(221,431,o),
(149,503,c),
(118,492,l),
(84,428,l),
(156,378,o),
(253,339,o),
(343,308,c),
(341,295,l),
(241,265,o),
(133,225,o),
(45,175,c),
(58,107,l),
(88,96,l),
(199,173,o),
(310,221,o),
(447,271,c),
(456,332,l,{
name = hr00;
})
);
}
);
width = 500;
}
);
unicode = 62;
},
{
glyphname = less;
layers = (
{
layerId = master01;
shapes = (
{
closed = 1;
nodes = (
(170,217,o),
(279,168,o),
(351,96,c),
(382,107,l),
(416,171,l),
(344,221,o),
(247,260,o),
(157,291,c),
(159,304,l),
(259,334,o),
(367,374,o),
(455,424,c),
(442,492,l),
(412,503,l),
(301,426,o),
(190,378,o),
(53,328,c),
(44,267,l,{
name = hr00;
})
);
}
);
width = 500;
}
);
unicode = 60;
},
{
glyphname = approxequal;
layers = (
{
layerId = master01;
shapes = (
{
closed = 1;
nodes = (
(405,285,o),
(381,277,o),
(353,277,cs),
(295,277,o),
(244,304,o),
(188,304,cs,{
name = hr01;
}),
(136,304,o),
(95,283,o),
(58,235,c),
(57,229,o),
(57,224,o),
(57,217,cs),
(57,199,o),
(58,178,o),
(63,178,cs),
(64,178,o),
(65,179,o),
(66,180,cs),
(96,214,o),
(131,233,o),
(173,233,cs),
(243,233,o),
(303,189,o),
(371,189,cs,{
name = hr02;
}),
(396,189,o),
(420,196,o),
(444,212,c),
(446,227,o),
(448,243,o),
(449,258,c),
(430,299,l)
);
},
{
closed = 1;
nodes = (
(399,446,o),
(375,438,o),
(347,438,cs),
(289,438,o),
(238,465,o),
(182,465,cs,{
name = hr03;
}),
(130,465,o),
(89,444,o),
(52,396,c),
(51,390,o),
(51,385,o),
(51,378,cs),
(51,360,o),
(52,339,o),
(57,339,cs),
(58,339,o),
(59,340,o),
(60,341,cs),
(90,375,o),
(125,394,o),
(167,394,cs),
(237,394,o),
(297,350,o),
(365,350,cs,{
name = hr04;
}),
(390,350,o),
(414,357,o),
(438,373,c),
(440,388,o),
(442,404,o),
(443,419,c),
(424,460,l)
);
}
);
width = 500;
}
);
unicode = 8776;
},
{
glyphname = asciitilde;
layers = (
{
layerId = master01;
shapes = (
{
closed = 1;
nodes = (
(399,364,o),
(375,356,o),
(347,356,cs),
(289,356,o),
(238,383,o),
(182,383,cs,{
name = hr01;
}),
(130,383,o),
(89,362,o),
(52,314,c),
(51,308,o),
(51,303,o),
(51,296,cs),
(51,278,o),
(52,257,o),
(57,257,cs),
(58,257,o),
(59,258,o),
(60,259,cs),
(90,293,o),
(125,312,o),
(167,312,cs),
(237,312,o),
(297,268,o),
(365,268,cs,{
name = hr02;
}),
(390,268,o),
(414,275,o),
(438,291,c),
(440,306,o),
(442,322,o),
(443,337,c),
(424,378,l)
);
}
);
width = 500;
}
);
unicode = 126;
},
{
glyphname = logicalnot;
layers = (
{
layerId = master01;
shapes = (
{
closed = 1;
nodes = (
(434,393,l),
(387,375,o),
(251,351,o),
(152,351,cs),
(113,351,o),
(80,353,o),
(42,359,c),
(42,359,o),
(38,359,o),
(38,353,c),
(40,340,o),
(51,305,o),
(61,299,c),
(115,286,o),
(171,281,o),
(227,281,cs),
(262,281,o),
(298,283,o),
(333,286,c),
(335,220,o),
(353,164,o),
(382,107,c),
(389,102,o),
(408,99,o),
(418,99,cs),
(423,99,o),
(426,99,o),
(426,101,cs),
(417,130,o),
(407,168,o),
(407,219,cs),
(407,231,o),
(408,265,o),
(413,299,c),
(445,375,l,{
name = hr00;
})
);
}
);
width = 500;
}
);
unicode = 172;
},
{
glyphname = asciicircum;
layers = (
{
layerId = master01;
shapes = (
{
closed = 1;
nodes = (
(301,474,o),
(340,377,o),
(382,305,c),
(439,333,l),
(454,364,l),
(400,449,o),
(352,551,o),
(314,677,c),
(254,677,l),
(192,551,o),
(120,449,o),
(50,364,c),
(57,333,l),
(110,305,l),
(168,377,o),
(227,474,o),
(266,564,c),
(278,564,l,{
name = hr00;
})
);
}
);
width = 500;
}
);
unicode = 94;
},
{
glyphname = infinity;
layers = (
{
layerId = master01;
shapes = (
{
closed = 1;
nodes = (
(305,147,o),
(246,114,o),
(194,114,cs),
(113,114,o),
(53,174,o),
(53,271,cs),
(53,402,o),
(147,481,o),
(232,481,cs),
(288,481,o),
(341,447,o),
(363,371,c),
(404,448,o),
(462,481,o),
(515,481,cs),
(595,481,o),
(656,421,o),
(656,324,cs),
(656,194,o),
(561,114,o),
(476,114,cs),
(420,114,o),
(367,148,o),
(345,224,c,{
name = hr00;
})
);
},
{
closed = 1;
nodes = (
(163,386,o),
(125,332,o),
(125,285,cs),
(125,244,o),
(151,208,o),
(204,208,cs),
(251,208,o),
(301,233,o),
(332,296,c),
(312,353,o),
(272,386,o),
(230,386,cs)
);
},
{
closed = 1;
nodes = (
(546,209,o),
(582,262,o),
(582,310,cs),
(582,351,o),
(558,387,o),
(505,387,cs),
(458,387,o),
(407,362,o),
(376,299,c),
(396,242,o),
(437,209,o),
(479,209,cs)
);
}
);
width = 710;
}
);
unicode = 8734;
},
{
glyphname = integral;
layers = (
{
layerId = master01;
shapes = (
{
closed = 1;
nodes = (
(331,716,l),
(227,712,o),
(101,504,o),
(101,215,cs),
(101,172,ls),
(101,45,o),
(89,-108,o),
(-2,-108,cs),
(-13,-108,o),
(-24,-107,o),
(-36,-105,c),
(-59,-202,l),
(-35,-220,l),
(69,-216,o),
(195,-8,o),
(195,281,cs),
(195,323,ls),
(195,450,o),
(207,604,o),
(298,604,cs),
(309,604,o),
(320,603,o),
(332,601,c),
(355,698,l,{
name = hr00;
})
);
}
);
width = 297;
}
);
unicode = 8747;
},
{
glyphname = Omega;
layers = (
{
layerId = master01;
shapes = (
{
closed = 1;
nodes = (
(120,122,o),
(89,202,o),
(89,281,cs),
(89,446,o),
(220,612,o),
(417,612,cs),
(596,612,o),
(692,485,o),
(692,346,cs),
(692,211,o),
(621,114,o),
(551,62,c),
(621,55,o),
(648,45,o),
(688,29,c),
(690,21,o),
(692,0,o),
(692,-14,cs),
(692,-27,o),
(691,-30,o),
(691,-30,c),
(647,-14,o),
(591,-5,o),
(532,-5,cs),
(497,-5,o),
(464,-8,o),
(433,-15,c),
(416,15,l),
(531,87,o),
(588,196,o),
(588,337,cs),
(588,483,o),
(502,551,o),
(409,551,cs),
(274,551,o),
(185,411,o),
(185,267,cs),
(185,171,o),
(225,73,o),
(319,15,c),
(298,-15,l),
(269,-8,o),
(236,-5,o),
(201,-5,cs),
(145,-5,o),
(88,-14,o),
(41,-30,c),
(41,-30,o),
(40,-28,o),
(40,-21,cs),
(41,-10,o),
(45,20,o),
(49,29,c),
(91,45,o),
(117,55,o),
(188,62,c,{
name = hr00;
})
);
}
);
width = 757;
}
);
unicode = 8486;
},
{
glyphname = Delta;
layers = (
{
layerId = master01;
shapes = (
{
closed = 1;
nodes = (
(197,629,l),
(140,209,o),
(25,1,o),
(25,-23,cs),
(25,-26,o),
(26,-28,o),
(29,-28,cs),
(86,-17,o),
(167,-6,o),
(224,-6,cs),
(276,-6,o),
(343,-11,o),
(406,-28,c),
(407,-27,l),
(493,13,l),
(475,238,o),
(391,512,o),
(320,658,c),
(309,671,o),
(287,677,o),
(276,677,c,{
name = hr00;
})
);
},
{
closed = 1;
nodes = (
(384,71,o),
(383,54,o),
(383,36,c),
(314,62,o),
(216,71,o),
(124,82,c),
(197,242,o),
(263,468,o),
(286,608,c),
(344,437,o),
(384,272,o),
(384,89,cs)
);
}
);
width = 533;
}
);
unicode = 8710;
},
{
glyphname = product;
layers = (
{
layerId = master01;
shapes = (
{
closed = 1;
nodes = (
(561,-5,o),
(569,120,o),
(573,236,cs),
(577,366,o),
(577,485,o),
(571,595,c),
(616,598,o),
(658,602,o),
(700,607,c),
(713,633,l),
(671,717,l),
(539,678,o),
(238,654,o),
(29,654,c),
(16,644,o),
(13,628,o),
(12,618,cs),
(12,608,o),
(22,603,o),
(82,599,cs),
(129,596,l),
(161,432,o),
(172,67,o),
(163,-188,c),
(172,-204,o),
(188,-208,o),
(198,-208,cs),
(208,-208,o),
(214,-198,o),
(220,-138,c),
(231,-5,o),
(239,120,o),
(243,236,cs),
(247,365,o),
(247,482,o),
(241,591,c),
(288,589,o),
(334,589,o),
(378,589,cs),
(406,589,o),
(433,589,o),
(460,590,c),
(491,423,o),
(502,64,o),
(493,-188,c),
(502,-204,o),
(518,-208,o),
(528,-208,cs),
(538,-208,o),
(544,-198,o),
(550,-138,c,{
name = hr00;
})
);
}
);
width = 713;
}
);
unicode = 8719;
},
{
glyphname = summation;
layers = (
{
layerId = master01;
shapes = (
{
closed = 1;
nodes = (
(428,-206,o),
(509,-200,o),
(583,-188,c),
(593,-162,l),
(561,-78,l),
(468,-113,o),
(268,-136,o),
(110,-140,c),
(191,-26,o),
(294,95,o),
(404,222,c),
(322,333,o),
(270,457,o),
(238,576,c),
(282,573,o),
(331,572,o),
(377,572,cs),
(467,572,o),
(548,578,o),
(622,590,c),
(632,616,l),
(600,700,l),
(496,661,o),
(260,637,o),
(96,637,c),
(85,627,o),
(82,611,o),
(82,601,c),
(81,596,o),
(96,591,o),
(121,587,c),
(162,465,o),
(239,347,o),
(314,263,c),
(220,140,o),
(144,0,o),
(57,-141,c),
(46,-151,o),
(43,-167,o),
(43,-177,cs),
(42,-192,o),
(201,-206,o),
(338,-206,cs,{
name = hr00;
})
);
}
);
width = 672;
}
);
unicode = 8721;
},
{
glyphname = radical;
layers = (
{
layerId = master01;
shapes = (
{
closed = 1;
nodes = (
(300,-157,l),
(365,192,o),
(482,534,o),
(524,641,c),
(552,629,o),
(585,619,o),
(621,619,cs),
(634,619,o),
(648,621,o),
(663,624,c),
(700,700,l),
(687,717,l),
(651,701,o),
(615,695,o),
(581,695,cs),
(553,695,o),
(526,699,o),
(499,706,c),
(400,532,o),
(248,36,o),
(210,-142,c),
(165,-16,o),
(135,106,o),
(135,239,cs),
(135,280,o),
(137,325,o),
(145,369,c),
(119,382,l),
(30,348,l),
(39,162,o),
(111,-65,o),
(175,-186,c),
(186,-199,o),
(207,-205,o),
(218,-205,c,{
name = hr00;
})
);
}
);
width = 669;
}
);
unicode = 8730;
},
{
glyphname = partialdiff;
layers = (
{
layerId = master01;
shapes = (
{
closed = 1;
nodes = (
(434,399,o),
(386,693,o),
(98,704,c),
(74,686,l),
(93,601,l),
(121,608,o),
(145,612,o),
(168,612,cs),
(268,612,o),
(317,541,o),
(343,436,c),
(105,392,o),
(42,277,o),
(42,167,cs),
(42,37,o),
(122,-33,o),
(218,-33,cs),
(361,-33,o),
(434,89,o),
(434,247,cs,{
name = hr00;
})
);
},
{
closed = 1;
nodes = (
(168,58,o),
(133,113,o),
(133,187,cs),
(133,285,o),
(216,355,o),
(328,374,c),
(358,337,o),
(373,286,o),
(373,235,cs),
(373,145,o),
(326,58,o),
(229,58,cs)
);
}
);
width = 477;
}
);
unicode = 8706;
},
{
glyphname = mu;
layers = (
{
layerId = master01;
shapes = (
{
closed = 1;
nodes = (
(159,471,o),
(158,472,o),
(152,472,cs),
(143,472,o),
(117,466,o),
(109,458,c),
(84,317,o),
(69,186,o),
(69,47,cs),
(69,-36,o),
(75,-122,o),
(86,-214,c),
(91,-223,o),
(108,-226,o),
(116,-226,cs),
(126,-226,o),
(128,-226,o),
(128,-218,cs),
(127,-199,o),
(126,-175,o),
(126,-147,cs),
(126,-93,o),
(131,8,o),
(136,42,c),
(158,12,o),
(180,-1,o),
(202,-1,cs),
(263,-1,o),
(320,102,o),
(361,203,c),
(372,127,o),
(389,41,o),
(412,-14,c),
(420,-22,o),
(440,-28,o),
(450,-28,cs),
(455,-28,o),
(457,-27,o),
(457,-25,cs),
(445,20,o),
(431,184,o),
(431,255,cs),
(431,330,o),
(444,420,o),
(464,479,c),
(439,493,l),
(359,458,l),
(353,424,o),
(350,398,o),
(350,333,cs),
(350,322,o),
(350,309,o),
(351,293,c),
(310,159,o),
(251,90,o),
(204,90,cs),
(159,90,o),
(145,162,o),
(145,255,cs,{
name = hr01;
}),
(145,316,o),
(151,392,o),
(159,468,cs)
);
}
);
width = 511;
}
);
unicode = 181;
},
{
glyphname = percent;
layers = (
{
layerId = master01;
shapes = (
{
closed = 1;
nodes = (
(319,604,o),
(267,667,o),
(205,667,cs),
(120,667,o),
(50,570,o),
(50,440,cs),
(50,301,o),
(102,239,o),
(163,239,cs),
(248,239,o),
(319,335,o),
(319,466,cs,{
name = hr00;
})
);
},
{
closed = 1;
nodes = (
(99,529,o),
(142,593,o),
(198,593,cs),
(237,593,o),
(271,550,o),
(271,457,cs),
(271,373,o),
(228,311,o),
(172,311,cs),
(133,311,o),
(99,352,o),
(99,443,cs)
);
},
{
closed = 1;
nodes = (
(759,345,o),
(707,408,o),
(645,408,cs),
(560,408,o),
(490,311,o),
(490,181,cs),
(490,42,o),
(542,-20,o),
(603,-20,cs),
(688,-20,o),
(759,76,o),
(759,207,cs)
);
},
{
closed = 1;
nodes = (
(539,270,o),
(582,334,o),
(638,334,cs),
(677,334,o),
(711,291,o),
(711,198,cs),
(711,114,o),
(668,52,o),
(612,52,cs),
(573,52,o),
(539,93,o),
(539,184,cs)
);
},
{
pos = (22,0);
ref = fraction;
}
);
width = 809;
}
);
unicode = 37;
},
{
glyphname = perthousand;
layers = (
{
layerId = master01;
shapes = (
{
closed = 1;
nodes = (
(319,604,o),
(267,667,o),
(205,667,cs),
(120,667,o),
(50,570,o),
(50,440,cs),
(50,301,o),
(102,239,o),
(163,239,cs),
(248,239,o),
(319,335,o),
(319,466,cs,{
name = hr00;
})
);
},
{
closed = 1;
nodes = (
(99,529,o),
(142,593,o),
(198,593,cs),
(237,593,o),
(271,550,o),
(271,457,cs),
(271,373,o),
(228,311,o),
(172,311,cs),
(133,311,o),
(99,352,o),
(99,443,cs)
);
},
{
closed = 1;
nodes = (
(759,345,o),
(707,408,o),
(645,408,cs),
(560,408,o),
(490,311,o),
(490,181,cs),
(490,42,o),
(542,-20,o),
(603,-20,cs),
(688,-20,o),
(759,76,o),
(759,207,cs)
);
},
{
closed = 1;
nodes = (
(539,270,o),
(582,334,o),
(638,334,cs),
(677,334,o),
(711,291,o),
(711,198,cs),
(711,114,o),
(668,52,o),
(612,52,cs),
(573,52,o),
(539,93,o),
(539,184,cs)
);
},
{
closed = 1;
nodes = (
(1078,345,o),
(1026,408,o),
(964,408,cs),
(879,408,o),
(809,311,o),
(809,181,cs),
(809,42,o),
(861,-20,o),
(922,-20,cs),
(1007,-20,o),
(1078,76,o),
(1078,207,cs)
);
},
{
closed = 1;
nodes = (
(858,270,o),
(901,334,o),
(957,334,cs),
(996,334,o),
(1030,291,o),
(1030,198,cs),
(1030,114,o),
(987,52,o),
(931,52,cs),
(892,52,o),
(858,93,o),
(858,184,cs)
);
},
{
pos = (22,0);
ref = fraction;
}
);
width = 1108;
}
);
unicode = 8240;
},
{
glyphname = lozenge;
layers = (
{
layerId = master01;
shapes = (
{
closed = 1;
nodes = (
(476,400,o),
(405,516,o),
(320,658,c),
(309,671,o),
(287,677,o),
(276,677,c),
(197,629,l),
(174,469,o),
(108,358,o),
(35,233,c),
(75,60,o),
(146,-56,o),
(231,-198,c),
(242,-211,o),
(264,-217,o),
(275,-217,c),
(354,-169,l),
(377,-9,o),
(443,102,o),
(516,227,c,{
name = hr00;
})
);
},
{
closed = 1;
nodes = (
(358,102,o),
(303,-19,o),
(265,-139,c),
(190,-19,o),
(137,139,o),
(133,270,c),
(193,358,o),
(248,479,o),
(286,599,c),
(361,479,o),
(414,321,o),
(418,190,c)
);
}
);
width = 551;
}
);
unicode = 9674;
},
{
glyphname = dieresis;
layers = (
{
layerId = master01;
shapes = (
{
closed = 1;
nodes = (
(50,640,o),
(79,666,o),
(135,674,c),
(156,657,o),
(164,633,o),
(164,613,cs),
(164,573,o),
(130,549,o),
(98,549,cs),
(66,549,o),
(50,578,o),
(50,602,cs,{
name = hr00;
})
);
},
{
closed = 1;
nodes = (
(237,640,o),
(266,666,o),
(322,674,c),
(343,657,o),
(351,633,o),
(351,613,cs),
(351,573,o),
(317,549,o),
(285,549,cs),
(253,549,o),
(237,578,o),
(237,602,cs)
);
}
);
width = 401;
}
);
unicode = 168;
},
{
glyphname = dotaccent;
layers = (
{
layerId = master01;
shapes = (
{
closed = 1;
nodes = (
(50,644,o),
(86,677,o),
(153,686,c),
(179,665,o),
(188,636,o),
(188,612,cs),
(188,564,o),
(147,535,o),
(109,535,cs),
(70,535,o),
(50,570,o),
(50,600,cs,{
name = hr00;
})
);
}
);
width = 238;
}
);
unicode = 729;
},
{
glyphname = grave;
layers = (
{
layerId = master01;
shapes = (
{
closed = 1;
nodes = (
(78,717,l),
(117,664,o),
(179,601,o),
(269,560,c),
(269,545,o),
(245,523,o),
(236,522,c),
(162,545,o),
(110,569,o),
(50,620,c),
(62,707,l,{
name = hr00;
})
);
}
);
width = 319;
}
);
unicode = 96;
},
{
glyphname = acute;
layers = (
{
layerId = master01;
shapes = (
{
closed = 1;
nodes = (
(241,717,l),
(202,664,o),
(140,601,o),
(50,560,c),
(50,545,o),
(74,523,o),
(83,522,c),
(157,545,o),
(209,569,o),
(269,620,c),
(257,707,l,{
name = hr00;
})
);
}
);
width = 319;
}
);
unicode = 180;
},
{
glyphname = hungarumlaut;
layers = (
{
layerId = master01;
shapes = (
{
closed = 1;
nodes = (
(188,711,l),
(159,656,o),
(105,596,o),
(50,552,c),
(51,537,o),
(74,517,o),
(82,517,c),
(145,546,o),
(179,573,o),
(228,628,c),
(203,703,l,{
name = hr00;
})
);
},
{
closed = 1;
nodes = (
(346,711,l),
(317,656,o),
(263,596,o),
(208,552,c),
(209,537,o),
(232,517,o),
(240,517,c),
(303,546,o),
(337,573,o),
(386,628,c),
(361,703,l)
);
}
);
width = 436;
}
);
unicode = 733;
},
{
glyphname = circumflex;
layers = (
{
layerId = master01;
shapes = (
{
closed = 1;
nodes = (
(199,707,l),
(165,654,o),
(123,609,o),
(50,560,c),
(50,545,o),
(74,523,o),
(83,522,c),
(126,539,o),
(171,569,o),
(204,600,c),
(216,574,o),
(231,550,o),
(252,528,c),
(315,538,l),
(325,554,l),
(280,599,o),
(249,645,o),
(223,707,c,{
name = hr00;
})
);
}
);
width = 375;
}
);
unicode = 710;
},
{
glyphname = caron;
layers = (
{
layerId = master01;
shapes = (
{
closed = 1;
nodes = (
(176,532,l),
(210,585,o),
(252,630,o),
(325,679,c),
(325,694,o),
(301,716,o),
(292,717,c),
(249,699,o),
(203,669,o),
(171,639,c),
(159,665,o),
(143,689,o),
(123,711,c),
(60,701,l),
(50,685,l),
(95,640,o),
(126,594,o),
(152,532,c,{
name = hr00;
})
);
}
);
width = 375;
}
);
unicode = 711;
},
{
glyphname = breve;
layers = (
{
layerId = master01;
shapes = (
{
closed = 1;
nodes = (
(236,592,o),
(117,581,o),
(117,663,c),
(102,673,l),
(51,646,l),
(51,578,o),
(99,548,o),
(160,548,cs),
(241,548,o),
(302,610,o),
(302,681,cs),
(288,691,l),
(236,664,l,{
name = hr00;
})
);
}
);
width = 333;
}
);
unicode = 728;
},
{
glyphname = ring;
layers = (
{
layerId = master01;
shapes = (
{
closed = 1;
nodes = (
(96,705,o),
(50,662,o),
(50,603,cs),
(50,546,o),
(88,521,o),
(134,521,cs),
(195,521,o),
(243,564,o),
(243,623,cs),
(243,680,o),
(204,705,o),
(159,705,cs,{
name = hr00;
})
);
},
{
closed = 1;
nodes = (
(169,654,o),
(183,643,o),
(183,618,cs),
(183,591,o),
(164,572,o),
(140,572,cs),
(124,572,o),
(110,583,o),
(110,608,cs),
(110,635,o),
(128,654,o),
(152,654,cs)
);
}
);
width = 293;
}
);
unicode = 730;
},
{
glyphname = tilde;
layers = (
{
layerId = master01;
shapes = (
{
closed = 1;
nodes = (
(121,568,o),
(140,575,o),
(157,575,cs),
(183,575,o),
(206,558,o),
(250,558,cs,{
name = hr01;
}),
(292,558,o),
(331,587,o),
(359,652,c),
(359,660,o),
(348,673,o),
(333,673,c),
(314,645,o),
(290,629,o),
(259,629,cs),
(216,629,o),
(199,658,o),
(147,658,cs,{
name = hr02;
}),
(116,658,o),
(78,636,o),
(62,606,c),
(80,554,l),
(94,546,l)
);
}
);
width = 427;
}
);
unicode = 732;
},
{
glyphname = macron;
layers = (
{
layerId = master01;
shapes = (
{
closed = 1;
nodes = (
(274,667,l),
(242,646,o),
(199,628,o),
(125,628,cs),
(73,628,o),
(49,636,o),
(45,636,cs),
(42,636,o),
(40,633,o),
(40,630,cs),
(40,619,o),
(49,588,o),
(57,582,c),
(93,570,o),
(131,565,o),
(168,565,cs),
(200,565,o),
(231,569,o),
(263,576,c),
(287,648,l,{
name = hr00;
})
);
}
);
width = 313;
}
);
unicode = 175;
},
{
glyphname = cedilla;
layers = (
{
layerId = master01;
shapes = (
{
closed = 1;
nodes = (
(124,-89,l),
(138,-108,l),
(150,-102,o),
(163,-99,o),
(176,-99,cs),
(205,-99,o),
(218,-117,o),
(218,-136,cs),
(218,-158,o),
(199,-183,o),
(168,-183,cs),
(144,-183,o),
(116,-169,o),
(102,-143,c),
(77,-191,l),
(82,-206,l),
(105,-219,o),
(131,-225,o),
(155,-225,cs),
(239,-225,o),
(282,-171,o),
(282,-124,cs),
(282,-79,o),
(243,-57,o),
(204,-57,cs),
(191,-57,o),
(179,-59,o),
(168,-63,c),
(201,0,l),
(165,0,l,{
name = hr00;
})
);
}
);
width = 408;
}
);
unicode = 184;
},
{
glyphname = ogonek;
layers = (
{
layerId = master01;
shapes = (
{
closed = 1;
nodes = (
(129,-30,o),
(96,-89,o),
(96,-131,cs),
(96,-184,o),
(126,-225,o),
(186,-225,cs),
(234,-225,o),
(286,-178,o),
(312,-114,c),
(308,-107,o),
(295,-100,o),
(286,-100,c),
(263,-141,o),
(236,-166,o),
(208,-166,cs),
(175,-166,o),
(158,-142,o),
(158,-109,cs),
(158,-75,o),
(176,-33,o),
(215,0,c),
(174,0,l,{
name = hr00;
})
);
}
);
width = 426;
}
);
unicode = 731;
},
{
glyphname = dieresis.case;
layers = (
{
layerId = master01;
shapes = (
{
closed = 1;
nodes = (
(50,817,o),
(79,843,o),
(135,851,c),
(156,834,o),
(164,810,o),
(164,790,cs),
(164,750,o),
(130,726,o),
(98,726,cs),
(66,726,o),
(50,755,o),
(50,779,cs,{
name = hr00;
})
);
},
{
closed = 1;
nodes = (
(237,817,o),
(266,843,o),
(322,851,c),
(343,834,o),
(351,810,o),
(351,790,cs),
(351,750,o),
(317,726,o),
(285,726,cs),
(253,726,o),
(237,755,o),
(237,779,cs)
);
}
);
width = 401;
}
);
},
{
glyphname = dotaccent.case;
layers = (
{
layerId = master01;
shapes = (
{
closed = 1;
nodes = (
(50,821,o),
(86,854,o),
(153,863,c),
(179,842,o),
(188,813,o),
(188,789,cs),
(188,741,o),
(147,712,o),
(109,712,cs),
(70,712,o),
(50,747,o),
(50,777,cs,{
name = hr00;
})
);
}
);
width = 238;
}
);
},
{
glyphname = grave.case;
layers = (
{
layerId = master01;
shapes = (
{
closed = 1;
nodes = (
(78,894,l),
(117,841,o),
(179,778,o),
(269,737,c),
(269,722,o),
(245,700,o),
(236,699,c),
(162,722,o),
(110,746,o),
(50,797,c),
(62,884,l,{
name = hr00;
})
);
}
);
width = 319;
}
);
},
{
glyphname = acute.case;
layers = (
{
layerId = master01;
shapes = (
{
closed = 1;
nodes = (
(241,894,l),
(202,841,o),
(140,778,o),
(50,737,c),
(50,722,o),
(74,700,o),
(83,699,c),
(157,722,o),
(209,746,o),
(269,797,c),
(257,884,l,{
name = hr00;
})
);
}
);
width = 319;
}
);
},
{
glyphname = hungarumlaut.case;
layers = (
{
layerId = master01;
shapes = (
{
closed = 1;
nodes = (
(188,888,l),
(159,833,o),
(105,773,o),
(50,729,c),
(51,714,o),
(74,694,o),
(82,694,c),
(145,723,o),
(179,750,o),
(228,805,c),
(203,880,l,{
name = hr00;
})
);
},
{
closed = 1;
nodes = (
(346,888,l),
(317,833,o),
(263,773,o),
(208,729,c),
(209,714,o),
(232,694,o),
(240,694,c),
(303,723,o),
(337,750,o),
(386,805,c),
(361,880,l)
);
}
);
width = 436;
}
);
},
{
glyphname = circumflex.case;
layers = (
{
layerId = master01;
shapes = (
{
closed = 1;
nodes = (
(199,884,l),
(165,831,o),
(123,786,o),
(50,737,c),
(50,722,o),
(74,700,o),
(83,699,c),
(126,716,o),
(171,746,o),
(204,777,c),
(216,751,o),
(231,727,o),
(252,705,c),
(315,715,l),
(325,731,l),
(280,776,o),
(249,822,o),
(223,884,c,{
name = hr00;
})
);
}
);
width = 375;
}
);
},
{
glyphname = caron.case;
layers = (
{
layerId = master01;
shapes = (
{
closed = 1;
nodes = (
(176,709,l),
(210,762,o),
(252,807,o),
(325,856,c),
(325,871,o),
(301,893,o),
(292,894,c),
(249,876,o),
(203,846,o),
(171,816,c),
(159,842,o),
(143,866,o),
(123,888,c),
(60,878,l),
(50,862,l),
(95,817,o),
(126,771,o),
(152,709,c,{
name = hr00;
})
);
}
);
width = 375;
}
);
},
{
glyphname = breve.case;
layers = (
{
layerId = master01;
shapes = (
{
closed = 1;
nodes = (
(236,769,o),
(117,758,o),
(117,840,c),
(102,850,l),
(51,823,l),
(51,755,o),
(99,725,o),
(160,725,cs),
(241,725,o),
(302,787,o),
(302,858,cs),
(288,868,l),
(236,841,l,{
name = hr00;
})
);
}
);
width = 333;
}
);
},
{
glyphname = ring.case;
layers = (
{
layerId = master01;
shapes = (
{
closed = 1;
nodes = (
(96,882,o),
(50,839,o),
(50,780,cs),
(50,723,o),
(88,698,o),
(134,698,cs),
(195,698,o),
(243,741,o),
(243,800,cs),
(243,857,o),
(204,882,o),
(159,882,cs,{
name = hr00;
})
);
},
{
closed = 1;
nodes = (
(169,831,o),
(183,820,o),
(183,795,cs),
(183,768,o),
(164,749,o),
(140,749,cs),
(124,749,o),
(110,760,o),
(110,785,cs),
(110,812,o),
(128,831,o),
(152,831,cs)
);
}
);
width = 293;
}
);
},
{
glyphname = tilde.case;
layers = (
{
layerId = master01;
shapes = (
{
closed = 1;
nodes = (
(121,745,o),
(140,752,o),
(157,752,cs),
(183,752,o),
(206,735,o),
(250,735,cs,{
name = hr01;
}),
(292,735,o),
(331,764,o),
(359,829,c),
(359,837,o),
(348,850,o),
(333,850,c),
(314,822,o),
(290,806,o),
(259,806,cs),
(216,806,o),
(199,835,o),
(147,835,cs,{
name = hr02;
}),
(116,835,o),
(78,813,o),
(62,783,c),
(80,731,l),
(94,723,l)
);
}
);
width = 427;
}
);
},
{
glyphname = macron.case;
layers = (
{
layerId = master01;
shapes = (
{
closed = 1;
nodes = (
(274,844,l),
(242,823,o),
(199,805,o),
(125,805,cs),
(73,805,o),
(49,813,o),
(45,813,cs),
(42,813,o),
(40,810,o),
(40,807,cs),
(40,796,o),
(49,765,o),
(57,759,c),
(93,747,o),
(131,742,o),
(168,742,cs),
(200,742,o),
(231,746,o),
(263,753,c),
(287,825,l,{
name = hr00;
})
);
}
);
width = 313;
}
);
},
{
glyphname = caron.salt;
layers = (
{
layerId = master01;
shapes = (
{
closed = 1;
nodes = (
(178,695,o),
(153,725,o),
(116,725,cs),
(79,725,o),
(43,699,o),
(43,652,c),
(86,590,l),
(83,550,o),
(63,514,o),
(10,489,c),
(10,479,o),
(20,458,o),
(26,458,cs),
(39,458,o),
(178,514,o),
(178,649,cs,{
name = hr00;
})
);
}
);
width = 217;
}
);
},
{
glyphname = commaaccent;
layers = (
{
layerId = master01;
shapes = (
{
closed = 1;
nodes = (
(178,-108,o),
(153,-78,o),
(116,-78,cs),
(79,-78,o),
(43,-104,o),
(43,-151,c),
(86,-213,l),
(83,-253,o),
(63,-289,o),
(10,-314,c),
(10,-324,o),
(20,-345,o),
(26,-345,cs),
(39,-345,o),
(178,-289,o),
(178,-154,cs,{
name = hr00;
})
);
}
);
width = 217;
}
);
unicode = 63171;
},
{
glyphname = barra;
layers = (
{
layerId = master01;
shapes = (
{
closed = 1;
nodes = (
(367,230,o),
(426,234,o),
(480,242,c),
(487,261,l),
(467,311,l),
(373,285,o),
(226,276,o),
(113,276,c),
(103,269,o),
(100,258,o),
(100,250,cs),
(100,244,o),
(164,230,o),
(300,230,cs,{
name = hr00;
})
);
}
);
width = 588;
}
);
},
{
glyphname = ringacute;
layers = (
{
layerId = master01;
shapes = (
{
closed = 1;
nodes = (
(96,705,o),
(50,662,o),
(50,603,cs),
(50,546,o),
(88,521,o),
(134,521,cs),
(195,521,o),
(243,564,o),
(243,623,cs),
(243,680,o),
(204,705,o),
(159,705,cs,{
name = hr00;
})
);
},
{
closed = 1;
nodes = (
(169,654,o),
(183,643,o),
(183,618,cs),
(183,591,o),
(164,572,o),
(140,572,cs),
(124,572,o),
(110,583,o),
(110,608,cs),
(110,635,o),
(128,654,o),
(152,654,cs)
);
},
{
closed = 1;
nodes = (
(237,660,o),
(271,679,o),
(310,712,c),
(300,787,l),
(286,796,l),
(259,760,o),
(220,719,o),
(167,685,c),
(196,644,l)
);
}
);
width = 293;
}
);
},
{
glyphname = ringacute.case;
layers = (
{
layerId = master01;
shapes = (
{
closed = 1;
nodes = (
(96,882,o),
(50,839,o),
(50,780,cs),
(50,723,o),
(88,698,o),
(134,698,cs),
(195,698,o),
(243,741,o),
(243,800,cs),
(243,857,o),
(204,882,o),
(159,882,cs,{
name = hr00;
})
);
},
{
closed = 1;
nodes = (
(169,831,o),
(183,820,o),
(183,795,cs),
(183,768,o),
(164,749,o),
(140,749,cs),
(124,749,o),
(110,760,o),
(110,785,cs),
(110,812,o),
(128,831,o),
(152,831,cs)
);
},
{
closed = 1;
nodes = (
(237,837,o),
(271,856,o),
(310,889,c),
(300,964,l),
(286,973,l),
(259,937,o),
(220,896,o),
(167,862,c),
(196,821,l)
);
}
